<?xml version="1.0" encoding="utf-8"?>
<!-- Generator: Adobe Illustrator 24.0.2, SVG Export Plug-In . SVG Version: 6.00 Build 0)  -->
<svg version="1.1" id="Layer_1" xmlns="http://www.w3.org/2000/svg" xmlns:xlink="http://www.w3.org/1999/xlink" x="0px" y="0px"
	 viewBox="0 0 143 143" style="enable-background:new 0 0 143 143;" xml:space="preserve">
<style type="text/css">
	.st0{fill:url(#SVGID_1_);}
	.st1{fill-rule:evenodd;clip-rule:evenodd;fill:url(#SVGID_2_);}
	.st2{fill-opacity:0.3;}
	.st3{fill:#FFFFFF;fill-opacity:0.2;}
	.st4{fill:url(#SVGID_3_);}
	.st5{fill:url(#SVGID_4_);}
	.st6{fill-rule:evenodd;clip-rule:evenodd;fill:url(#SVGID_5_);}
	.st7{fill-opacity:0.2;}
	.st8{fill-rule:evenodd;clip-rule:evenodd;fill:url(#SVGID_6_);}
	.st9{fill:#1AD9FF;}
	.st10{fill-rule:evenodd;clip-rule:evenodd;fill-opacity:0.5;}
	.st11{fill:#FFC34D;}
	.st12{fill:url(#SVGID_7_);}
</style>
<linearGradient id="SVGID_1_" gradientUnits="userSpaceOnUse" x1="33.0678" y1="98.3622" x2="123.1089" y2="37.9772" gradientTransform="matrix(1 0 0 -1 0 145)">
	<stop  offset="0" style="stop-color:#365FB3"/>
	<stop  offset="0.4552" style="stop-color:#471F99"/>
	<stop  offset="0.9346" style="stop-color:#5E1980"/>
</linearGradient>
<path class="st0" d="M12.8,36.8l57.9,33.4l58.6-33.4v66.1c0,3-1.6,5.8-4.2,7.4l-49.7,29.1c-2.7,1.6-6,1.6-8.6,0L17,110.2
	c-2.6-1.5-4.2-4.3-4.2-7.4V36.8z"/>
<linearGradient id="SVGID_2_" gradientUnits="userSpaceOnUse" x1="14.2047" y1="75.0322" x2="130.6898" y2="49.8172" gradientTransform="matrix(1 0 0 -1 0 145)">
	<stop  offset="0" style="stop-color:#5C8AE6"/>
	<stop  offset="0.848" style="stop-color:#661F66"/>
</linearGradient>
<path class="st1" d="M12.4,36.1l58.2,33.6l59-33.6v66.8c0,3.2-1.7,6.1-4.4,7.7l-49.7,29.1c-2.8,1.6-6.2,1.6-9,0l-49.7-29.1
	c-2.7-1.6-4.4-4.5-4.4-7.7V36.1z M128.9,37.4L70.7,70.5L13.1,37.4v65.5c0,2.9,1.5,5.6,4,7L66.9,139c2.5,1.5,5.7,1.5,8.3,0l49.7-29.1
	c2.5-1.5,4-4.1,4-7V37.4z"/>
<path class="st2" d="M12.8,92.2l53.9,31.6c2.7,1.6,6,1.6,8.6,0l53.9-31.6V95l-52.5,30.7c-3.5,2.1-7.9,2.1-11.5,0L12.8,95V92.2z"/>
<path class="st3" d="M12.8,94.3L66,125.4c3.1,1.8,6.9,1.8,10,0l53.2-31.2V95l-53.2,31.2c-3.1,1.8-6.9,1.8-10,0L12.8,95V94.3z"/>
<linearGradient id="SVGID_3_" gradientUnits="userSpaceOnUse" x1="65.3453" y1="39.3515" x2="76.7097" y2="39.3515" gradientTransform="matrix(1 0 0 -1 0 145)">
	<stop  offset="0" style="stop-color:#000000;stop-opacity:0"/>
	<stop  offset="0.4996" style="stop-color:#000000;stop-opacity:0.1"/>
	<stop  offset="1" style="stop-color:#000000;stop-opacity:0"/>
</linearGradient>
<path class="st4" d="M65.3,70.1h11.4v71H65.3V70.1z"/>
<linearGradient id="SVGID_4_" gradientUnits="userSpaceOnUse" x1="23.5772" y1="86.6549" x2="118.9369" y2="129.6108" gradientTransform="matrix(1 0 0 -1 0 145)">
	<stop  offset="0" style="stop-color:#527ACC"/>
	<stop  offset="1" style="stop-color:#7A3D99"/>
</linearGradient>
<path class="st5" d="M67.8,3.6c1.8-1,3.9-1,5.7,0L128.1,35c1.9,1.1,1.9,3.9,0,4.9L73.5,70.7c-1.7,1-3.9,1-5.6,0l-54-30.8
	c-1.9-1.1-1.9-3.8,0-4.9L67.8,3.6z"/>
<linearGradient id="SVGID_5_" gradientUnits="userSpaceOnUse" x1="58.0063" y1="62.2989" x2="84.1297" y2="153.2828" gradientTransform="matrix(1 0 0 -1 0 145)">
	<stop  offset="0" style="stop-color:#66CCFF"/>
	<stop  offset="1" style="stop-color:#991F99"/>
</linearGradient>
<path class="st6" d="M67.7,3.3c1.9-1.1,4.2-1.1,6,0l54.6,31.4c2.1,1.2,2.1,4.3,0,5.6L73.7,71c-1.8,1-4.1,1-6,0l-54-30.8
	c-2.1-1.2-2.2-4.3,0-5.5L67.7,3.3z M73.3,3.9c-1.7-0.9-3.7-0.9-5.3,0L14,35.3c-1.7,1-1.6,3.4,0,4.3l54,30.8c1.6,0.9,3.6,0.9,5.3,0
	l54.6-30.8c1.7-0.9,1.7-3.4,0-4.3L73.3,3.9z"/>
<path class="st7" d="M70.1,17.2c0.2-0.1,0.3-0.2,0.4-0.2c0.1,0,0.2,0,0.3,0c0.1,0,0.2,0.1,0.4,0.2l33.9,19.3c0.6,0.3,0.9,0.5,1,0.7
	c0.1,0.2,0.1,0.4,0,0.6c-0.1,0.2-0.4,0.4-1,0.7L71.2,57c-0.2,0.1-0.3,0.2-0.4,0.2c-0.1,0-0.2,0-0.3,0c-0.1,0-0.2-0.1-0.4-0.2
	L36.9,38.4c-0.6-0.3-0.9-0.5-1-0.7c-0.1-0.2-0.1-0.4,0-0.6c0.1-0.2,0.4-0.4,0.9-0.7L70.1,17.2z"/>
<linearGradient id="SVGID_6_" gradientUnits="userSpaceOnUse" x1="40.9653" y1="94.6883" x2="101.3451" y2="121.5172" gradientTransform="matrix(1 0 0 -1 0 145)">
	<stop  offset="0" style="stop-color:#334466"/>
	<stop  offset="1" style="stop-color:#3D1F4D"/>
</linearGradient>
<path class="st8" d="M70.2,15.3c0.3-0.1,0.7-0.1,1,0c0.4,0.1,0.8,0.3,0.9,0.4c0,0,0,0,0,0l33.9,19.3c0.2,0.1,0.5,0.3,0.8,0.5
	c0.2,0.2,0.7,0.5,0.9,1c0.3,0.7,0.3,1.4,0,2c-0.3,0.6-0.7,0.9-0.9,1c-0.2,0.2-0.5,0.3-0.8,0.4L72.1,58.6c0,0,0,0,0,0
	c-0.1,0.1-0.5,0.3-0.9,0.4c-0.3,0.1-0.7,0.1-1,0c-0.4-0.1-0.7-0.3-0.9-0.4c0,0,0,0,0,0L36,40c0,0,0,0,0,0c-0.2-0.1-0.5-0.3-0.7-0.4
	c-0.2-0.2-0.7-0.5-0.9-1c-0.3-0.6-0.3-1.4,0-2c0.2-0.6,0.7-0.9,0.9-1c0.2-0.2,0.5-0.3,0.7-0.5c0,0,0,0,0,0l33.2-19.3c0,0,0,0,0,0
	C69.4,15.6,69.7,15.3,70.2,15.3z M70.7,18.9L38.7,37.4l31.9,17.9l32.6-17.9L70.7,18.9z"/>
<path class="st9" d="M22.7,57.9c0-1.1,0.8-1.6,1.8-1c1,0.6,1.8,1.9,1.8,3.1v29.5c0,1.1-0.8,1.6-1.8,1c-1-0.6-1.8-1.9-1.8-3.1V57.9z"
	/>
<path class="st10" d="M24.6,90.5c0.8,0.4,1.5,0.3,1.7-0.4c-0.2,0-0.5-0.1-0.8-0.2c-1-0.6-1.8-1.9-1.8-3.1V57.3c0-0.3,0-0.5,0.1-0.7
	c-0.6,0-1,0.5-1,1.3v29.5C22.7,88.6,23.5,89.9,24.6,90.5z"/>
<path class="st9" d="M32,62.9c0-1.1,0.8-1.6,1.8-1c1,0.6,1.8,1.9,1.8,3.1v29.5c0,1.1-0.8,1.6-1.8,1c-1-0.6-1.8-1.9-1.8-3.1V62.9z"/>
<path class="st10" d="M33.8,95.5c0.8,0.4,1.5,0.3,1.7-0.4c-0.2,0-0.5-0.1-0.8-0.2c-1-0.6-1.8-1.9-1.8-3.1V62.3c0-0.3,0-0.5,0.1-0.7
	c-0.6,0-1,0.5-1,1.3v29.5C32,93.5,32.8,94.9,33.8,95.5z"/>
<path class="st9" d="M41.2,68.6c0-1.1,0.8-1.6,1.8-1c1,0.6,1.8,1.9,1.8,3.1v29.5c0,1.1-0.8,1.6-1.8,1c-1-0.6-1.8-1.9-1.8-3.1V68.6z"
	/>
<path class="st10" d="M43,101.1c0.8,0.4,1.5,0.3,1.7-0.4c-0.2,0-0.5-0.1-0.8-0.2c-1-0.6-1.8-1.9-1.8-3.1V67.9c0-0.3,0-0.5,0.1-0.7
	c-0.6,0-1,0.5-1,1.3v29.5C41.2,99.2,42,100.6,43,101.1z"/>
<path class="st9" d="M50.4,73.5c0-1.1,0.8-1.6,1.8-1c1,0.6,1.8,1.9,1.8,3.1v29.5c0,1.1-0.8,1.6-1.8,1c-1-0.6-1.8-1.9-1.8-3.1V73.5z"
	/>
<path class="st10" d="M52.3,106.1c0.8,0.4,1.5,0.3,1.7-0.4c-0.2,0-0.5-0.1-0.8-0.2c-1-0.6-1.8-1.9-1.8-3.1V72.9c0-0.3,0-0.5,0.1-0.7
	c-0.6,0-1,0.5-1,1.3v29.5C50.4,104.2,51.3,105.6,52.3,106.1z"/>
<g>
	<path class="st11" d="M108,113.7c0,0.8-0.6,1.8-1.2,2.2c-0.7,0.4-1.2,0.1-1.2-0.7c0-0.8,0.6-1.8,1.2-2.2
		C107.4,112.5,108,112.8,108,113.7z"/>
	<path class="st9" d="M104.3,115.9c0,0.8-0.6,1.8-1.2,2.2c-0.7,0.4-1.2,0.1-1.2-0.7c0-0.8,0.6-1.8,1.2-2.2
		C103.7,114.7,104.3,115.1,104.3,115.9z"/>
	<path class="st9" d="M100.6,118.1c0,0.8-0.6,1.8-1.2,2.2c-0.7,0.4-1.2,0.1-1.2-0.7c0-0.8,0.6-1.8,1.2-2.2
		C100,117,100.6,117.3,100.6,118.1z"/>
	<path class="st9" d="M96.8,120.3c0,0.8-0.6,1.8-1.2,2.2c-0.7,0.4-1.2,0.1-1.2-0.7c0-0.8,0.6-1.8,1.2-2.2
		C96.3,119.2,96.8,119.5,96.8,120.3z"/>
	<path class="st9" d="M93.1,122.5c0,0.8-0.6,1.8-1.2,2.2c-0.7,0.4-1.2,0.1-1.2-0.7c0-0.8,0.6-1.8,1.2-2.2
		C92.6,121.4,93.1,121.7,93.1,122.5z"/>
	<path class="st9" d="M89.4,124.7c0,0.8-0.6,1.8-1.2,2.2c-0.7,0.4-1.2,0.1-1.2-0.7c0-0.8,0.6-1.8,1.2-2.2
		C88.9,123.6,89.4,123.9,89.4,124.7z"/>
	<path class="st9" d="M85.7,127c0,0.8-0.6,1.8-1.2,2.2c-0.7,0.4-1.2,0.1-1.2-0.7c0-0.8,0.6-1.8,1.2-2.2
		C85.2,125.8,85.7,126.1,85.7,127z"/>
	<path class="st9" d="M82,129.2c0,0.8-0.6,1.8-1.2,2.2c-0.7,0.4-1.2,0.1-1.2-0.7c0-0.8,0.6-1.8,1.2-2.2C81.5,128,82,128.4,82,129.2z
		"/>
</g>
<g>
	<path class="st9" d="M120.7,77.2c0-1,0.7-2.2,1.5-2.7c0.8-0.5,1.5-0.1,1.5,0.9v1.4c0,1-0.7,2.2-1.5,2.7c-0.9,0.5-1.5,0.1-1.5-0.9
		V77.2z"/>
</g>
<g>
	<path class="st9" d="M120.7,69.8c0-1,0.7-2.2,1.5-2.7c0.8-0.5,1.5-0.1,1.5,0.9v1.4c0,1-0.7,2.2-1.5,2.7c-0.9,0.5-1.5,0.1-1.5-0.9
		V69.8z"/>
</g>
<g>
	<path class="st9" d="M120.7,62.3c0-1,0.7-2.2,1.5-2.7c0.8-0.5,1.5-0.1,1.5,0.9V62c0,1-0.7,2.2-1.5,2.7c-0.9,0.5-1.5,0.1-1.5-0.9
		V62.3z"/>
</g>
<g>
	<path class="st9" d="M120.7,54.9c0-1,0.7-2.2,1.5-2.7c0.8-0.5,1.5-0.1,1.5,0.9v1.4c0,1-0.7,2.2-1.5,2.7c-0.9,0.5-1.5,0.1-1.5-0.9
		V54.9z"/>
</g>
<g>
	<path class="st9" d="M91.1,89.4l15.8-9.5v2.2l-15.8,9.5V89.4z"/>
</g>
<g>
	<path class="st9" d="M86.9,92l2.4-1.5v2.2l-2.4,1.5V92z"/>
</g>
<g>
	<path class="st9" d="M79.6,96.4l5.5-3.3v2.2l-5.5,3.3V96.4z"/>
</g>
<g>
	<path class="st9" d="M96.6,81.7l17-10.2v2.2l-17,10.2V81.7z"/>
</g>
<g>
	<path class="st9" d="M92.3,84.3l2.4-1.5V85l-2.4,1.5V84.3z"/>
</g>
<g>
	<path class="st9" d="M88.1,86.8l2.4-1.5v2.2L88.1,89V86.8z"/>
</g>
<g>
	<path class="st11" d="M83.8,89.4l2.4-1.5v2.2l-2.4,1.5V89.4z"/>
</g>
<g>
	<path class="st9" d="M79.6,92l2.4-1.5v2.2l-2.4,1.5V92z"/>
</g>
<g>
	<path class="st9" d="M95.4,78.1l14-8.4v2.2l-14,8.4V78.1z"/>
</g>
<g>
	<path class="st9" d="M79.6,87.6l14-8.4v2.2l-14,8.4V87.6z"/>
</g>
<g>
	<path class="st9" d="M106.9,66.7l6.7-4v2.2l-6.7,4V66.7z"/>
</g>
<g>
	<path class="st11" d="M88.7,77.7l16.4-9.9V70l-16.4,9.9V77.7z"/>
</g>
<g>
	<path class="st11" d="M79.6,83.2l7.3-4.4V81l-7.3,4.4V83.2z"/>
</g>
<g>
	<path class="st9" d="M98.4,67.5l9.7-5.9v2.2l-9.7,5.9V67.5z"/>
</g>
<g>
	<path class="st9" d="M79.6,78.8l17-10.2v2.2L79.6,81V78.8z"/>
</g>
<g>
	
		<linearGradient id="SVGID_7_" gradientUnits="userSpaceOnUse" x1="71.0108" y1="126.3604" x2="71.0108" y2="89.426" gradientTransform="matrix(1 0 0 -1 0 145)">
		<stop  offset="0" style="stop-color:#99DDFF"/>
		<stop  offset="1" style="stop-color:#99BBFF"/>
	</linearGradient>
	<path class="st12" d="M69.1,19.6c0.6-0.3,0.9-0.5,1.2-0.6c0.3-0.1,0.6-0.1,0.8,0c0.3,0.1,0.6,0.2,1.2,0.6L100.9,36
		c0.8,0.5,1.2,0.7,1.3,1c0.1,0.3,0.1,0.6,0,0.8c-0.1,0.3-0.5,0.5-1.4,1L72.2,54.7c-0.6,0.3-0.9,0.5-1.2,0.5c-0.3,0.1-0.5,0.1-0.8,0
		c-0.3-0.1-0.6-0.2-1.2-0.5l-28-15.9c-0.8-0.4-1.2-0.7-1.3-1c-0.1-0.3-0.1-0.6,0-0.8c0.1-0.3,0.5-0.5,1.3-1L69.1,19.6z"/>
</g>
</svg>
