<?xml version="1.0" encoding="utf-8"?>
<!-- Generator: Adobe Illustrator 24.0.2, SVG Export Plug-In . SVG Version: 6.00 Build 0)  -->
<svg version="1.1" id="Layer_1" xmlns="http://www.w3.org/2000/svg" xmlns:xlink="http://www.w3.org/1999/xlink" x="0px" y="0px"
	 viewBox="0 0 143 143" style="enable-background:new 0 0 143 143;" xml:space="preserve">
<style type="text/css">
	.st0{fill:url(#SVGID_1_);}
	.st1{fill-rule:evenodd;clip-rule:evenodd;fill:url(#SVGID_2_);}
	.st2{fill-opacity:0.3;}
	.st3{fill:#FFFFFF;fill-opacity:0.2;}
	.st4{fill:url(#SVGID_3_);}
	.st5{fill:url(#SVGID_4_);}
	.st6{fill-rule:evenodd;clip-rule:evenodd;fill:url(#SVGID_5_);}
	.st7{fill-opacity:0.2;}
	.st8{fill-rule:evenodd;clip-rule:evenodd;fill:url(#SVGID_6_);}
	.st9{fill:#1AD9FF;}
	.st10{fill-rule:evenodd;clip-rule:evenodd;fill-opacity:0.5;}
	.st11{fill:#FFC34D;}
	.st12{fill:url(#SVGID_7_);}
	.st13{fill:url(#SVGID_8_);}
	.st14{fill-rule:evenodd;clip-rule:evenodd;fill:url(#SVGID_9_);}
	.st15{fill:url(#SVGID_10_);}
	.st16{fill:url(#SVGID_11_);}
	.st17{fill-rule:evenodd;clip-rule:evenodd;fill:url(#SVGID_12_);}
	.st18{fill-rule:evenodd;clip-rule:evenodd;fill:url(#SVGID_13_);}
	.st19{fill:url(#SVGID_14_);}
	.st20{fill:url(#SVGID_15_);}
	.st21{fill-rule:evenodd;clip-rule:evenodd;fill:url(#SVGID_16_);}
	.st22{fill:url(#SVGID_17_);}
	.st23{fill:url(#SVGID_18_);}
	.st24{fill-rule:evenodd;clip-rule:evenodd;fill:url(#SVGID_19_);}
	.st25{fill-rule:evenodd;clip-rule:evenodd;fill:url(#SVGID_20_);}
	.st26{fill:url(#SVGID_21_);}
</style>
<linearGradient id="SVGID_1_" gradientUnits="userSpaceOnUse" x1="46.9965" y1="104.8547" x2="125.0093" y2="52.5365" gradientTransform="matrix(1 0 0 -1 0 144)">
	<stop  offset="0" style="stop-color:#365FB3"/>
	<stop  offset="0.4552" style="stop-color:#471F99"/>
	<stop  offset="0.9346" style="stop-color:#5E1980"/>
</linearGradient>
<path class="st0" d="M29.4,30.6l50.2,28.9l50.8-28.9v57.3c0,2.6-1.4,5-3.7,6.4l-43.1,25.2c-2.3,1.3-5.2,1.3-7.5,0L33.1,94.3
	c-2.3-1.3-3.7-3.7-3.7-6.4V30.6z"/>
<linearGradient id="SVGID_2_" gradientUnits="userSpaceOnUse" x1="30.6532" y1="84.6404" x2="131.5773" y2="62.7943" gradientTransform="matrix(1 0 0 -1 0 144)">
	<stop  offset="0" style="stop-color:#5C8AE6"/>
	<stop  offset="0.848" style="stop-color:#661F66"/>
</linearGradient>
<path class="st1" d="M29.1,30l50.5,29.1l51.1-29.1v57.8c0,2.7-1.4,5.3-3.8,6.6l-43.1,25.2c-2.4,1.4-5.4,1.4-7.8,0L32.9,94.5
	c-2.4-1.4-3.8-3.9-3.8-6.6V30z M130,31.1L79.6,59.9L29.7,31.1v56.8c0,2.5,1.3,4.8,3.5,6.1l43.1,25.2c2.2,1.3,4.9,1.3,7.2,0L126.5,94
	c2.2-1.3,3.5-3.6,3.5-6.1V31.1z"/>
<path class="st2" d="M29.4,78.6l46.7,27.4c2.3,1.3,5.2,1.3,7.5,0l46.7-27.4V81l-45.5,26.6c-3.1,1.8-6.9,1.8-9.9,0L29.4,81V78.6z"/>
<path class="st3" d="M29.4,80.4l46.1,27c2.7,1.6,6,1.6,8.7,0l46.1-27V81l-46.1,27c-2.7,1.6-6,1.6-8.7,0L29.4,81V80.4z"/>
<linearGradient id="SVGID_3_" gradientUnits="userSpaceOnUse" x1="74.9621" y1="53.7272" x2="84.8083" y2="53.7272" gradientTransform="matrix(1 0 0 -1 0 144)">
	<stop  offset="0" style="stop-color:#000000;stop-opacity:0"/>
	<stop  offset="0.4996" style="stop-color:#000000;stop-opacity:0.1"/>
	<stop  offset="1" style="stop-color:#000000;stop-opacity:0"/>
</linearGradient>
<path class="st4" d="M75,59.5h9.8V121H75V59.5z"/>
<linearGradient id="SVGID_4_" gradientUnits="userSpaceOnUse" x1="38.7736" y1="94.7116" x2="121.3946" y2="131.9286" gradientTransform="matrix(1 0 0 -1 0 144)">
	<stop  offset="0" style="stop-color:#527ACC"/>
	<stop  offset="1" style="stop-color:#7A3D99"/>
</linearGradient>
<path class="st5" d="M77.1,1.9C78.6,1,80.5,1,82,1.8L129.4,29c1.7,1,1.6,3.3,0,4.3L82,60c-1.5,0.8-3.3,0.8-4.9,0L30.4,33.3
	c-1.6-0.9-1.7-3.3,0-4.3L77.1,1.9z"/>
<linearGradient id="SVGID_5_" gradientUnits="userSpaceOnUse" x1="68.6034" y1="73.6087" x2="91.2371" y2="152.4384" gradientTransform="matrix(1 0 0 -1 0 144)">
	<stop  offset="0" style="stop-color:#66CCFF"/>
	<stop  offset="1" style="stop-color:#991F99"/>
</linearGradient>
<path class="st6" d="M77,1.6c1.6-0.9,3.6-0.9,5.2,0l47.3,27.2c1.9,1.1,1.9,3.8,0,4.8L82.2,60.2c-1.6,0.9-3.6,0.9-5.2,0L30.2,33.6
	c-1.9-1.1-1.9-3.7,0-4.8L77,1.6z M81.9,2.1c-1.4-0.8-3.2-0.8-4.6,0L30.5,29.3c-1.4,0.8-1.4,2.9,0,3.7l46.8,26.7
	c1.4,0.8,3.1,0.8,4.5,0l47.3-26.7c1.5-0.8,1.5-2.9,0-3.7L81.9,2.1z"/>
<path class="st7" d="M79.1,13.6c0.2-0.1,0.3-0.2,0.4-0.2c0.1,0,0.2,0,0.3,0c0.1,0,0.2,0.1,0.4,0.2l29.4,16.7
	c0.5,0.3,0.8,0.4,0.8,0.6c0.1,0.2,0.1,0.3,0,0.5c-0.1,0.2-0.3,0.3-0.8,0.6L80.1,48.2c-0.2,0.1-0.3,0.1-0.4,0.2c-0.1,0-0.2,0-0.2,0
	c-0.1,0-0.2-0.1-0.4-0.2L50.3,32c-0.5-0.3-0.7-0.4-0.8-0.6c-0.1-0.2-0.1-0.3,0-0.5c0.1-0.2,0.3-0.3,0.8-0.6L79.1,13.6z"/>
<linearGradient id="SVGID_6_" gradientUnits="userSpaceOnUse" x1="53.8391" y1="101.6715" x2="106.1527" y2="124.9161" gradientTransform="matrix(1 0 0 -1 0 144)">
	<stop  offset="0" style="stop-color:#334466"/>
	<stop  offset="1" style="stop-color:#3D1F4D"/>
</linearGradient>
<path class="st8" d="M79.1,12c0.3-0.1,0.6-0.1,0.9,0c0.4,0.1,0.7,0.3,0.8,0.3c0,0,0,0,0,0L110.2,29c0.2,0.1,0.5,0.3,0.7,0.4
	c0.2,0.1,0.6,0.4,0.8,0.9c0.3,0.6,0.2,1.2,0,1.8c-0.2,0.5-0.6,0.8-0.8,0.9c-0.2,0.1-0.4,0.3-0.7,0.4L80.8,49.5c0,0,0,0,0,0
	c-0.1,0.1-0.4,0.2-0.8,0.3c-0.3,0.1-0.6,0.1-0.9,0c-0.3-0.1-0.6-0.2-0.8-0.3c0,0,0,0,0,0L49.6,33.4c0,0,0,0,0,0
	c-0.2-0.1-0.5-0.3-0.6-0.4c-0.2-0.1-0.6-0.4-0.8-0.9c-0.3-0.6-0.3-1.2,0-1.8c0.2-0.5,0.6-0.8,0.8-0.9c0.2-0.1,0.4-0.3,0.6-0.4
	c0,0,0,0,0,0l28.8-16.7c0,0,0,0,0,0C78.5,12.2,78.8,12,79.1,12z M79.6,15.1l-27.7,16l27.7,15.5l28.2-15.5L79.6,15.1z"/>
<path class="st9" d="M38,48.9c0-1,0.7-1.4,1.5-0.9c0.8,0.5,1.5,1.7,1.5,2.6v25.6c0,1-0.7,1.4-1.5,0.9c-0.8-0.5-1.5-1.7-1.5-2.6V48.9
	z"/>
<path class="st10" d="M39.6,77.1c0.7,0.4,1.3,0.2,1.5-0.3c-0.2,0-0.4-0.1-0.7-0.2c-0.9-0.5-1.6-1.7-1.6-2.6V48.4
	c0-0.2,0-0.4,0.1-0.6c-0.5,0-0.9,0.4-0.9,1.1v25.6C38,75.5,38.7,76.7,39.6,77.1z"/>
<path class="st9" d="M46,53.2c0-1,0.7-1.4,1.5-0.9c0.8,0.5,1.5,1.7,1.5,2.6v25.6c0,1-0.7,1.4-1.5,0.9C46.7,81,46,79.8,46,78.8V53.2z
	"/>
<path class="st10" d="M47.6,81.4c0.7,0.4,1.3,0.2,1.5-0.3c-0.2,0-0.4-0.1-0.7-0.2c-0.9-0.5-1.6-1.7-1.6-2.6V52.7
	c0-0.2,0-0.4,0.1-0.6c-0.5,0-0.9,0.4-0.9,1.1v25.6C46,79.8,46.8,81,47.6,81.4z"/>
<path class="st9" d="M54,58.1c0-1,0.7-1.4,1.5-0.9c0.8,0.5,1.5,1.7,1.5,2.6v25.6c0,1-0.7,1.4-1.5,0.9c-0.8-0.5-1.5-1.7-1.5-2.6V58.1
	z"/>
<path class="st10" d="M55.6,86.4c0.7,0.4,1.3,0.2,1.5-0.3c-0.2,0-0.4-0.1-0.7-0.2c-0.9-0.5-1.6-1.7-1.6-2.6V57.6
	c0-0.2,0-0.4,0.1-0.6c-0.5,0-0.9,0.4-0.9,1.1v25.6C54,84.7,54.8,85.9,55.6,86.4z"/>
<path class="st9" d="M62,62.4c0-1,0.7-1.4,1.5-0.9c0.8,0.5,1.5,1.7,1.5,2.6v25.6c0,1-0.7,1.4-1.5,0.9C62.7,90.2,62,89,62,88V62.4z"
	/>
<path class="st10" d="M63.6,90.7c0.7,0.4,1.3,0.2,1.5-0.3c-0.2,0-0.4-0.1-0.7-0.2c-0.9-0.5-1.6-1.7-1.6-2.6V61.9
	c0-0.2,0-0.4,0.1-0.6c-0.5,0-0.9,0.4-0.9,1.1V88C62,89,62.8,90.2,63.6,90.7z"/>
<g>
	<path class="st11" d="M111.9,97.2c0,0.7-0.5,1.6-1.1,1.9c-0.6,0.4-1.1,0.1-1.1-0.6c0-0.7,0.5-1.6,1.1-1.9
		C111.4,96.2,111.9,96.5,111.9,97.2z"/>
	<path class="st9" d="M108.7,99.1c0,0.7-0.5,1.6-1.1,1.9c-0.6,0.4-1.1,0.1-1.1-0.6c0-0.7,0.5-1.6,1.1-1.9
		C108.2,98.1,108.7,98.4,108.7,99.1z"/>
	<path class="st9" d="M105.5,101.1c0,0.7-0.5,1.6-1.1,1.9c-0.6,0.4-1.1,0.1-1.1-0.6c0-0.7,0.5-1.6,1.1-1.9
		C105,100.1,105.5,100.4,105.5,101.1z"/>
	<path class="st9" d="M102.3,103c0,0.7-0.5,1.6-1.1,1.9c-0.6,0.4-1.1,0.1-1.1-0.6c0-0.7,0.5-1.6,1.1-1.9
		C101.8,102,102.3,102.3,102.3,103z"/>
	<path class="st9" d="M99,104.9c0,0.7-0.5,1.6-1.1,1.9c-0.6,0.4-1.1,0.1-1.1-0.6c0-0.7,0.5-1.6,1.1-1.9
		C98.6,103.9,99,104.2,99,104.9z"/>
	<path class="st9" d="M95.8,106.8c0,0.7-0.5,1.6-1.1,1.9c-0.6,0.4-1.1,0.1-1.1-0.6c0-0.7,0.5-1.6,1.1-1.9
		C95.4,105.8,95.8,106.1,95.8,106.8z"/>
	<path class="st9" d="M92.6,108.7c0,0.7-0.5,1.6-1.1,1.9c-0.6,0.4-1.1,0.1-1.1-0.6c0-0.7,0.5-1.6,1.1-1.9
		C92.1,107.7,92.6,108,92.6,108.7z"/>
	<path class="st9" d="M89.4,110.7c0,0.7-0.5,1.6-1.1,1.9c-0.6,0.4-1.1,0.1-1.1-0.6c0-0.7,0.5-1.6,1.1-1.9
		C88.9,109.7,89.4,110,89.4,110.7z"/>
</g>
<g>
	<path class="st9" d="M123,65.7c0-0.8,0.6-1.9,1.3-2.3c0.7-0.4,1.3-0.1,1.3,0.8v1.2c0,0.8-0.6,1.9-1.3,2.3c-0.7,0.4-1.3,0.1-1.3-0.8
		V65.7z"/>
</g>
<g>
	<path class="st9" d="M123,59.2c0-0.8,0.6-1.9,1.3-2.3c0.7-0.4,1.3-0.1,1.3,0.8v1.2c0,0.8-0.6,1.9-1.3,2.3c-0.7,0.4-1.3,0.1-1.3-0.8
		V59.2z"/>
</g>
<g>
	<path class="st9" d="M123,52.7c0-0.8,0.6-1.9,1.3-2.3c0.7-0.4,1.3-0.1,1.3,0.8v1.2c0,0.8-0.6,1.9-1.3,2.3c-0.7,0.4-1.3,0.1-1.3-0.8
		V52.7z"/>
</g>
<g>
	<path class="st9" d="M123,46.3c0-0.8,0.6-1.9,1.3-2.3c0.7-0.4,1.3-0.1,1.3,0.8V46c0,0.8-0.6,1.9-1.3,2.3c-0.7,0.4-1.3,0.1-1.3-0.8
		V46.3z"/>
</g>
<g>
	<path class="st9" d="M97.3,76.2L111,68v1.9l-13.7,8.2V76.2z"/>
</g>
<g>
	<path class="st9" d="M93.6,78.4l2.1-1.3v1.9l-2.1,1.3V78.4z"/>
</g>
<g>
	<path class="st9" d="M87.3,82.2l4.7-2.9v1.9l-4.7,2.9V82.2z"/>
</g>
<g>
	<path class="st9" d="M102,69.5l14.8-8.9v1.9L102,71.4V69.5z"/>
</g>
<g>
	<path class="st9" d="M98.3,71.8l2.1-1.3v1.9l-2.1,1.3V71.8z"/>
</g>
<g>
	<path class="st9" d="M94.7,74l2.1-1.3v1.9l-2.1,1.3V74z"/>
</g>
<g>
	<path class="st11" d="M91,76.2l2.1-1.3v1.9L91,78.1V76.2z"/>
</g>
<g>
	<path class="st9" d="M87.3,78.4l2.1-1.3v1.9l-2.1,1.3V78.4z"/>
</g>
<g>
	<path class="st9" d="M101,66.4l12.1-7.3V61L101,68.3V66.4z"/>
</g>
<g>
	<path class="st9" d="M87.3,74.6l12.1-7.3v1.9l-12.1,7.3V74.6z"/>
</g>
<g>
	<path class="st9" d="M111,56.6l5.8-3.5V55l-5.8,3.5V56.6z"/>
</g>
<g>
	<path class="st11" d="M95.2,66.1l14.2-8.6v1.9L95.2,68V66.1z"/>
</g>
<g>
	<path class="st11" d="M87.3,70.8l6.3-3.8v1.9l-6.3,3.8V70.8z"/>
</g>
<g>
	<path class="st9" d="M103.6,57.2l8.4-5.1V54l-8.4,5.1V57.2z"/>
</g>
<g>
	<path class="st9" d="M87.3,67l14.8-8.9V60l-14.8,8.9V67z"/>
</g>
<g>
	
		<linearGradient id="SVGID_7_" gradientUnits="userSpaceOnUse" x1="79.8619" y1="129.1126" x2="79.8619" y2="97.1123" gradientTransform="matrix(1 0 0 -1 0 144)">
		<stop  offset="0" style="stop-color:#99DDFF"/>
		<stop  offset="1" style="stop-color:#99BBFF"/>
	</linearGradient>
	<path class="st12" d="M77.3,16.2c0.8-0.5,1.2-0.7,1.7-0.8c0.4-0.1,0.8-0.1,1.2,0c0.4,0.1,0.8,0.3,1.7,0.8l22.6,13
		c1.1,0.6,1.7,1,1.9,1.4c0.2,0.4,0.2,0.8,0,1.1c-0.2,0.4-0.8,0.7-1.9,1.4L81.8,45.7c-0.8,0.4-1.2,0.7-1.6,0.8
		c-0.4,0.1-0.8,0.1-1.1,0c-0.4-0.1-0.8-0.3-1.6-0.8L55.3,33.1c-1.1-0.6-1.7-0.9-1.8-1.4c-0.2-0.4-0.2-0.8,0-1.1
		c0.2-0.4,0.7-0.7,1.8-1.4L77.3,16.2z"/>
</g>
<linearGradient id="SVGID_8_" gradientUnits="userSpaceOnUse" x1="13.601" y1="60.4533" x2="69.6335" y2="23.0739" gradientTransform="matrix(1 0 0 -1 0 144)">
	<stop  offset="0" style="stop-color:#365FB3"/>
	<stop  offset="0.4552" style="stop-color:#471F99"/>
	<stop  offset="0.9346" style="stop-color:#5E1980"/>
</linearGradient>
<path class="st13" d="M1.1,77.3L37,98.1l36.3-20.8v41.2c0,1.9-1,3.6-2.6,4.6l-30.8,18.1c-1.6,1-3.7,1-5.3,0L3.7,123.1
	c-1.6-1-2.6-2.7-2.6-4.6V77.3z"/>
<linearGradient id="SVGID_9_" gradientUnits="userSpaceOnUse" x1="1.9571" y1="45.9116" x2="74.2435" y2="30.3465" gradientTransform="matrix(1 0 0 -1 0 144)">
	<stop  offset="0" style="stop-color:#5C8AE6"/>
	<stop  offset="0.848" style="stop-color:#661F66"/>
</linearGradient>
<path class="st14" d="M0.9,76.9L37,97.8l36.6-20.9v41.6c0,2-1,3.8-2.7,4.8L40,141.4c-1.7,1-3.8,1-5.6,0L3.6,123.3
	c-1.7-1-2.7-2.8-2.7-4.8V76.9z M73.1,77.6L37,98.3L1.3,77.6v40.9c0,1.8,1,3.5,2.5,4.4L34.7,141c1.6,0.9,3.5,0.9,5.1,0l30.8-18.1
	c1.6-0.9,2.5-2.6,2.5-4.4V77.6z"/>
<path class="st2" d="M1.1,111.8l33.5,19.7c1.6,1,3.7,1,5.3,0l33.5-19.7v1.8l-32.6,19.2c-2.2,1.3-4.9,1.3-7.1,0L1.1,113.6V111.8z"/>
<path class="st3" d="M1.1,113.1l33,19.4c1.9,1.1,4.3,1.1,6.2,0l33-19.4v0.4l-33,19.4c-1.9,1.1-4.3,1.1-6.2,0l-33-19.4V113.1z"/>
<linearGradient id="SVGID_10_" gradientUnits="userSpaceOnUse" x1="33.7029" y1="23.778" x2="40.752" y2="23.778" gradientTransform="matrix(1 0 0 -1 0 144)">
	<stop  offset="0" style="stop-color:#000000;stop-opacity:0"/>
	<stop  offset="0.4996" style="stop-color:#000000;stop-opacity:0.1"/>
	<stop  offset="1" style="stop-color:#000000;stop-opacity:0"/>
</linearGradient>
<path class="st15" d="M33.7,98.1h7v44.3h-7V98.1z"/>
<linearGradient id="SVGID_11_" gradientUnits="userSpaceOnUse" x1="7.7435" y1="53.39" x2="66.9975" y2="79.9409" gradientTransform="matrix(1 0 0 -1 0 144)">
	<stop  offset="0" style="stop-color:#527ACC"/>
	<stop  offset="1" style="stop-color:#7A3D99"/>
</linearGradient>
<path class="st16" d="M35.2,56.6c1.1-0.6,2.4-0.6,3.5,0l33.9,19.6c1.2,0.7,1.2,2.4,0,3.1L38.7,98.4c-1.1,0.6-2.4,0.6-3.5,0L1.8,79.2
	c-1.2-0.7-1.2-2.4,0-3.1L35.2,56.6z"/>
<linearGradient id="SVGID_12_" gradientUnits="userSpaceOnUse" x1="29.0718" y1="38.1099" x2="45.4342" y2="94.7973" gradientTransform="matrix(1 0 0 -1 0 144)">
	<stop  offset="0" style="stop-color:#66CCFF"/>
	<stop  offset="1" style="stop-color:#991F99"/>
</linearGradient>
<path class="st17" d="M35.1,56.4c1.2-0.7,2.6-0.7,3.7,0L72.8,76c1.3,0.8,1.3,2.7,0,3.5L38.9,98.6c-1.1,0.6-2.5,0.6-3.7,0L1.7,79.4
	c-1.3-0.8-1.3-2.7,0-3.5L35.1,56.4z M38.7,56.8c-1-0.6-2.3-0.6-3.3,0L1.9,76.3c-1,0.6-1,2.1,0,2.7l33.5,19.2c1,0.6,2.2,0.6,3.3,0
	L72.5,79c1-0.6,1-2.1,0-2.7L38.7,56.8z"/>
<path class="st7" d="M36.7,65.1c0.1-0.1,0.2-0.1,0.3-0.1c0.1,0,0.1,0,0.2,0c0.1,0,0.1,0.1,0.3,0.1l21,12c0.4,0.2,0.5,0.3,0.6,0.4
	c0.1,0.1,0.1,0.2,0,0.4c-0.1,0.1-0.2,0.2-0.6,0.4l-21,11.6C37.2,90,37.2,90,37.1,90c-0.1,0-0.1,0-0.2,0c-0.1,0-0.1,0-0.3-0.1
	L16.1,78.3c-0.4-0.2-0.5-0.3-0.6-0.4c-0.1-0.1-0.1-0.2,0-0.4c0.1-0.1,0.2-0.2,0.6-0.4L36.7,65.1z"/>
<linearGradient id="SVGID_13_" gradientUnits="userSpaceOnUse" x1="18.5487" y1="58.3559" x2="56.0656" y2="74.938" gradientTransform="matrix(1 0 0 -1 0 144)">
	<stop  offset="0" style="stop-color:#334466"/>
	<stop  offset="1" style="stop-color:#3D1F4D"/>
</linearGradient>
<path class="st18" d="M36.7,63.9c0.2,0,0.4,0,0.6,0c0.3,0.1,0.5,0.2,0.6,0.2c0,0,0,0,0,0l21,12c0.2,0.1,0.3,0.2,0.5,0.3
	c0.1,0.1,0.4,0.3,0.6,0.7c0.2,0.4,0.2,0.9,0,1.3c-0.2,0.3-0.4,0.5-0.6,0.6c-0.1,0.1-0.3,0.2-0.5,0.3l-21,11.6c0,0,0,0,0,0
	c-0.1,0-0.3,0.2-0.5,0.2c-0.2,0-0.4,0-0.6,0c-0.2-0.1-0.5-0.2-0.5-0.2c0,0,0,0,0,0L15.5,79.3c0,0,0,0,0,0c-0.2-0.1-0.3-0.2-0.5-0.3
	c-0.1-0.1-0.4-0.3-0.6-0.6c-0.2-0.4-0.2-0.9,0-1.3c0.2-0.3,0.4-0.6,0.6-0.7c0.1-0.1,0.3-0.2,0.5-0.3c0,0,0,0,0,0l20.6-12
	c0,0,0,0,0,0C36.2,64,36.4,63.9,36.7,63.9z M37,66.1L17.2,77.7L37,88.8l20.2-11.2L37,66.1z"/>
<path class="st9" d="M7.3,90.4c0-0.7,0.5-1,1.1-0.6s1.1,1.2,1.1,1.9v18.4c0,0.7-0.5,1-1.1,0.6s-1.1-1.2-1.1-1.9V90.4z"/>
<path class="st10" d="M8.4,110.8c0.5,0.3,0.9,0.2,1.1-0.2c-0.2,0-0.3-0.1-0.5-0.2c-0.6-0.3-1.1-1.2-1.1-1.9V90.1
	c0-0.2,0-0.3,0.1-0.4c-0.4,0-0.6,0.3-0.6,0.8v18.4C7.3,109.6,7.8,110.4,8.4,110.8z"/>
<path class="st9" d="M13,93.5c0-0.7,0.5-1,1.1-0.6c0.6,0.4,1.1,1.2,1.1,1.9v18.4c0,0.7-0.5,1-1.1,0.6c-0.6-0.3-1.1-1.2-1.1-1.9V93.5
	z"/>
<path class="st10" d="M14.1,113.9c0.5,0.3,0.9,0.2,1.1-0.2c-0.2,0-0.3-0.1-0.5-0.1c-0.6-0.4-1.1-1.2-1.1-1.9V93.2
	c0-0.2,0-0.3,0.1-0.4c-0.4,0-0.6,0.3-0.6,0.8V112C13,112.7,13.5,113.5,14.1,113.9z"/>
<path class="st9" d="M18.7,97.1c0-0.7,0.5-1,1.1-0.6c0.6,0.4,1.1,1.2,1.1,1.9v18.4c0,0.7-0.5,1-1.1,0.6c-0.6-0.4-1.1-1.2-1.1-1.9
	V97.1z"/>
<path class="st10" d="M19.9,117.4c0.5,0.3,0.9,0.2,1.1-0.2c-0.2,0-0.3-0.1-0.5-0.2c-0.6-0.3-1.1-1.2-1.1-1.9V96.7
	c0-0.2,0-0.3,0.1-0.4c-0.4,0-0.6,0.3-0.6,0.8v18.4C18.7,116.2,19.2,117.1,19.9,117.4z"/>
<path class="st9" d="M24.5,100.2c0-0.7,0.5-1,1.1-0.6c0.6,0.4,1.1,1.2,1.1,1.9v18.4c0,0.7-0.5,1-1.1,0.6c-0.6-0.3-1.1-1.2-1.1-1.9
	V100.2z"/>
<path class="st10" d="M25.6,120.5c0.5,0.3,0.9,0.2,1.1-0.2c-0.2,0-0.3-0.1-0.5-0.1c-0.6-0.4-1.1-1.2-1.1-1.9V99.8
	c0-0.2,0-0.3,0.1-0.4c-0.4,0-0.6,0.3-0.6,0.8v18.4C24.5,119.3,25,120.2,25.6,120.5z"/>
<g>
	<path class="st11" d="M60.1,125.2c0,0.5-0.3,1.1-0.8,1.4c-0.4,0.3-0.8,0-0.8-0.5c0-0.5,0.3-1.1,0.8-1.4
		C59.8,124.5,60.1,124.7,60.1,125.2z"/>
	<path class="st9" d="M57.8,126.6c0,0.5-0.3,1.1-0.8,1.4c-0.4,0.3-0.8,0-0.8-0.5c0-0.5,0.3-1.1,0.8-1.4
		C57.5,125.9,57.8,126.1,57.8,126.6z"/>
	<path class="st9" d="M55.5,128c0,0.5-0.3,1.1-0.8,1.4c-0.4,0.3-0.8,0-0.8-0.5s0.3-1.1,0.8-1.4C55.2,127.3,55.5,127.5,55.5,128z"/>
	<path class="st9" d="M53.2,129.4c0,0.5-0.3,1.1-0.8,1.4c-0.4,0.3-0.8,0-0.8-0.5s0.3-1.1,0.8-1.4C52.9,128.7,53.2,128.9,53.2,129.4z
		"/>
	<path class="st9" d="M50.9,130.7c0,0.5-0.3,1.1-0.8,1.4c-0.4,0.3-0.8,0-0.8-0.5s0.3-1.1,0.8-1.4C50.6,130,50.9,130.2,50.9,130.7z"
		/>
	<path class="st9" d="M48.6,132.1c0,0.5-0.3,1.1-0.8,1.4c-0.4,0.3-0.8,0-0.8-0.5c0-0.5,0.3-1.1,0.8-1.4
		C48.3,131.4,48.6,131.6,48.6,132.1z"/>
	<path class="st9" d="M46.3,133.5c0,0.5-0.3,1.1-0.8,1.4c-0.4,0.3-0.8,0-0.8-0.5s0.3-1.1,0.8-1.4C46,132.8,46.3,133,46.3,133.5z"/>
	<path class="st9" d="M44,134.9c0,0.5-0.3,1.1-0.8,1.4c-0.4,0.3-0.8,0-0.8-0.5s0.3-1.1,0.8-1.4C43.7,134.2,44,134.4,44,134.9z"/>
</g>
<g>
	<path class="st9" d="M68.1,102.5c0-0.6,0.4-1.4,1-1.7c0.5-0.3,1-0.1,1,0.6v0.9c0,0.6-0.4,1.4-1,1.7c-0.5,0.3-1,0.1-1-0.6V102.5z"/>
</g>
<g>
	<path class="st9" d="M68.1,97.9c0-0.6,0.4-1.4,1-1.7c0.5-0.3,1-0.1,1,0.6v0.9c0,0.6-0.4,1.4-1,1.7c-0.5,0.3-1,0.1-1-0.6V97.9z"/>
</g>
<g>
	<path class="st9" d="M68.1,93.2c0-0.6,0.4-1.4,1-1.7c0.5-0.3,1-0.1,1,0.6V93c0,0.6-0.4,1.4-1,1.7c-0.5,0.3-1,0.1-1-0.6V93.2z"/>
</g>
<g>
	<path class="st9" d="M68.1,88.6c0-0.6,0.4-1.4,1-1.7c0.5-0.3,1-0.1,1,0.6v0.9c0,0.6-0.4,1.4-1,1.7c-0.5,0.3-1,0.1-1-0.6V88.6z"/>
</g>
<g>
	<path class="st9" d="M49.7,110.1l9.8-5.9v1.4l-9.8,5.9V110.1z"/>
</g>
<g>
	<path class="st9" d="M47,111.7l1.5-0.9v1.4l-1.5,0.9V111.7z"/>
</g>
<g>
	<path class="st9" d="M42.5,114.4l3.4-2.1v1.4l-3.4,2.1V114.4z"/>
</g>
<g>
	<path class="st9" d="M53.1,105.3l10.6-6.4v1.4l-10.6,6.4V105.3z"/>
</g>
<g>
	<path class="st9" d="M50.4,106.9L52,106v1.4l-1.5,0.9V106.9z"/>
</g>
<g>
	<path class="st9" d="M47.8,108.5l1.5-0.9v1.4l-1.5,0.9V108.5z"/>
</g>
<g>
	<path class="st11" d="M45.2,110.1l1.5-0.9v1.4l-1.5,0.9V110.1z"/>
</g>
<g>
	<path class="st9" d="M42.5,111.7l1.5-0.9v1.4l-1.5,0.9V111.7z"/>
</g>
<g>
	<path class="st9" d="M52.3,103l8.7-5.2v1.4l-8.7,5.2V103z"/>
</g>
<g>
	<path class="st9" d="M42.5,109l8.7-5.2v1.4l-8.7,5.2V109z"/>
</g>
<g>
	<path class="st9" d="M59.5,96l4.2-2.5v1.4l-4.2,2.5V96z"/>
</g>
<g>
	<path class="st11" d="M48.2,102.8l10.2-6.2V98l-10.2,6.2V102.8z"/>
</g>
<g>
	<path class="st11" d="M42.5,106.2l4.5-2.7v1.4l-4.5,2.7V106.2z"/>
</g>
<g>
	<path class="st9" d="M54.2,96.4l6-3.6v1.4l-6,3.6V96.4z"/>
</g>
<g>
	<path class="st9" d="M42.5,103.5l10.6-6.4v1.4l-10.6,6.4V103.5z"/>
</g>
<g>
	
		<linearGradient id="SVGID_14_" gradientUnits="userSpaceOnUse" x1="37.2043" y1="78.0328" x2="37.2043" y2="55.0028" gradientTransform="matrix(1 0 0 -1 0 144)">
		<stop  offset="0" style="stop-color:#99DDFF"/>
		<stop  offset="1" style="stop-color:#99BBFF"/>
	</linearGradient>
	<path class="st19" d="M34.8,67.3c0.8-0.5,1.2-0.7,1.7-0.8c0.4-0.1,0.8-0.1,1.2,0c0.4,0.1,0.9,0.3,1.7,0.8l14.6,8.4
		c1.1,0.6,1.7,1,1.9,1.4c0.2,0.4,0.2,0.8,0,1.1c-0.2,0.4-0.8,0.7-1.9,1.4l-14.6,8.1c-0.8,0.4-1.2,0.7-1.6,0.8
		c-0.4,0.1-0.8,0.1-1.1,0c-0.4-0.1-0.8-0.3-1.6-0.8l-14.3-8.1c-1.1-0.6-1.6-0.9-1.8-1.4c-0.2-0.4-0.2-0.8,0-1.1
		c0.2-0.4,0.7-0.7,1.8-1.4L34.8,67.3z"/>
</g>
<linearGradient id="SVGID_15_" gradientUnits="userSpaceOnUse" x1="101.9506" y1="53.0096" x2="139.184" y2="28.0401" gradientTransform="matrix(1 0 0 -1 0 144)">
	<stop  offset="0" style="stop-color:#365FB3"/>
	<stop  offset="0.4552" style="stop-color:#471F99"/>
	<stop  offset="0.9346" style="stop-color:#5E1980"/>
</linearGradient>
<path class="st20" d="M93.6,86.9l23.9,13.8l24.2-13.8v27.3c0,1.3-0.7,2.4-1.7,3l-20.6,12c-1.1,0.6-2.5,0.6-3.6,0l-20.6-12
	c-1.1-0.6-1.7-1.8-1.7-3V86.9z"/>
<linearGradient id="SVGID_16_" gradientUnits="userSpaceOnUse" x1="94.1508" y1="43.3626" x2="142.3191" y2="32.9359" gradientTransform="matrix(1 0 0 -1 0 144)">
	<stop  offset="0" style="stop-color:#5C8AE6"/>
	<stop  offset="0.848" style="stop-color:#661F66"/>
</linearGradient>
<path class="st21" d="M93.4,86.6l24.1,13.9l24.4-13.9v27.6c0,1.3-0.7,2.5-1.8,3.2l-20.6,12c-1.1,0.7-2.6,0.7-3.7,0l-20.6-12
	c-1.1-0.7-1.8-1.9-1.8-3.2V86.6z M141.6,87.2l-24.1,13.7L93.7,87.2v27.1c0,1.2,0.6,2.3,1.7,2.9l20.6,12c1.1,0.6,2.4,0.6,3.4,0
	l20.6-12c1-0.6,1.7-1.7,1.7-2.9V87.2z"/>
<path class="st2" d="M93.6,109.8l22.3,13.1c1.1,0.6,2.5,0.6,3.6,0l22.3-13.1v1.2L120,123.7c-1.5,0.9-3.3,0.9-4.7,0L93.6,111V109.8z"
	/>
<path class="st3" d="M93.6,110.7l22,12.9c1.3,0.8,2.9,0.8,4.2,0l22-12.9v0.3l-22,12.9c-1.3,0.8-2.9,0.8-4.2,0l-22-12.9V110.7z"/>
<linearGradient id="SVGID_17_" gradientUnits="userSpaceOnUse" x1="115.2981" y1="28.6081" x2="119.9975" y2="28.6081" gradientTransform="matrix(1 0 0 -1 0 144)">
	<stop  offset="0" style="stop-color:#000000;stop-opacity:0"/>
	<stop  offset="0.4996" style="stop-color:#000000;stop-opacity:0.1"/>
	<stop  offset="1" style="stop-color:#000000;stop-opacity:0"/>
</linearGradient>
<path class="st22" d="M115.3,100.7h4.7v29.4h-4.7V100.7z"/>
<linearGradient id="SVGID_18_" gradientUnits="userSpaceOnUse" x1="98.0265" y1="48.1687" x2="137.459" y2="65.9316" gradientTransform="matrix(1 0 0 -1 0 144)">
	<stop  offset="0" style="stop-color:#527ACC"/>
	<stop  offset="1" style="stop-color:#7A3D99"/>
</linearGradient>
<path class="st23" d="M116.3,73.2c0.7-0.4,1.6-0.4,2.4,0l22.6,13c0.8,0.5,0.8,1.6,0,2l-22.6,12.7c-0.7,0.4-1.6,0.4-2.3,0L94,88.2
	c-0.8-0.4-0.8-1.6,0-2L116.3,73.2z"/>
<linearGradient id="SVGID_19_" gradientUnits="userSpaceOnUse" x1="112.2635" y1="38.0969" x2="123.0658" y2="75.7204" gradientTransform="matrix(1 0 0 -1 0 144)">
	<stop  offset="0" style="stop-color:#66CCFF"/>
	<stop  offset="1" style="stop-color:#991F99"/>
</linearGradient>
<path class="st24" d="M116.3,73.1c0.8-0.4,1.7-0.5,2.5,0l22.6,13c0.9,0.5,0.9,1.8,0,2.3l-22.6,12.7c-0.8,0.4-1.7,0.4-2.5,0
	L93.9,88.3c-0.9-0.5-0.9-1.8,0-2.3L116.3,73.1z M118.6,73.3c-0.7-0.4-1.5-0.4-2.2,0l-22.3,13c-0.7,0.4-0.7,1.4,0,1.8l22.3,12.7
	c0.7,0.4,1.5,0.4,2.2,0l22.6-12.7c0.7-0.4,0.7-1.4,0-1.8L118.6,73.3z"/>
<path class="st7" d="M117.3,78.8c0.1-0.1,0.1-0.1,0.2-0.1c0,0,0.1,0,0.1,0c0,0,0.1,0,0.2,0.1l14,8c0.2,0.1,0.4,0.2,0.4,0.3
	c0,0.1,0,0.2,0,0.2c0,0.1-0.2,0.2-0.4,0.3l-14,7.7c-0.1,0-0.1,0.1-0.2,0.1c0,0-0.1,0-0.1,0c0,0-0.1,0-0.2-0.1l-13.7-7.7
	c-0.2-0.1-0.4-0.2-0.4-0.3c0-0.1,0-0.2,0-0.2c0-0.1,0.2-0.2,0.4-0.3L117.3,78.8z"/>
<linearGradient id="SVGID_20_" gradientUnits="userSpaceOnUse" x1="105.2166" y1="51.4904" x2="130.1846" y2="62.5847" gradientTransform="matrix(1 0 0 -1 0 144)">
	<stop  offset="0" style="stop-color:#334466"/>
	<stop  offset="1" style="stop-color:#3D1F4D"/>
</linearGradient>
<path class="st25" d="M117.3,78c0.1,0,0.3,0,0.4,0c0.2,0,0.3,0.1,0.4,0.2c0,0,0,0,0,0l14,8c0.1,0.1,0.2,0.1,0.3,0.2
	c0.1,0.1,0.3,0.2,0.4,0.4c0.1,0.3,0.1,0.6,0,0.8c-0.1,0.2-0.3,0.4-0.4,0.4c-0.1,0.1-0.2,0.1-0.3,0.2l-14,7.7c0,0,0,0,0,0
	c-0.1,0-0.2,0.1-0.4,0.1c-0.1,0-0.3,0-0.4,0c-0.2,0-0.3-0.1-0.4-0.1c0,0,0,0,0,0l-13.7-7.7c0,0,0,0,0,0c-0.1-0.1-0.2-0.1-0.3-0.2
	c-0.1-0.1-0.3-0.2-0.4-0.4c-0.1-0.3-0.1-0.6,0-0.8c0.1-0.2,0.3-0.4,0.4-0.4c0.1-0.1,0.2-0.1,0.3-0.2c0,0,0,0,0,0l13.7-8c0,0,0,0,0,0
	C117,78.1,117.1,78,117.3,78z M117.5,79.5l-13.2,7.7l13.2,7.4l13.5-7.4L117.5,79.5z"/>
<path class="st9" d="M97.7,95.6c0-0.5,0.3-0.7,0.7-0.4c0.4,0.2,0.7,0.8,0.7,1.3v12.2c0,0.5-0.3,0.7-0.7,0.4
	c-0.4-0.2-0.7-0.8-0.7-1.3V95.6z"/>
<path class="st10" d="M98.4,109.1c0.3,0.2,0.6,0.1,0.7-0.2c-0.1,0-0.2,0-0.3-0.1c-0.4-0.2-0.8-0.8-0.8-1.3V95.4c0-0.1,0-0.2,0-0.3
	c-0.3,0-0.4,0.2-0.4,0.5v12.2C97.7,108.3,98,108.9,98.4,109.1z"/>
<path class="st9" d="M101.5,97.7c0-0.5,0.3-0.7,0.7-0.4c0.4,0.2,0.7,0.8,0.7,1.3v12.2c0,0.5-0.3,0.7-0.7,0.4
	c-0.4-0.2-0.7-0.8-0.7-1.3V97.7z"/>
<path class="st10" d="M102.3,111.2c0.3,0.2,0.6,0.1,0.7-0.2c-0.1,0-0.2,0-0.3-0.1c-0.4-0.2-0.8-0.8-0.8-1.3V97.5c0-0.1,0-0.2,0-0.3
	c-0.3,0-0.4,0.2-0.4,0.5v12.2C101.5,110.4,101.8,110.9,102.3,111.2z"/>
<path class="st9" d="M105.3,100.1c0-0.5,0.3-0.7,0.7-0.4c0.4,0.2,0.7,0.8,0.7,1.3v12.2c0,0.5-0.3,0.7-0.7,0.4
	c-0.4-0.2-0.7-0.8-0.7-1.3V100.1z"/>
<path class="st10" d="M106.1,113.5c0.3,0.2,0.6,0.1,0.7-0.2c-0.1,0-0.2,0-0.3-0.1c-0.4-0.2-0.8-0.8-0.8-1.3V99.8c0-0.1,0-0.2,0-0.3
	c-0.3,0-0.4,0.2-0.4,0.5v12.2C105.3,112.7,105.7,113.3,106.1,113.5z"/>
<path class="st9" d="M109.1,102.1c0-0.5,0.3-0.7,0.7-0.4c0.4,0.2,0.7,0.8,0.7,1.3v12.2c0,0.5-0.3,0.7-0.7,0.4
	c-0.4-0.2-0.7-0.8-0.7-1.3V102.1z"/>
<path class="st10" d="M109.9,115.6c0.3,0.2,0.6,0.1,0.7-0.2c-0.1,0-0.2,0-0.3-0.1c-0.4-0.2-0.8-0.8-0.8-1.3v-12.2c0-0.1,0-0.2,0-0.3
	c-0.3,0-0.4,0.2-0.4,0.5v12.2C109.1,114.8,109.5,115.4,109.9,115.6z"/>
<g>
	<path class="st11" d="M132.9,118.7c0,0.3-0.2,0.7-0.5,0.9c-0.3,0.2-0.5,0-0.5-0.3c0-0.3,0.2-0.7,0.5-0.9
		C132.7,118.2,132.9,118.4,132.9,118.7z"/>
	<path class="st9" d="M131.4,119.6c0,0.3-0.2,0.7-0.5,0.9c-0.3,0.2-0.5,0-0.5-0.3c0-0.3,0.2-0.7,0.5-0.9
		C131.2,119.1,131.4,119.3,131.4,119.6z"/>
	<path class="st9" d="M129.9,120.5c0,0.3-0.2,0.7-0.5,0.9c-0.3,0.2-0.5,0-0.5-0.3c0-0.3,0.2-0.7,0.5-0.9
		C129.6,120.1,129.9,120.2,129.9,120.5z"/>
	<path class="st9" d="M128.3,121.5c0,0.3-0.2,0.7-0.5,0.9c-0.3,0.2-0.5,0-0.5-0.3c0-0.3,0.2-0.7,0.5-0.9
		C128.1,121,128.3,121.1,128.3,121.5z"/>
	<path class="st9" d="M126.8,122.4c0,0.3-0.2,0.7-0.5,0.9c-0.3,0.2-0.5,0-0.5-0.3c0-0.3,0.2-0.7,0.5-0.9
		C126.6,121.9,126.8,122,126.8,122.4z"/>
	<path class="st9" d="M125.3,123.3c0,0.3-0.2,0.7-0.5,0.9c-0.3,0.2-0.5,0-0.5-0.3c0-0.3,0.2-0.7,0.5-0.9
		C125,122.8,125.3,123,125.3,123.3z"/>
	<path class="st9" d="M123.7,124.2c0,0.3-0.2,0.7-0.5,0.9c-0.3,0.2-0.5,0-0.5-0.3c0-0.3,0.2-0.7,0.5-0.9
		C123.5,123.7,123.7,123.9,123.7,124.2z"/>
	<path class="st9" d="M122.2,125.1c0,0.3-0.2,0.7-0.5,0.9c-0.3,0.2-0.5,0-0.5-0.3c0-0.3,0.2-0.7,0.5-0.9
		C122,124.6,122.2,124.8,122.2,125.1z"/>
</g>
<g>
	<path class="st9" d="M138.2,103.6c0-0.4,0.3-0.9,0.6-1.1c0.4-0.2,0.6,0,0.6,0.4v0.6c0,0.4-0.3,0.9-0.6,1.1c-0.4,0.2-0.6,0-0.6-0.4
		V103.6z"/>
</g>
<g>
	<path class="st9" d="M138.2,100.6c0-0.4,0.3-0.9,0.6-1.1c0.4-0.2,0.6,0,0.6,0.4v0.6c0,0.4-0.3,0.9-0.6,1.1c-0.4,0.2-0.6,0-0.6-0.4
		V100.6z"/>
</g>
<g>
	<path class="st9" d="M138.2,97.5c0-0.4,0.3-0.9,0.6-1.1c0.4-0.2,0.6,0,0.6,0.4v0.6c0,0.4-0.3,0.9-0.6,1.1c-0.4,0.2-0.6,0-0.6-0.4
		V97.5z"/>
</g>
<g>
	<path class="st9" d="M138.2,94.4c0-0.4,0.3-0.9,0.6-1.1c0.4-0.2,0.6,0,0.6,0.4v0.6c0,0.4-0.3,0.9-0.6,1.1c-0.4,0.2-0.6,0-0.6-0.4
		V94.4z"/>
</g>
<g>
	<path class="st9" d="M126,108.7l6.5-3.9v0.9l-6.5,3.9V108.7z"/>
</g>
<g>
	<path class="st9" d="M124.2,109.7l1-0.6v0.9l-1,0.6V109.7z"/>
</g>
<g>
	<path class="st9" d="M121.2,111.5l2.3-1.4v0.9l-2.3,1.4V111.5z"/>
</g>
<g>
	<path class="st9" d="M128.2,105.5l7-4.2v0.9l-7,4.2V105.5z"/>
</g>
<g>
	<path class="st9" d="M126.5,106.6l1-0.6v0.9l-1,0.6V106.6z"/>
</g>
<g>
	<path class="st9" d="M124.7,107.6l1-0.6v0.9l-1,0.6V107.6z"/>
</g>
<g>
	<path class="st11" d="M122.9,108.7l1-0.6v0.9l-1,0.6V108.7z"/>
</g>
<g>
	<path class="st9" d="M121.2,109.7l1-0.6v0.9l-1,0.6V109.7z"/>
</g>
<g>
	<path class="st9" d="M127.7,104l5.8-3.5v0.9l-5.8,3.5V104z"/>
</g>
<g>
	<path class="st9" d="M121.2,107.9l5.8-3.5v0.9l-5.8,3.5V107.9z"/>
</g>
<g>
	<path class="st9" d="M132.5,99.3l2.8-1.7v0.9l-2.8,1.7V99.3z"/>
</g>
<g>
	<path class="st11" d="M124.9,103.8l6.8-4.1v0.9l-6.8,4.1V103.8z"/>
</g>
<g>
	<path class="st11" d="M121.2,106.1l3-1.8v0.9l-3,1.8V106.1z"/>
</g>
<g>
	<path class="st9" d="M129,99.6l4-2.4v0.9l-4,2.4V99.6z"/>
</g>
<g>
	<path class="st9" d="M121.2,104.3l7-4.2v0.9l-7,4.2V104.3z"/>
</g>
<g>
	
		<linearGradient id="SVGID_21_" gradientUnits="userSpaceOnUse" x1="117.6245" y1="64.5875" x2="117.6245" y2="49.3146" gradientTransform="matrix(1 0 0 -1 0 144)">
		<stop  offset="0" style="stop-color:#99DDFF"/>
		<stop  offset="1" style="stop-color:#99BBFF"/>
	</linearGradient>
	<path class="st26" d="M115.3,80.7c0.8-0.5,1.2-0.7,1.7-0.8c0.4-0.1,0.8-0.1,1.2,0c0.4,0.1,0.8,0.3,1.7,0.8l7.8,4.5
		c1.1,0.6,1.7,1,1.9,1.4c0.2,0.4,0.2,0.8,0,1.1c-0.2,0.4-0.8,0.7-1.9,1.4l-7.9,4.4c-0.8,0.4-1.2,0.7-1.6,0.8c-0.4,0.1-0.8,0.1-1.1,0
		c-0.4-0.1-0.8-0.3-1.6-0.8l-7.7-4.3c-1.1-0.6-1.7-0.9-1.8-1.4c-0.2-0.4-0.2-0.8,0-1.1c0.2-0.4,0.7-0.7,1.8-1.4L115.3,80.7z"/>
</g>
</svg>
