<?xml version="1.0" encoding="utf-8"?>
<!-- Generator: Adobe Illustrator 24.0.2, SVG Export Plug-In . SVG Version: 6.00 Build 0)  -->
<svg version="1.1" id="Layer_1" xmlns="http://www.w3.org/2000/svg" xmlns:xlink="http://www.w3.org/1999/xlink" x="0px" y="0px"
	 viewBox="0 0 143 143" style="enable-background:new 0 0 143 143;" xml:space="preserve">
<style type="text/css">
	.st0{fill:url(#SVGID_1_);}
	.st1{fill-rule:evenodd;clip-rule:evenodd;fill:url(#SVGID_2_);}
	.st2{fill-opacity:0.3;}
	.st3{fill:#FFFFFF;fill-opacity:0.2;}
	.st4{fill:url(#SVGID_3_);}
	.st5{fill:url(#SVGID_4_);}
	.st6{fill-rule:evenodd;clip-rule:evenodd;fill:url(#SVGID_5_);}
	.st7{fill-opacity:0.2;}
	.st8{fill-rule:evenodd;clip-rule:evenodd;fill:url(#SVGID_6_);}
	.st9{fill:#1AD9FF;}
	.st10{fill-rule:evenodd;clip-rule:evenodd;fill-opacity:0.5;}
	.st11{fill:#FFC34D;}
	.st12{fill:url(#SVGID_7_);}
	.st13{fill:url(#SVGID_8_);}
	.st14{fill-rule:evenodd;clip-rule:evenodd;fill:url(#SVGID_9_);}
	.st15{fill:url(#SVGID_10_);}
	.st16{fill:url(#SVGID_11_);}
	.st17{fill-rule:evenodd;clip-rule:evenodd;fill:url(#SVGID_12_);}
	.st18{fill-rule:evenodd;clip-rule:evenodd;fill:url(#SVGID_13_);}
	.st19{fill:url(#SVGID_14_);}
	.st20{fill:url(#SVGID_15_);}
	.st21{opacity:0.5;}
	.st22{fill:url(#SVGID_16_);}
	.st23{fill:url(#SVGID_17_);}
	.st24{fill:url(#SVGID_18_);}
	.st25{fill:url(#SVGID_19_);}
	.st26{fill:url(#SVGID_20_);}
	.st27{fill:url(#SVGID_21_);}
	.st28{fill:url(#SVGID_22_);}
	.st29{fill:url(#SVGID_23_);}
	.st30{fill:url(#SVGID_24_);}
	.st31{fill-rule:evenodd;clip-rule:evenodd;fill:url(#SVGID_25_);}
	.st32{fill:url(#SVGID_26_);}
	.st33{fill:url(#SVGID_27_);}
	.st34{fill-rule:evenodd;clip-rule:evenodd;fill:url(#SVGID_28_);}
	.st35{fill-rule:evenodd;clip-rule:evenodd;fill:url(#SVGID_29_);}
	.st36{fill:url(#SVGID_30_);}
	.st37{fill:url(#SVGID_31_);}
	.st38{fill:url(#SVGID_32_);}
	.st39{fill:url(#SVGID_33_);}
	.st40{fill:url(#SVGID_34_);}
	.st41{fill:url(#SVGID_35_);}
	.st42{fill:url(#SVGID_36_);}
	.st43{fill:url(#SVGID_37_);}
	.st44{fill:url(#SVGID_38_);}
	.st45{fill:url(#SVGID_39_);}
	.st46{fill:url(#SVGID_40_);}
	.st47{fill-rule:evenodd;clip-rule:evenodd;fill:url(#SVGID_41_);}
	.st48{fill:url(#SVGID_42_);}
	.st49{fill:url(#SVGID_43_);}
	.st50{fill-rule:evenodd;clip-rule:evenodd;fill:url(#SVGID_44_);}
	.st51{fill-rule:evenodd;clip-rule:evenodd;fill:url(#SVGID_45_);}
	.st52{fill-rule:evenodd;clip-rule:evenodd;fill-opacity:0.2;}
	.st53{fill:url(#SVGID_46_);}
	.st54{fill:url(#SVGID_47_);}
	.st55{fill:url(#SVGID_48_);}
	.st56{fill-rule:evenodd;clip-rule:evenodd;fill:url(#SVGID_49_);}
	.st57{fill:url(#SVGID_50_);}
	.st58{fill:#242433;}
	.st59{fill-rule:evenodd;clip-rule:evenodd;fill:url(#SVGID_51_);}
	.st60{fill:#F54C18;}
	
		.st61{fill:none;stroke:#000000;stroke-width:4;stroke-linecap:round;stroke-linejoin:round;stroke-opacity:0.2;stroke-dasharray:2,8;}
	.st62{fill-rule:evenodd;clip-rule:evenodd;fill:#1AD9FF;}
</style>
<linearGradient id="SVGID_1_" gradientUnits="userSpaceOnUse" x1="40.9929" y1="100.929" x2="107.1536" y2="56.56" gradientTransform="matrix(1 0 0 -1 0 144)">
	<stop  offset="0" style="stop-color:#365FB3"/>
	<stop  offset="0.4552" style="stop-color:#471F99"/>
	<stop  offset="0.9346" style="stop-color:#5E1980"/>
</linearGradient>
<path class="st0" d="M26.1,35.8l42.5,24.5l43.1-24.5v48.6c0,2.2-1.2,4.3-3.1,5.4L72,111.2c-2,1.1-4.4,1.1-6.3,0L29.2,89.8
	c-1.9-1.1-3.1-3.2-3.1-5.4V35.8z"/>
<linearGradient id="SVGID_2_" gradientUnits="userSpaceOnUse" x1="27.1327" y1="83.7861" x2="112.7241" y2="65.2591" gradientTransform="matrix(1 0 0 -1 0 144)">
	<stop  offset="0" style="stop-color:#5C8AE6"/>
	<stop  offset="0.848" style="stop-color:#661F66"/>
</linearGradient>
<path class="st1" d="M25.8,35.4L68.6,60l43.3-24.7v49c0,2.3-1.2,4.5-3.2,5.6l-36.5,21.4c-2,1.2-4.6,1.2-6.6,0L29.1,90
	c-2-1.2-3.2-3.3-3.2-5.6V35.4z M111.4,36.3L68.6,60.6L26.4,36.3v48.1c0,2.1,1.1,4.1,3,5.2L65.9,111c1.9,1.1,4.2,1.1,6.1,0l36.5-21.4
	c1.8-1.1,3-3,3-5.2V36.3z"/>
<path class="st2" d="M26.1,76.5l39.6,23.2c2,1.1,4.4,1.1,6.3,0l39.6-23.2v2.1l-38.6,22.6c-2.6,1.5-5.8,1.5-8.4,0L26.1,78.6V76.5z"/>
<path class="st3" d="M26.1,78.1L65.2,101c2.3,1.3,5.1,1.3,7.4,0l39.1-22.9v0.5l-39.1,22.9c-2.3,1.3-5.1,1.3-7.4,0L26.1,78.6V78.1z"
	/>
<linearGradient id="SVGID_3_" gradientUnits="userSpaceOnUse" x1="64.7101" y1="57.569" x2="73.0604" y2="57.569" gradientTransform="matrix(1 0 0 -1 0 144)">
	<stop  offset="0" style="stop-color:#000000;stop-opacity:0"/>
	<stop  offset="0.4996" style="stop-color:#000000;stop-opacity:0.1"/>
	<stop  offset="1" style="stop-color:#000000;stop-opacity:0"/>
</linearGradient>
<path class="st4" d="M64.7,60.3h8.4v52.2h-8.4V60.3z"/>
<linearGradient id="SVGID_4_" gradientUnits="userSpaceOnUse" x1="34.0196" y1="92.3271" x2="104.0884" y2="123.89" gradientTransform="matrix(1 0 0 -1 0 144)">
	<stop  offset="0" style="stop-color:#527ACC"/>
	<stop  offset="1" style="stop-color:#7A3D99"/>
</linearGradient>
<path class="st5" d="M66.5,11.4c1.3-0.8,2.9-0.8,4.2,0l40.1,23.1c1.4,0.8,1.4,2.8,0,3.6L70.7,60.7c-1.3,0.7-2.8,0.7-4.1,0L26.9,38.1
	c-1.4-0.8-1.4-2.8,0-3.6L66.5,11.4z"/>
<linearGradient id="SVGID_5_" gradientUnits="userSpaceOnUse" x1="59.3173" y1="74.43" x2="78.5123" y2="141.2838" gradientTransform="matrix(1 0 0 -1 0 144)">
	<stop  offset="0" style="stop-color:#66CCFF"/>
	<stop  offset="1" style="stop-color:#991F99"/>
</linearGradient>
<path class="st6" d="M66.4,11.2c1.4-0.8,3.1-0.8,4.4,0L111,34.3c1.6,0.9,1.6,3.2,0,4.1L70.8,61c-1.4,0.8-3,0.8-4.4,0L26.8,38.4
	c-1.6-0.9-1.6-3.2,0-4.1L66.4,11.2z M70.6,11.7c-1.2-0.7-2.7-0.7-3.9,0L27,34.7c-1.2,0.7-1.2,2.5,0,3.2l39.7,22.6
	c1.2,0.7,2.7,0.7,3.9,0l40.1-22.6c1.2-0.7,1.2-2.5,0-3.2L70.6,11.7z"/>
<path class="st7" d="M68.2,21.4c0.2-0.1,0.2-0.1,0.3-0.1c0.1,0,0.1,0,0.2,0c0.1,0,0.2,0.1,0.3,0.1l24.9,14.2
	c0.4,0.2,0.6,0.4,0.7,0.5c0.1,0.1,0.1,0.3,0,0.4c-0.1,0.2-0.3,0.3-0.7,0.5L69,50.7c-0.1,0.1-0.2,0.1-0.3,0.1c-0.1,0-0.1,0-0.2,0
	c-0.1,0-0.2-0.1-0.3-0.1L43.8,37c-0.4-0.2-0.6-0.4-0.7-0.5c-0.1-0.1-0.1-0.3,0-0.4c0.1-0.2,0.3-0.3,0.7-0.5L68.2,21.4z"/>
<linearGradient id="SVGID_6_" gradientUnits="userSpaceOnUse" x1="46.7961" y1="98.2296" x2="91.1621" y2="117.9427" gradientTransform="matrix(1 0 0 -1 0 144)">
	<stop  offset="0" style="stop-color:#334466"/>
	<stop  offset="1" style="stop-color:#3D1F4D"/>
</linearGradient>
<path class="st8" d="M68.2,20c0.2-0.1,0.5-0.1,0.8,0c0.3,0.1,0.6,0.2,0.7,0.3c0,0,0,0,0,0l24.9,14.2c0.2,0.1,0.4,0.2,0.6,0.3
	c0.2,0.1,0.5,0.4,0.7,0.8c0.2,0.5,0.2,1,0,1.5c-0.2,0.4-0.5,0.6-0.7,0.8c-0.2,0.1-0.4,0.2-0.6,0.3L69.7,51.9c0,0,0,0,0,0
	c-0.1,0.1-0.4,0.2-0.6,0.3c-0.2,0-0.5,0-0.7,0c-0.3-0.1-0.5-0.2-0.6-0.3c0,0,0,0,0,0L43.2,38.2c0,0,0,0,0,0
	c-0.2-0.1-0.4-0.2-0.5-0.3c-0.2-0.1-0.5-0.3-0.7-0.8c-0.2-0.5-0.2-1,0-1.5c0.2-0.4,0.5-0.6,0.7-0.8c0.2-0.1,0.4-0.2,0.5-0.3
	c0,0,0,0,0,0l24.4-14.2c0,0,0,0,0,0C67.7,20.2,67.9,20.1,68.2,20z M68.6,22.7L45.2,36.3l23.5,13.1l23.9-13.1L68.6,22.7z"/>
<path class="st9" d="M33.4,51.3c0-0.8,0.6-1.2,1.3-0.7C35.4,51,36,52,36,52.8v21.7c0,0.8-0.6,1.2-1.3,0.7s-1.3-1.4-1.3-2.2V51.3z"/>
<path class="st10" d="M34.7,75.3c0.6,0.3,1.1,0.2,1.3-0.3c-0.2,0-0.4-0.1-0.6-0.2c-0.7-0.4-1.3-1.4-1.3-2.2V50.9
	c0-0.2,0-0.3,0.1-0.5c-0.4,0-0.8,0.3-0.8,0.9V73C33.4,73.9,34,74.9,34.7,75.3z"/>
<path class="st9" d="M40.2,55c0-0.8,0.6-1.2,1.3-0.7s1.3,1.4,1.3,2.2v21.7c0,0.8-0.6,1.2-1.3,0.7c-0.7-0.4-1.3-1.4-1.3-2.2V55z"/>
<path class="st10" d="M41.5,78.9c0.6,0.3,1.1,0.2,1.3-0.3c-0.2,0-0.4-0.1-0.6-0.2c-0.7-0.4-1.3-1.4-1.3-2.2V54.6
	c0-0.2,0-0.3,0.1-0.5c-0.4,0-0.8,0.3-0.8,0.9v21.7C40.2,77.5,40.8,78.5,41.5,78.9z"/>
<path class="st9" d="M47,59.2c0-0.8,0.6-1.2,1.3-0.7c0.7,0.4,1.3,1.4,1.3,2.2v21.7c0,0.8-0.6,1.2-1.3,0.7c-0.7-0.4-1.3-1.4-1.3-2.2
	V59.2z"/>
<path class="st10" d="M48.3,83.1c0.6,0.3,1.1,0.2,1.3-0.3c-0.2,0-0.4-0.1-0.6-0.2c-0.7-0.4-1.3-1.4-1.3-2.2V58.7
	c0-0.2,0-0.3,0.1-0.5c-0.4,0-0.8,0.3-0.8,0.9v21.7C47,81.7,47.6,82.7,48.3,83.1z"/>
<path class="st9" d="M53.8,62.8c0-0.8,0.6-1.2,1.3-0.7c0.7,0.4,1.3,1.4,1.3,2.2V86c0,0.8-0.6,1.2-1.3,0.7c-0.7-0.4-1.3-1.4-1.3-2.2
	V62.8z"/>
<path class="st10" d="M55.1,86.8c0.6,0.3,1.1,0.2,1.3-0.3c-0.2,0-0.4-0.1-0.6-0.2c-0.7-0.4-1.3-1.4-1.3-2.2V62.4
	c0-0.2,0-0.3,0.1-0.5c-0.4,0-0.8,0.3-0.8,0.9v21.7C53.8,85.4,54.4,86.4,55.1,86.8z"/>
<g>
	<path class="st11" d="M96,92.3c0,0.6-0.4,1.3-0.9,1.6c-0.5,0.3-0.9,0.1-0.9-0.5c0-0.6,0.4-1.3,0.9-1.6C95.6,91.5,96,91.7,96,92.3z"
		/>
	<path class="st9" d="M93.3,93.9c0,0.6-0.4,1.3-0.9,1.6c-0.5,0.3-0.9,0.1-0.9-0.5c0-0.6,0.4-1.3,0.9-1.6
		C92.9,93.1,93.3,93.4,93.3,93.9z"/>
	<path class="st9" d="M90.6,95.6c0,0.6-0.4,1.3-0.9,1.6c-0.5,0.3-0.9,0.1-0.9-0.5c0-0.6,0.4-1.3,0.9-1.6
		C90.2,94.7,90.6,95,90.6,95.6z"/>
	<path class="st9" d="M87.9,97.2c0,0.6-0.4,1.3-0.9,1.6c-0.5,0.3-0.9,0.1-0.9-0.5s0.4-1.3,0.9-1.6C87.4,96.4,87.9,96.6,87.9,97.2z"
		/>
	<path class="st9" d="M85.1,98.8c0,0.6-0.4,1.3-0.9,1.6c-0.5,0.3-0.9,0.1-0.9-0.5c0-0.6,0.4-1.3,0.9-1.6
		C84.7,98,85.1,98.2,85.1,98.8z"/>
	<path class="st9" d="M82.4,100.5c0,0.6-0.4,1.3-0.9,1.6c-0.5,0.3-0.9,0.1-0.9-0.5c0-0.6,0.4-1.3,0.9-1.6
		C82,99.6,82.4,99.9,82.4,100.5z"/>
	<path class="st9" d="M79.7,102.1c0,0.6-0.4,1.3-0.9,1.6c-0.5,0.3-0.9,0.1-0.9-0.5c0-0.6,0.4-1.3,0.9-1.6
		C79.3,101.3,79.7,101.5,79.7,102.1z"/>
	<path class="st9" d="M77,103.7c0,0.6-0.4,1.3-0.9,1.6c-0.5,0.3-0.9,0.1-0.9-0.5c0-0.6,0.4-1.3,0.9-1.6
		C76.6,102.9,77,103.1,77,103.7z"/>
</g>
<g>
	<path class="st9" d="M105.4,65.6c0-0.7,0.5-1.6,1.1-2c0.6-0.4,1.1-0.1,1.1,0.7v1c0,0.7-0.5,1.6-1.1,2c-0.6,0.4-1.1,0.1-1.1-0.7
		V65.6z"/>
</g>
<g>
	<path class="st9" d="M105.4,60.1c0-0.7,0.5-1.6,1.1-2c0.6-0.4,1.1-0.1,1.1,0.7v1c0,0.7-0.5,1.6-1.1,2c-0.6,0.4-1.1,0.1-1.1-0.7
		V60.1z"/>
</g>
<g>
	<path class="st9" d="M105.4,54.6c0-0.7,0.5-1.6,1.1-2c0.6-0.4,1.1-0.1,1.1,0.7v1c0,0.7-0.5,1.6-1.1,2c-0.6,0.4-1.1,0.1-1.1-0.7
		V54.6z"/>
</g>
<g>
	<path class="st9" d="M105.4,49.1c0-0.7,0.5-1.6,1.1-2c0.6-0.4,1.1-0.1,1.1,0.7v1c0,0.7-0.5,1.6-1.1,2c-0.6,0.4-1.1,0.1-1.1-0.7
		V49.1z"/>
</g>
<g>
	<path class="st9" d="M83.6,74.5l11.6-7v1.6l-11.6,7V74.5z"/>
</g>
<g>
	<path class="st9" d="M80.5,76.4l1.8-1.1v1.6L80.5,78V76.4z"/>
</g>
<g>
	<path class="st9" d="M75.1,79.6l4-2.4v1.6l-4,2.4V79.6z"/>
</g>
<g>
	<path class="st9" d="M87.7,68.9l12.5-7.5v1.6l-12.5,7.5V68.9z"/>
</g>
<g>
	<path class="st9" d="M84.5,70.7l1.8-1.1v1.6l-1.8,1.1V70.7z"/>
</g>
<g>
	<path class="st9" d="M81.4,72.6l1.8-1.1v1.6l-1.8,1.1V72.6z"/>
</g>
<g>
	<path class="st11" d="M78.3,74.5l1.8-1.1V75l-1.8,1.1V74.5z"/>
</g>
<g>
	<path class="st9" d="M75.1,76.4l1.8-1.1v1.6L75.1,78V76.4z"/>
</g>
<g>
	<path class="st9" d="M86.8,66.2L97.1,60v1.6l-10.3,6.2V66.2z"/>
</g>
<g>
	<path class="st9" d="M75.1,73.2L85.4,67v1.6l-10.3,6.2V73.2z"/>
</g>
<g>
	<path class="st9" d="M95.3,57.8l4.9-3v1.6l-4.9,3V57.8z"/>
</g>
<g>
	<path class="st11" d="M81.9,65.9l12.1-7.3v1.6l-12.1,7.3V65.9z"/>
</g>
<g>
	<path class="st11" d="M75.1,69.9l5.4-3.2v1.6l-5.4,3.2V69.9z"/>
</g>
<g>
	<path class="st9" d="M89,58.4l7.2-4.3v1.6L89,60V58.4z"/>
</g>
<g>
	<path class="st9" d="M75.1,66.7l12.5-7.5v1.6l-12.5,7.5V66.7z"/>
</g>
<g>
	
		<linearGradient id="SVGID_7_" gradientUnits="userSpaceOnUse" x1="68.8686" y1="121.502" x2="68.8686" y2="94.3633" gradientTransform="matrix(1 0 0 -1 0 144)">
		<stop  offset="0" style="stop-color:#99DDFF"/>
		<stop  offset="1" style="stop-color:#99BBFF"/>
	</linearGradient>
	<path class="st12" d="M67,23.4c0.6-0.3,0.9-0.5,1.2-0.6c0.3-0.1,0.6-0.1,0.8,0c0.3,0.1,0.6,0.2,1.2,0.6l19.9,11.5
		c0.8,0.5,1.2,0.7,1.3,1c0.1,0.3,0.1,0.6,0,0.8c-0.1,0.3-0.5,0.5-1.4,1l-20,11.1c-0.6,0.3-0.9,0.5-1.2,0.5c-0.3,0.1-0.5,0.1-0.8,0
		c-0.3-0.1-0.6-0.2-1.2-0.5L47.5,37.7c-0.8-0.4-1.2-0.7-1.3-1c-0.1-0.3-0.1-0.6,0-0.8c0.1-0.3,0.5-0.5,1.3-1L67,23.4z"/>
</g>
<linearGradient id="SVGID_8_" gradientUnits="userSpaceOnUse" x1="14.6578" y1="75.2953" x2="49.1249" y2="52.1813" gradientTransform="matrix(1 0 0 -1 0 144)">
	<stop  offset="0" style="stop-color:#365FB3"/>
	<stop  offset="0.4552" style="stop-color:#471F99"/>
	<stop  offset="0.9346" style="stop-color:#5E1980"/>
</linearGradient>
<path class="st13" d="M6.9,64.9l22.2,12.8l22.4-12.8v25.3c0,1.2-0.6,2.2-1.6,2.8l-19,11.1c-1,0.6-2.3,0.6-3.3,0l-19-11.1
	c-1-0.6-1.6-1.7-1.6-2.8V64.9z"/>
<linearGradient id="SVGID_9_" gradientUnits="userSpaceOnUse" x1="7.4375" y1="66.3648" x2="52.027" y2="56.7128" gradientTransform="matrix(1 0 0 -1 0 144)">
	<stop  offset="0" style="stop-color:#5C8AE6"/>
	<stop  offset="0.848" style="stop-color:#661F66"/>
</linearGradient>
<path class="st14" d="M6.8,64.7l22.3,12.9l22.6-12.9v25.6c0,1.2-0.6,2.3-1.7,2.9l-19,11.1c-1.1,0.6-2.4,0.6-3.4,0l-19-11.1
	c-1-0.6-1.7-1.7-1.7-2.9V64.7z M51.3,65.2L29.1,77.9L7,65.2v25.1c0,1.1,0.6,2.1,1.5,2.7l19,11.1c1,0.6,2.2,0.6,3.2,0l19-11.1
	c1-0.6,1.5-1.6,1.5-2.7V65.2z"/>
<path class="st2" d="M6.9,86.1l20.6,12.1c1,0.6,2.3,0.6,3.3,0l20.6-12.1v1.1L31.4,99c-1.4,0.8-3,0.8-4.4,0L6.9,87.2V86.1z"/>
<path class="st3" d="M6.9,86.9l20.4,11.9c1.2,0.7,2.7,0.7,3.8,0l20.4-11.9v0.3L31.1,99.1c-1.2,0.7-2.7,0.7-3.8,0L6.9,87.2V86.9z"/>
<linearGradient id="SVGID_10_" gradientUnits="userSpaceOnUse" x1="27.0137" y1="52.707" x2="31.3639" y2="52.707" gradientTransform="matrix(1 0 0 -1 0 144)">
	<stop  offset="0" style="stop-color:#000000;stop-opacity:0"/>
	<stop  offset="0.4996" style="stop-color:#000000;stop-opacity:0.1"/>
	<stop  offset="1" style="stop-color:#000000;stop-opacity:0"/>
</linearGradient>
<path class="st15" d="M27,77.7h4.4v27.2H27V77.7z"/>
<linearGradient id="SVGID_11_" gradientUnits="userSpaceOnUse" x1="11.0252" y1="70.8142" x2="47.5282" y2="87.2574" gradientTransform="matrix(1 0 0 -1 0 144)">
	<stop  offset="0" style="stop-color:#527ACC"/>
	<stop  offset="1" style="stop-color:#7A3D99"/>
</linearGradient>
<path class="st16" d="M28,52.2c0.7-0.4,1.5-0.4,2.2,0l20.9,12c0.7,0.4,0.7,1.5,0,1.9L30.1,77.9c-0.7,0.4-1.5,0.4-2.1,0L7.3,66.1
	c-0.7-0.4-0.7-1.5,0-1.9L28,52.2z"/>
<linearGradient id="SVGID_12_" gradientUnits="userSpaceOnUse" x1="24.2043" y1="61.4909" x2="34.2042" y2="96.3188" gradientTransform="matrix(1 0 0 -1 0 144)">
	<stop  offset="0" style="stop-color:#66CCFF"/>
	<stop  offset="1" style="stop-color:#991F99"/>
</linearGradient>
<path class="st17" d="M27.9,52.1c0.7-0.4,1.6-0.4,2.3,0l20.9,12c0.8,0.5,0.8,1.7,0,2.1L30.2,78c-0.7,0.4-1.6,0.4-2.3,0L7.2,66.2
	c-0.8-0.5-0.8-1.6,0-2.1L27.9,52.1z M30.1,52.3c-0.6-0.4-1.4-0.4-2,0l-20.7,12c-0.6,0.4-0.6,1.3,0,1.6L28,77.8c0.6,0.4,1.4,0.4,2,0
	L51,66c0.6-0.4,0.6-1.3,0-1.7L30.1,52.3z"/>
<path class="st7" d="M28.8,57.4c0.1,0,0.1-0.1,0.2-0.1c0,0,0.1,0,0.1,0c0,0,0.1,0,0.2,0.1l13,7.4c0.2,0.1,0.3,0.2,0.4,0.3
	c0,0.1,0,0.2,0,0.2c0,0.1-0.1,0.1-0.4,0.3l-13,7.1c-0.1,0-0.1,0.1-0.2,0.1c0,0-0.1,0-0.1,0c0,0-0.1,0-0.2-0.1l-12.7-7.1
	c-0.2-0.1-0.3-0.2-0.4-0.3c0-0.1,0-0.2,0-0.2c0-0.1,0.1-0.1,0.4-0.3L28.8,57.4z"/>
<linearGradient id="SVGID_13_" gradientUnits="userSpaceOnUse" x1="17.6812" y1="73.8896" x2="40.7941" y2="84.1591" gradientTransform="matrix(1 0 0 -1 0 144)">
	<stop  offset="0" style="stop-color:#334466"/>
	<stop  offset="1" style="stop-color:#3D1F4D"/>
</linearGradient>
<path class="st18" d="M28.9,56.7c0.1,0,0.3,0,0.4,0c0.2,0,0.3,0.1,0.3,0.1c0,0,0,0,0,0l13,7.4c0.1,0.1,0.2,0.1,0.3,0.2
	c0.1,0.1,0.3,0.2,0.3,0.4c0.1,0.2,0.1,0.5,0,0.8c-0.1,0.2-0.3,0.3-0.4,0.4c-0.1,0.1-0.2,0.1-0.3,0.2l-13,7.1c0,0,0,0,0,0
	c-0.1,0-0.2,0.1-0.3,0.1c-0.1,0-0.3,0-0.4,0c-0.2,0-0.3-0.1-0.3-0.1c0,0,0,0,0,0l-12.7-7.1c0,0,0,0,0,0c-0.1-0.1-0.2-0.1-0.3-0.2
	c-0.1-0.1-0.3-0.2-0.3-0.4c-0.1-0.2-0.1-0.5,0-0.8c0.1-0.2,0.3-0.3,0.3-0.4c0.1-0.1,0.2-0.1,0.3-0.2c0,0,0,0,0,0l12.7-7.4
	c0,0,0,0,0,0C28.6,56.8,28.7,56.7,28.9,56.7z M29.1,58.1l-12.2,7.1L29.1,72l12.5-6.8L29.1,58.1z"/>
<path class="st9" d="M10.7,73c0-0.4,0.3-0.6,0.7-0.4c0.4,0.2,0.7,0.7,0.7,1.2v11.3c0,0.4-0.3,0.6-0.7,0.4c-0.4-0.2-0.7-0.7-0.7-1.2
	V73z"/>
<path class="st10" d="M11.4,85.5c0.3,0.2,0.6,0.1,0.7-0.1c-0.1,0-0.2,0-0.3-0.1c-0.4-0.2-0.7-0.7-0.7-1.2V72.8c0-0.1,0-0.2,0-0.2
	c-0.2,0-0.4,0.2-0.4,0.5v11.3C10.7,84.8,11,85.3,11.4,85.5z"/>
<path class="st9" d="M14.2,74.9c0-0.4,0.3-0.6,0.7-0.4c0.4,0.2,0.7,0.7,0.7,1.2V87c0,0.4-0.3,0.6-0.7,0.4c-0.4-0.2-0.7-0.7-0.7-1.2
	V74.9z"/>
<path class="st10" d="M14.9,87.4c0.3,0.2,0.6,0.1,0.7-0.1c-0.1,0-0.2,0-0.3-0.1c-0.4-0.2-0.7-0.7-0.7-1.2V74.7c0-0.1,0-0.2,0-0.2
	c-0.2,0-0.4,0.2-0.4,0.5v11.3C14.2,86.7,14.5,87.2,14.9,87.4z"/>
<path class="st9" d="M17.8,77.1c0-0.4,0.3-0.6,0.7-0.4c0.4,0.2,0.7,0.7,0.7,1.2v11.3c0,0.4-0.3,0.6-0.7,0.4
	c-0.4-0.2-0.7-0.7-0.7-1.2V77.1z"/>
<path class="st10" d="M18.5,89.6c0.3,0.2,0.6,0.1,0.7-0.1c-0.1,0-0.2,0-0.3-0.1c-0.4-0.2-0.7-0.7-0.7-1.2V76.9c0-0.1,0-0.2,0-0.2
	c-0.2,0-0.4,0.2-0.4,0.5v11.3C17.8,88.8,18.1,89.4,18.5,89.6z"/>
<path class="st9" d="M21.3,79c0-0.4,0.3-0.6,0.7-0.4c0.4,0.2,0.7,0.7,0.7,1.2v11.3c0,0.4-0.3,0.6-0.7,0.4c-0.4-0.2-0.7-0.7-0.7-1.2
	V79z"/>
<path class="st10" d="M22,91.5c0.3,0.2,0.6,0.1,0.7-0.1c-0.1,0-0.2,0-0.3-0.1c-0.4-0.2-0.7-0.7-0.7-1.2V78.8c0-0.1,0-0.2,0-0.2
	c-0.2,0-0.4,0.2-0.4,0.5v11.3C21.3,90.7,21.6,91.3,22,91.5z"/>
<g>
	<path class="st11" d="M43.3,94.4c0,0.3-0.2,0.7-0.5,0.8c-0.3,0.2-0.5,0-0.5-0.3c0-0.3,0.2-0.7,0.5-0.8
		C43.1,93.9,43.3,94.1,43.3,94.4z"/>
	<path class="st9" d="M41.9,95.2c0,0.3-0.2,0.7-0.5,0.8c-0.3,0.2-0.5,0-0.5-0.3c0-0.3,0.2-0.7,0.5-0.8
		C41.7,94.8,41.9,94.9,41.9,95.2z"/>
	<path class="st9" d="M40.5,96.1c0,0.3-0.2,0.7-0.5,0.8c-0.3,0.2-0.5,0-0.5-0.3s0.2-0.7,0.5-0.8C40.3,95.6,40.5,95.7,40.5,96.1z"/>
	<path class="st9" d="M39.1,96.9c0,0.3-0.2,0.7-0.5,0.8c-0.3,0.2-0.5,0-0.5-0.3c0-0.3,0.2-0.7,0.5-0.8
		C38.9,96.5,39.1,96.6,39.1,96.9z"/>
	<path class="st9" d="M37.7,97.8c0,0.3-0.2,0.7-0.5,0.8c-0.3,0.2-0.5,0-0.5-0.3c0-0.3,0.2-0.7,0.5-0.8
		C37.4,97.3,37.7,97.4,37.7,97.8z"/>
	<path class="st9" d="M36.2,98.6c0,0.3-0.2,0.7-0.5,0.8c-0.3,0.2-0.5,0-0.5-0.3c0-0.3,0.2-0.7,0.5-0.8C36,98.2,36.2,98.3,36.2,98.6z
		"/>
	<path class="st9" d="M34.8,99.5c0,0.3-0.2,0.7-0.5,0.8c-0.3,0.2-0.5,0-0.5-0.3s0.2-0.7,0.5-0.8C34.6,99,34.8,99.1,34.8,99.5z"/>
	<path class="st9" d="M33.4,100.3c0,0.3-0.2,0.7-0.5,0.8c-0.3,0.2-0.5,0-0.5-0.3c0-0.3,0.2-0.7,0.5-0.8
		C33.2,99.9,33.4,100,33.4,100.3z"/>
</g>
<g>
	<path class="st9" d="M48.2,80.4c0-0.4,0.3-0.8,0.6-1c0.3-0.2,0.6,0,0.6,0.3v0.5c0,0.4-0.3,0.8-0.6,1c-0.3,0.2-0.6,0-0.6-0.3V80.4z"
		/>
</g>
<g>
	<path class="st9" d="M48.2,77.6c0-0.4,0.3-0.8,0.6-1c0.3-0.2,0.6,0,0.6,0.3v0.5c0,0.4-0.3,0.8-0.6,1c-0.3,0.2-0.6,0-0.6-0.3V77.6z"
		/>
</g>
<g>
	<path class="st9" d="M48.2,74.7c0-0.4,0.3-0.8,0.6-1c0.3-0.2,0.6,0,0.6,0.3v0.5c0,0.4-0.3,0.8-0.6,1c-0.3,0.2-0.6,0-0.6-0.3V74.7z"
		/>
</g>
<g>
	<path class="st9" d="M48.2,71.9c0-0.4,0.3-0.8,0.6-1c0.3-0.2,0.6,0,0.6,0.3v0.5c0,0.4-0.3,0.8-0.6,1c-0.3,0.2-0.6,0-0.6-0.3V71.9z"
		/>
</g>
<g>
	<path class="st9" d="M36.9,85.1l6.1-3.6v0.8l-6.1,3.6V85.1z"/>
</g>
<g>
	<path class="st9" d="M35.2,86.1l0.9-0.6v0.8l-0.9,0.6V86.1z"/>
</g>
<g>
	<path class="st9" d="M32.5,87.7l2.1-1.3v0.8l-2.1,1.3V87.7z"/>
</g>
<g>
	<path class="st9" d="M39,82.1l6.5-3.9v0.8L39,83V82.1z"/>
</g>
<g>
	<path class="st9" d="M37.3,83.1l0.9-0.6v0.8L37.3,84V83.1z"/>
</g>
<g>
	<path class="st9" d="M35.7,84.1l0.9-0.6v0.8l-0.9,0.6V84.1z"/>
</g>
<g>
	<path class="st11" d="M34.1,85.1l0.9-0.6v0.8l-0.9,0.6V85.1z"/>
</g>
<g>
	<path class="st9" d="M32.5,86.1l0.9-0.6v0.8l-0.9,0.6V86.1z"/>
</g>
<g>
	<path class="st9" d="M38.5,80.7l5.4-3.2v0.8l-5.4,3.2V80.7z"/>
</g>
<g>
	<path class="st9" d="M32.5,84.4l5.4-3.2V82l-5.4,3.2V84.4z"/>
</g>
<g>
	<path class="st9" d="M42.9,76.4l2.6-1.5v0.8l-2.6,1.5V76.4z"/>
</g>
<g>
	<path class="st11" d="M35.9,80.6l6.3-3.8v0.8l-6.3,3.8V80.6z"/>
</g>
<g>
	<path class="st11" d="M32.5,82.7l2.8-1.7v0.8l-2.8,1.7V82.7z"/>
</g>
<g>
	<path class="st9" d="M39.7,76.7l3.7-2.2v0.8l-3.7,2.2V76.7z"/>
</g>
<g>
	<path class="st9" d="M32.5,81l6.5-3.9v0.8l-6.5,3.9V81z"/>
</g>
<g>
	
		<linearGradient id="SVGID_14_" gradientUnits="userSpaceOnUse" x1="29.1721" y1="86.013" x2="29.1721" y2="71.875" gradientTransform="matrix(1 0 0 -1 0 144)">
		<stop  offset="0" style="stop-color:#99DDFF"/>
		<stop  offset="1" style="stop-color:#99BBFF"/>
	</linearGradient>
	<path class="st19" d="M27.4,58.9c0.6-0.3,0.9-0.5,1.2-0.6c0.3-0.1,0.6-0.1,0.8,0c0.3,0.1,0.6,0.2,1.2,0.6l8.4,4.9
		c0.8,0.5,1.2,0.7,1.3,1c0.1,0.3,0.1,0.6,0,0.8c-0.1,0.3-0.5,0.5-1.4,1l-8.5,4.7c-0.6,0.3-0.9,0.5-1.2,0.5c-0.3,0.1-0.5,0.1-0.8,0
		c-0.3-0.1-0.6-0.2-1.2-0.5l-8.3-4.7c-0.8-0.4-1.2-0.7-1.3-1c-0.1-0.3-0.1-0.6,0-0.8c0.1-0.3,0.5-0.5,1.3-1L27.4,58.9z"/>
</g>
<g>
	
		<linearGradient id="SVGID_15_" gradientUnits="userSpaceOnUse" x1="29.0528" y1="111.4346" x2="29.0528" y2="78.808" gradientTransform="matrix(1 0 0 -1 0 144)">
		<stop  offset="0" style="stop-color:#FFFFFF;stop-opacity:0"/>
		<stop  offset="1" style="stop-color:#FFFFFF;stop-opacity:0.1"/>
	</linearGradient>
	<path class="st20" d="M16,36.7c-0.1-2.3,1.7-4.1,4-4.1h18.1c2.3,0,4.1,1.9,4,4.1L41.2,63c0,1.4-0.8,2.6-2,3.3L31,71
		c-1.2,0.7-2.7,0.7-4,0l-8.2-4.7c-1.2-0.7-2-2-2-3.3L16,36.7z"/>
</g>
<g class="st21">
	
		<linearGradient id="SVGID_16_" gradientUnits="userSpaceOnUse" x1="27.4215" y1="82.3426" x2="27.4215" y2="80.4394" gradientTransform="matrix(1 0 0 -1 0 144)">
		<stop  offset="0" style="stop-color:#E1E6F0"/>
		<stop  offset="1" style="stop-color:#939CCC"/>
	</linearGradient>
	<circle class="st22" cx="27.4" cy="62.6" r="1"/>
</g>
<g class="st21">
	
		<linearGradient id="SVGID_17_" gradientUnits="userSpaceOnUse" x1="33.2671" y1="88.3242" x2="33.2671" y2="86.1492" gradientTransform="matrix(1 0 0 -1 0 144)">
		<stop  offset="0" style="stop-color:#E1E6F0"/>
		<stop  offset="1" style="stop-color:#939CCC"/>
	</linearGradient>
	<ellipse class="st23" cx="33.3" cy="56.8" rx="1.1" ry="1.1"/>
</g>
<g class="st21">
	
		<linearGradient id="SVGID_18_" gradientUnits="userSpaceOnUse" x1="29.0528" y1="106.2686" x2="29.0528" y2="103.8216" gradientTransform="matrix(1 0 0 -1 0 144)">
		<stop  offset="0" style="stop-color:#E1E6F0"/>
		<stop  offset="1" style="stop-color:#939CCC"/>
	</linearGradient>
	<circle class="st24" cx="29.1" cy="39" r="1.2"/>
</g>
<g class="st21">
	
		<linearGradient id="SVGID_19_" gradientUnits="userSpaceOnUse" x1="29.8685" y1="96.7524" x2="29.8685" y2="94.3054" gradientTransform="matrix(1 0 0 -1 0 144)">
		<stop  offset="0" style="stop-color:#E1E6F0"/>
		<stop  offset="1" style="stop-color:#939CCC"/>
	</linearGradient>
	<ellipse class="st25" cx="29.9" cy="48.5" rx="1.2" ry="1.2"/>
</g>
<g class="st21">
	
		<linearGradient id="SVGID_20_" gradientUnits="userSpaceOnUse" x1="32.0436" y1="80.4397" x2="32.0436" y2="79.0803" gradientTransform="matrix(1 0 0 -1 0 144)">
		<stop  offset="0" style="stop-color:#E1E6F0"/>
		<stop  offset="1" style="stop-color:#939CCC"/>
	</linearGradient>
	<ellipse class="st26" cx="32" cy="64.2" rx="0.7" ry="0.7"/>
</g>
<g class="st21">
	
		<linearGradient id="SVGID_21_" gradientUnits="userSpaceOnUse" x1="33.9468" y1="101.103" x2="33.9468" y2="99.1998" gradientTransform="matrix(1 0 0 -1 0 144)">
		<stop  offset="0" style="stop-color:#E1E6F0"/>
		<stop  offset="1" style="stop-color:#939CCC"/>
	</linearGradient>
	<circle class="st27" cx="33.9" cy="43.8" r="1"/>
</g>
<g class="st21">
	
		<linearGradient id="SVGID_22_" gradientUnits="userSpaceOnUse" x1="24.8386" y1="89.4117" x2="24.8386" y2="87.7803" gradientTransform="matrix(1 0 0 -1 0 144)">
		<stop  offset="0" style="stop-color:#E1E6F0"/>
		<stop  offset="1" style="stop-color:#939CCC"/>
	</linearGradient>
	<circle class="st28" cx="24.8" cy="55.4" r="0.8"/>
</g>
<g class="st21">
	
		<linearGradient id="SVGID_23_" gradientUnits="userSpaceOnUse" x1="24.5667" y1="97.8404" x2="24.5667" y2="96.7528" gradientTransform="matrix(1 0 0 -1 0 144)">
		<stop  offset="0" style="stop-color:#E1E6F0"/>
		<stop  offset="1" style="stop-color:#939CCC"/>
	</linearGradient>
	<ellipse class="st29" cx="24.6" cy="46.7" rx="0.5" ry="0.5"/>
</g>
<linearGradient id="SVGID_24_" gradientUnits="userSpaceOnUse" x1="29.2682" y1="56.1914" x2="63.7352" y2="33.0764" gradientTransform="matrix(1 0 0 -1 0 144)">
	<stop  offset="0" style="stop-color:#365FB3"/>
	<stop  offset="0.4552" style="stop-color:#471F99"/>
	<stop  offset="0.9346" style="stop-color:#5E1980"/>
</linearGradient>
<path class="st30" d="M21.5,84l22.2,12.8L66.1,84v25.3c0,1.2-0.6,2.2-1.6,2.8l-19,11.1c-1,0.6-2.3,0.6-3.3,0l-19-11.1
	c-1-0.6-1.6-1.7-1.6-2.8V84z"/>
<linearGradient id="SVGID_25_" gradientUnits="userSpaceOnUse" x1="22.0474" y1="47.2608" x2="66.637" y2="37.6088" gradientTransform="matrix(1 0 0 -1 0 144)">
	<stop  offset="0" style="stop-color:#5C8AE6"/>
	<stop  offset="0.848" style="stop-color:#661F66"/>
</linearGradient>
<path class="st31" d="M21.4,83.8l22.3,12.9l22.6-12.9v25.6c0,1.2-0.6,2.3-1.7,2.9l-19,11.1c-1.1,0.6-2.4,0.6-3.4,0l-19-11.1
	c-1-0.6-1.7-1.7-1.7-2.9V83.8z M66,84.3L43.7,97l-22-12.7v25.1c0,1.1,0.6,2.1,1.5,2.7l19,11.1c1,0.6,2.2,0.6,3.2,0l19-11.1
	c1-0.6,1.5-1.6,1.5-2.7V84.3z"/>
<path class="st2" d="M21.5,105.2l20.6,12.1c1,0.6,2.3,0.6,3.3,0l20.6-12.1v1.1L46,118.1c-1.4,0.8-3,0.8-4.4,0l-20.1-11.8V105.2z"/>
<path class="st3" d="M21.5,106L41.9,118c1.2,0.7,2.7,0.7,3.8,0L66.1,106v0.3l-20.4,11.9c-1.2,0.7-2.7,0.7-3.8,0l-20.4-11.9V106z"/>
<linearGradient id="SVGID_26_" gradientUnits="userSpaceOnUse" x1="41.6236" y1="33.6025" x2="45.9738" y2="33.6025" gradientTransform="matrix(1 0 0 -1 0 144)">
	<stop  offset="0" style="stop-color:#000000;stop-opacity:0"/>
	<stop  offset="0.4996" style="stop-color:#000000;stop-opacity:0.1"/>
	<stop  offset="1" style="stop-color:#000000;stop-opacity:0"/>
</linearGradient>
<path class="st32" d="M41.6,96.8H46V124h-4.4V96.8z"/>
<linearGradient id="SVGID_27_" gradientUnits="userSpaceOnUse" x1="25.6352" y1="51.71" x2="62.1382" y2="68.153" gradientTransform="matrix(1 0 0 -1 0 144)">
	<stop  offset="0" style="stop-color:#527ACC"/>
	<stop  offset="1" style="stop-color:#7A3D99"/>
</linearGradient>
<path class="st33" d="M42.6,71.3c0.7-0.4,1.5-0.4,2.2,0l20.9,12c0.7,0.4,0.7,1.5,0,1.9L44.7,97c-0.7,0.4-1.5,0.4-2.1,0L21.9,85.2
	c-0.7-0.4-0.7-1.5,0-1.9L42.6,71.3z"/>
<linearGradient id="SVGID_28_" gradientUnits="userSpaceOnUse" x1="38.8141" y1="42.386" x2="48.8139" y2="77.214" gradientTransform="matrix(1 0 0 -1 0 144)">
	<stop  offset="0" style="stop-color:#66CCFF"/>
	<stop  offset="1" style="stop-color:#991F99"/>
</linearGradient>
<path class="st34" d="M42.5,71.2c0.7-0.4,1.6-0.4,2.3,0l20.9,12c0.8,0.5,0.8,1.7,0,2.1L44.8,97.1c-0.7,0.4-1.6,0.4-2.3,0L21.9,85.4
	c-0.8-0.5-0.8-1.6,0-2.1L42.5,71.2z M44.7,71.4c-0.6-0.4-1.4-0.4-2,0L22,83.5c-0.6,0.4-0.6,1.3,0,1.7l20.7,11.8c0.6,0.4,1.4,0.4,2,0
	l20.9-11.8c0.6-0.4,0.6-1.3,0-1.7L44.7,71.4z"/>
<path class="st7" d="M43.4,76.5c0.1,0,0.1-0.1,0.2-0.1c0,0,0.1,0,0.1,0c0,0,0.1,0,0.2,0.1l13,7.4c0.2,0.1,0.3,0.2,0.4,0.3
	c0,0.1,0,0.2,0,0.2c0,0.1-0.1,0.1-0.4,0.3l-13,7.1c-0.1,0-0.1,0.1-0.2,0.1c0,0-0.1,0-0.1,0c0,0-0.1,0-0.2-0.1l-12.7-7.1
	c-0.2-0.1-0.3-0.2-0.4-0.3c0-0.1,0-0.2,0-0.2c0-0.1,0.1-0.1,0.4-0.3L43.4,76.5z"/>
<linearGradient id="SVGID_29_" gradientUnits="userSpaceOnUse" x1="32.2912" y1="54.7847" x2="55.404" y2="65.0547" gradientTransform="matrix(1 0 0 -1 0 144)">
	<stop  offset="0" style="stop-color:#334466"/>
	<stop  offset="1" style="stop-color:#3D1F4D"/>
</linearGradient>
<path class="st35" d="M43.5,75.8c0.1,0,0.3,0,0.4,0c0.2,0,0.3,0.1,0.3,0.1c0,0,0,0,0,0l13,7.4c0.1,0.1,0.2,0.1,0.3,0.2
	c0.1,0.1,0.3,0.2,0.3,0.4c0.1,0.2,0.1,0.5,0,0.8c-0.1,0.2-0.3,0.3-0.4,0.4c-0.1,0.1-0.2,0.1-0.3,0.2l-13,7.1c0,0,0,0,0,0
	c-0.1,0-0.2,0.1-0.3,0.1c-0.1,0-0.3,0-0.4,0c-0.2,0-0.3-0.1-0.3-0.1c0,0,0,0,0,0l-12.7-7.1c0,0,0,0,0,0c-0.1-0.1-0.2-0.1-0.3-0.2
	c-0.1-0.1-0.3-0.2-0.3-0.4c-0.1-0.2-0.1-0.5,0-0.8c0.1-0.2,0.3-0.3,0.3-0.4c0.1-0.1,0.2-0.1,0.3-0.2c0,0,0,0,0,0l12.7-7.4
	c0,0,0,0,0,0C43.2,75.9,43.3,75.8,43.5,75.8z M43.7,77.2l-12.2,7.1l12.2,6.8l12.5-6.8L43.7,77.2z"/>
<path class="st9" d="M25.3,92.1c0-0.4,0.3-0.6,0.7-0.4c0.4,0.2,0.7,0.7,0.7,1.2v11.3c0,0.4-0.3,0.6-0.7,0.4
	c-0.4-0.2-0.7-0.7-0.7-1.2V92.1z"/>
<path class="st10" d="M26,104.6c0.3,0.2,0.6,0.1,0.7-0.1c-0.1,0-0.2,0-0.3-0.1c-0.4-0.2-0.7-0.7-0.7-1.2V91.9c0-0.1,0-0.2,0-0.2
	c-0.2,0-0.4,0.2-0.4,0.5v11.3C25.3,103.9,25.6,104.4,26,104.6z"/>
<path class="st9" d="M28.8,94c0-0.4,0.3-0.6,0.7-0.4c0.4,0.2,0.7,0.7,0.7,1.2v11.3c0,0.4-0.3,0.6-0.7,0.4c-0.4-0.2-0.7-0.7-0.7-1.2
	V94z"/>
<path class="st10" d="M29.5,106.5c0.3,0.2,0.6,0.1,0.7-0.1c-0.1,0-0.2,0-0.3-0.1c-0.4-0.2-0.7-0.7-0.7-1.2V93.8c0-0.1,0-0.2,0-0.2
	c-0.2,0-0.4,0.2-0.4,0.5v11.3C28.8,105.8,29.2,106.3,29.5,106.5z"/>
<path class="st9" d="M32.4,96.2c0-0.4,0.3-0.6,0.7-0.4c0.4,0.2,0.7,0.7,0.7,1.2v11.3c0,0.4-0.3,0.6-0.7,0.4
	c-0.4-0.2-0.7-0.7-0.7-1.2V96.2z"/>
<path class="st10" d="M33.1,108.7c0.3,0.2,0.6,0.1,0.7-0.1c-0.1,0-0.2,0-0.3-0.1c-0.4-0.2-0.7-0.7-0.7-1.2V96c0-0.1,0-0.2,0-0.2
	c-0.2,0-0.4,0.2-0.4,0.5v11.3C32.4,107.9,32.7,108.5,33.1,108.7z"/>
<path class="st9" d="M35.9,98.1c0-0.4,0.3-0.6,0.7-0.4s0.7,0.7,0.7,1.2v11.3c0,0.4-0.3,0.6-0.7,0.4c-0.4-0.2-0.7-0.7-0.7-1.2V98.1z"
	/>
<path class="st10" d="M36.6,110.6c0.3,0.2,0.6,0.1,0.7-0.1c-0.1,0-0.2,0-0.3-0.1c-0.4-0.2-0.7-0.7-0.7-1.2V97.9c0-0.1,0-0.2,0-0.2
	c-0.2,0-0.4,0.2-0.4,0.5v11.3C35.9,109.8,36.2,110.4,36.6,110.6z"/>
<g>
	<path class="st11" d="M57.9,113.5c0,0.3-0.2,0.7-0.5,0.8c-0.3,0.2-0.5,0-0.5-0.3c0-0.3,0.2-0.7,0.5-0.8
		C57.7,113,57.9,113.2,57.9,113.5z"/>
	<path class="st9" d="M56.5,114.3c0,0.3-0.2,0.7-0.5,0.8c-0.3,0.2-0.5,0-0.5-0.3c0-0.3,0.2-0.7,0.5-0.8
		C56.3,113.9,56.5,114,56.5,114.3z"/>
	<path class="st9" d="M55.1,115.2c0,0.3-0.2,0.7-0.5,0.8c-0.3,0.2-0.5,0-0.5-0.3s0.2-0.7,0.5-0.8C54.9,114.7,55.1,114.9,55.1,115.2z
		"/>
	<path class="st9" d="M53.7,116c0,0.3-0.2,0.7-0.5,0.8c-0.3,0.2-0.5,0-0.5-0.3c0-0.3,0.2-0.7,0.5-0.8
		C53.5,115.6,53.7,115.7,53.7,116z"/>
	<path class="st9" d="M52.3,116.9c0,0.3-0.2,0.7-0.5,0.8c-0.3,0.2-0.5,0-0.5-0.3c0-0.3,0.2-0.7,0.5-0.8
		C52.1,116.4,52.3,116.5,52.3,116.9z"/>
	<path class="st9" d="M50.8,117.7c0,0.3-0.2,0.7-0.5,0.8c-0.3,0.2-0.5,0-0.5-0.3c0-0.3,0.2-0.7,0.5-0.8
		C50.6,117.3,50.8,117.4,50.8,117.7z"/>
	<path class="st9" d="M49.4,118.6c0,0.3-0.2,0.7-0.5,0.8c-0.3,0.2-0.5,0-0.5-0.3s0.2-0.7,0.5-0.8C49.2,118.1,49.4,118.2,49.4,118.6z
		"/>
	<path class="st9" d="M48,119.4c0,0.3-0.2,0.7-0.5,0.8c-0.3,0.2-0.5,0-0.5-0.3c0-0.3,0.2-0.7,0.5-0.8C47.8,119,48,119.1,48,119.4z"
		/>
</g>
<g>
	<path class="st9" d="M62.8,99.5c0-0.4,0.3-0.8,0.6-1c0.3-0.2,0.6,0,0.6,0.3v0.5c0,0.4-0.3,0.8-0.6,1c-0.3,0.2-0.6,0-0.6-0.3V99.5z"
		/>
</g>
<g>
	<path class="st9" d="M62.8,96.7c0-0.4,0.3-0.8,0.6-1c0.3-0.2,0.6,0,0.6,0.3v0.5c0,0.4-0.3,0.8-0.6,1c-0.3,0.2-0.6,0-0.6-0.3V96.7z"
		/>
</g>
<g>
	<path class="st9" d="M62.8,93.8c0-0.4,0.3-0.8,0.6-1c0.3-0.2,0.6,0,0.6,0.3v0.5c0,0.4-0.3,0.8-0.6,1s-0.6,0-0.6-0.3V93.8z"/>
</g>
<g>
	<path class="st9" d="M62.8,91c0-0.4,0.3-0.8,0.6-1s0.6,0,0.6,0.3v0.5c0,0.4-0.3,0.8-0.6,1s-0.6,0-0.6-0.3V91z"/>
</g>
<g>
	<path class="st9" d="M51.5,104.2l6.1-3.6v0.8l-6.1,3.6V104.2z"/>
</g>
<g>
	<path class="st9" d="M49.9,105.2l0.9-0.6v0.8l-0.9,0.6V105.2z"/>
</g>
<g>
	<path class="st9" d="M47.1,106.8l2.1-1.3v0.8l-2.1,1.3V106.8z"/>
</g>
<g>
	<path class="st9" d="M53.6,101.2l6.5-3.9v0.8l-6.5,3.9V101.2z"/>
</g>
<g>
	<path class="st9" d="M52,102.2l0.9-0.6v0.8l-0.9,0.6V102.2z"/>
</g>
<g>
	<path class="st9" d="M50.3,103.2l0.9-0.6v0.8l-0.9,0.6V103.2z"/>
</g>
<g>
	<path class="st11" d="M48.7,104.2l0.9-0.6v0.8l-0.9,0.6V104.2z"/>
</g>
<g>
	<path class="st9" d="M47.1,105.2l0.9-0.6v0.8l-0.9,0.6V105.2z"/>
</g>
<g>
	<path class="st9" d="M53.1,99.8l5.4-3.2v0.8l-5.4,3.2V99.8z"/>
</g>
<g>
	<path class="st9" d="M47.1,103.5l5.4-3.2v0.8l-5.4,3.2V103.5z"/>
</g>
<g>
	<path class="st9" d="M57.5,95.5l2.6-1.5v0.8l-2.6,1.5V95.5z"/>
</g>
<g>
	<path class="st11" d="M50.6,99.7l6.3-3.8v0.8l-6.3,3.8V99.7z"/>
</g>
<g>
	<path class="st11" d="M47.1,101.8l2.8-1.7v0.8l-2.8,1.7V101.8z"/>
</g>
<g>
	<path class="st9" d="M54.3,95.8l3.7-2.2v0.8l-3.7,2.2V95.8z"/>
</g>
<g>
	<path class="st9" d="M47.1,100.1l6.5-3.9V97l-6.5,3.9V100.1z"/>
</g>
<g>
	
		<linearGradient id="SVGID_30_" gradientUnits="userSpaceOnUse" x1="43.782" y1="66.909" x2="43.782" y2="52.771" gradientTransform="matrix(1 0 0 -1 0 144)">
		<stop  offset="0" style="stop-color:#99DDFF"/>
		<stop  offset="1" style="stop-color:#99BBFF"/>
	</linearGradient>
	<path class="st36" d="M42.1,78c0.6-0.3,0.9-0.5,1.2-0.6c0.3-0.1,0.6-0.1,0.8,0c0.3,0.1,0.6,0.2,1.2,0.6l8.4,4.9
		c0.8,0.5,1.2,0.7,1.3,1c0.1,0.3,0.1,0.6,0,0.8c-0.1,0.3-0.5,0.5-1.4,1l-8.5,4.7c-0.6,0.3-0.9,0.5-1.2,0.5c-0.3,0.1-0.5,0.1-0.8,0
		c-0.3-0.1-0.6-0.2-1.2-0.5l-8.3-4.7c-0.8-0.4-1.2-0.7-1.3-1c-0.1-0.3-0.1-0.6,0-0.8c0.1-0.3,0.5-0.5,1.3-1L42.1,78z"/>
</g>
<g>
	
		<linearGradient id="SVGID_31_" gradientUnits="userSpaceOnUse" x1="43.6627" y1="92.3306" x2="43.6627" y2="59.704" gradientTransform="matrix(1 0 0 -1 0 144)">
		<stop  offset="0" style="stop-color:#FFFFFF;stop-opacity:0"/>
		<stop  offset="1" style="stop-color:#FFFFFF;stop-opacity:0.1"/>
	</linearGradient>
	<path class="st37" d="M30.6,55.8c-0.1-2.3,1.7-4.1,4-4.1h18.1c2.3,0,4.1,1.9,4,4.1l-0.9,26.3c0,1.4-0.8,2.6-2,3.3l-8.2,4.7
		c-1.2,0.7-2.7,0.7-4,0l-8.2-4.7c-1.2-0.7-2-2-2-3.3L30.6,55.8z"/>
</g>
<g class="st21">
	
		<linearGradient id="SVGID_32_" gradientUnits="userSpaceOnUse" x1="42.0314" y1="63.2386" x2="42.0314" y2="61.3354" gradientTransform="matrix(1 0 0 -1 0 144)">
		<stop  offset="0" style="stop-color:#E1E6F0"/>
		<stop  offset="1" style="stop-color:#939CCC"/>
	</linearGradient>
	<circle class="st38" cx="42" cy="81.7" r="1"/>
</g>
<g class="st21">
	
		<linearGradient id="SVGID_33_" gradientUnits="userSpaceOnUse" x1="47.877" y1="69.2206" x2="47.877" y2="67.0455" gradientTransform="matrix(1 0 0 -1 0 144)">
		<stop  offset="0" style="stop-color:#E1E6F0"/>
		<stop  offset="1" style="stop-color:#939CCC"/>
	</linearGradient>
	<ellipse class="st39" cx="47.9" cy="75.9" rx="1.1" ry="1.1"/>
</g>
<g class="st21">
	
		<linearGradient id="SVGID_34_" gradientUnits="userSpaceOnUse" x1="43.6627" y1="87.1645" x2="43.6627" y2="84.7175" gradientTransform="matrix(1 0 0 -1 0 144)">
		<stop  offset="0" style="stop-color:#E1E6F0"/>
		<stop  offset="1" style="stop-color:#939CCC"/>
	</linearGradient>
	<circle class="st40" cx="43.7" cy="58.1" r="1.2"/>
</g>
<g class="st21">
	
		<linearGradient id="SVGID_35_" gradientUnits="userSpaceOnUse" x1="44.4784" y1="77.6485" x2="44.4784" y2="75.2015" gradientTransform="matrix(1 0 0 -1 0 144)">
		<stop  offset="0" style="stop-color:#E1E6F0"/>
		<stop  offset="1" style="stop-color:#939CCC"/>
	</linearGradient>
	<ellipse class="st41" cx="44.5" cy="67.6" rx="1.2" ry="1.2"/>
</g>
<g class="st21">
	
		<linearGradient id="SVGID_36_" gradientUnits="userSpaceOnUse" x1="46.6535" y1="61.3357" x2="46.6535" y2="59.9763" gradientTransform="matrix(1 0 0 -1 0 144)">
		<stop  offset="0" style="stop-color:#E1E6F0"/>
		<stop  offset="1" style="stop-color:#939CCC"/>
	</linearGradient>
	<ellipse class="st42" cx="46.7" cy="83.3" rx="0.7" ry="0.7"/>
</g>
<g class="st21">
	
		<linearGradient id="SVGID_37_" gradientUnits="userSpaceOnUse" x1="48.5567" y1="81.9986" x2="48.5567" y2="80.0954" gradientTransform="matrix(1 0 0 -1 0 144)">
		<stop  offset="0" style="stop-color:#E1E6F0"/>
		<stop  offset="1" style="stop-color:#939CCC"/>
	</linearGradient>
	<circle class="st43" cx="48.6" cy="63" r="1"/>
</g>
<g class="st21">
	
		<linearGradient id="SVGID_38_" gradientUnits="userSpaceOnUse" x1="39.4485" y1="70.3077" x2="39.4485" y2="68.6763" gradientTransform="matrix(1 0 0 -1 0 144)">
		<stop  offset="0" style="stop-color:#E1E6F0"/>
		<stop  offset="1" style="stop-color:#939CCC"/>
	</linearGradient>
	<circle class="st44" cx="39.4" cy="74.5" r="0.8"/>
</g>
<g class="st21">
	
		<linearGradient id="SVGID_39_" gradientUnits="userSpaceOnUse" x1="39.1766" y1="78.7368" x2="39.1766" y2="77.6492" gradientTransform="matrix(1 0 0 -1 0 144)">
		<stop  offset="0" style="stop-color:#E1E6F0"/>
		<stop  offset="1" style="stop-color:#939CCC"/>
	</linearGradient>
	<ellipse class="st45" cx="39.2" cy="65.8" rx="0.5" ry="0.5"/>
</g>
<linearGradient id="SVGID_40_" gradientUnits="userSpaceOnUse" x1="99.1183" y1="66.4324" x2="133.5848" y2="43.3174" gradientTransform="matrix(1 0 0 -1 0 144)">
	<stop  offset="0" style="stop-color:#365FB3"/>
	<stop  offset="0.4552" style="stop-color:#471F99"/>
	<stop  offset="0.9346" style="stop-color:#5E1980"/>
</linearGradient>
<path class="st46" d="M92.9,78.1L115,90.8l22.4-12.8v18.8c0,1.2-0.6,2.2-1.6,2.8l-19,11.1c-1,0.6-2.3,0.6-3.3,0l-19-11.1
	c-1-0.6-1.6-1.7-1.6-2.8V78.1z"/>
<linearGradient id="SVGID_41_" gradientUnits="userSpaceOnUse" x1="92.7323" y1="56.6357" x2="137.3218" y2="46.9837" gradientTransform="matrix(1 0 0 -1 0 144)">
	<stop  offset="0" style="stop-color:#5C8AE6"/>
	<stop  offset="0.848" style="stop-color:#661F66"/>
</linearGradient>
<path class="st47" d="M92.7,77.8L115,90.7l22.6-12.9v19c0,1.2-0.6,2.3-1.7,2.9l-19,11.1c-1.1,0.6-2.4,0.6-3.4,0l-19-11.1
	c-1-0.6-1.7-1.7-1.7-2.9V77.8z M137.3,78.3L115,91L93,78.3v18.6c0,1.1,0.6,2.1,1.5,2.7l19,11.1c1,0.6,2.2,0.6,3.2,0l19-11.1
	c1-0.6,1.5-1.6,1.5-2.7V78.3z"/>
<path class="st2" d="M92.9,92.7l20.6,12.1c1,0.6,2.3,0.6,3.3,0l20.6-12.1v1.1l-20.1,11.8c-1.4,0.8-3,0.8-4.4,0L92.9,93.8V92.7z"/>
<path class="st3" d="M92.9,93.6l20.4,11.9c1.2,0.7,2.7,0.7,3.8,0l20.4-11.9v0.3l-20.4,11.9c-1.2,0.7-2.7,0.7-3.8,0L92.9,93.8V93.6z"
	/>
<linearGradient id="SVGID_42_" gradientUnits="userSpaceOnUse" x1="112.983" y1="46.094" x2="117.333" y2="46.094" gradientTransform="matrix(1 0 0 -1 0 144)">
	<stop  offset="0" style="stop-color:#000000;stop-opacity:0"/>
	<stop  offset="0.4996" style="stop-color:#000000;stop-opacity:0.1"/>
	<stop  offset="1" style="stop-color:#000000;stop-opacity:0"/>
</linearGradient>
<path class="st48" d="M113,84.3h4.3v27.2H113V84.3z"/>
<linearGradient id="SVGID_43_" gradientUnits="userSpaceOnUse" x1="96.9946" y1="57.6764" x2="133.4973" y2="74.1194" gradientTransform="matrix(1 0 0 -1 0 144)">
	<stop  offset="0" style="stop-color:#527ACC"/>
	<stop  offset="1" style="stop-color:#7A3D99"/>
</linearGradient>
<path class="st49" d="M113.9,65.4c0.7-0.4,1.5-0.4,2.2,0l20.9,12c0.7,0.4,0.7,1.5,0,1.9L116.1,91c-0.7,0.4-1.5,0.4-2.1,0L93.3,79.3
	c-0.7-0.4-0.7-1.5,0-1.9L113.9,65.4z"/>
<linearGradient id="SVGID_44_" gradientUnits="userSpaceOnUse" x1="110.1742" y1="48.353" x2="120.1736" y2="83.1807" gradientTransform="matrix(1 0 0 -1 0 144)">
	<stop  offset="0" style="stop-color:#66CCFF"/>
	<stop  offset="1" style="stop-color:#991F99"/>
</linearGradient>
<path class="st50" d="M113.9,65.2c0.7-0.4,1.6-0.4,2.3,0l20.9,12c0.8,0.5,0.8,1.7,0,2.1l-20.9,11.8c-0.7,0.4-1.6,0.4-2.3,0
	L93.2,79.4c-0.8-0.5-0.8-1.6,0-2.1L113.9,65.2z M116,65.5c-0.6-0.4-1.4-0.4-2,0l-20.7,12c-0.6,0.4-0.6,1.3,0,1.6L114,90.9
	c0.6,0.4,1.4,0.4,2,0l20.9-11.8c0.6-0.4,0.6-1.3,0-1.7L116,65.5z"/>
<path class="st7" d="M114.8,70.6c0.1,0,0.1-0.1,0.2-0.1c0,0,0.1,0,0.1,0c0,0,0.1,0,0.2,0.1l13,7.4c0.2,0.1,0.3,0.2,0.4,0.3
	c0,0.1,0,0.2,0,0.2c0,0.1-0.1,0.1-0.4,0.3l-13,7.1c-0.1,0-0.1,0.1-0.2,0.1c0,0-0.1,0-0.1,0c0,0-0.1,0-0.2-0.1l-12.7-7.1
	c-0.2-0.1-0.3-0.2-0.4-0.3c0-0.1,0-0.2,0-0.2c0-0.1,0.1-0.1,0.4-0.3L114.8,70.6z"/>
<linearGradient id="SVGID_45_" gradientUnits="userSpaceOnUse" x1="103.6506" y1="60.7517" x2="126.7636" y2="71.0207" gradientTransform="matrix(1 0 0 -1 0 144)">
	<stop  offset="0" style="stop-color:#334466"/>
	<stop  offset="1" style="stop-color:#3D1F4D"/>
</linearGradient>
<path class="st51" d="M114.8,69.8c0.1,0,0.3,0,0.4,0c0.2,0,0.3,0.1,0.3,0.1c0,0,0,0,0,0l13,7.4c0.1,0.1,0.2,0.1,0.3,0.2
	c0.1,0.1,0.3,0.2,0.3,0.4c0.1,0.2,0.1,0.5,0,0.8c-0.1,0.2-0.3,0.3-0.4,0.4c-0.1,0.1-0.2,0.1-0.3,0.2l-13,7.1c0,0,0,0,0,0
	c-0.1,0-0.2,0.1-0.3,0.1c-0.1,0-0.3,0-0.4,0c-0.2,0-0.3-0.1-0.3-0.1c0,0,0,0,0,0l-12.7-7.1c0,0,0,0,0,0c-0.1-0.1-0.2-0.1-0.3-0.2
	c-0.1-0.1-0.3-0.2-0.3-0.4c-0.1-0.2-0.1-0.5,0-0.8c0.1-0.2,0.3-0.3,0.3-0.4c0.1-0.1,0.2-0.1,0.3-0.2c0,0,0,0,0,0l12.7-7.4
	c0,0,0,0,0,0C114.5,69.9,114.7,69.9,114.8,69.8z M115,71.2l-12.2,7.1l12.2,6.8l12.5-6.8L115,71.2z"/>
<path class="st9" d="M96.7,86.2c0-0.4,0.3-0.6,0.7-0.4c0.4,0.2,0.7,0.7,0.7,1.2v4.8c0,0.4-0.3,0.6-0.7,0.4c-0.4-0.2-0.7-0.7-0.7-1.2
	V86.2z"/>
<path class="st10" d="M97.4,92.1c0.3,0.2,0.6,0.1,0.7-0.1c-0.1,0-0.2,0-0.3-0.1c-0.4-0.2-0.7-0.7-0.7-1.2v-4.8c0-0.1,0-0.2,0-0.2
	c-0.2,0-0.4,0.2-0.4,0.5v4.8C96.7,91.4,97,91.9,97.4,92.1z"/>
<path class="st9" d="M100.2,88.1c0-0.4,0.3-0.6,0.7-0.4c0.4,0.2,0.7,0.7,0.7,1.2v4.8c0,0.4-0.3,0.6-0.7,0.4
	c-0.4-0.2-0.7-0.7-0.7-1.2V88.1z"/>
<path class="st10" d="M100.9,94c0.3,0.2,0.6,0.1,0.7-0.1c-0.1,0-0.2,0-0.3-0.1c-0.4-0.2-0.7-0.7-0.7-1.2v-4.8c0-0.1,0-0.2,0-0.2
	c-0.2,0-0.4,0.2-0.4,0.5v4.8C100.2,93.3,100.5,93.8,100.9,94z"/>
<path class="st9" d="M103.7,90.2c0-0.4,0.3-0.6,0.7-0.4c0.4,0.2,0.7,0.7,0.7,1.2v4.8c0,0.4-0.3,0.6-0.7,0.4
	c-0.4-0.2-0.7-0.7-0.7-1.2V90.2z"/>
<path class="st10" d="M104.4,96.2c0.3,0.2,0.6,0.1,0.7-0.1c-0.1,0-0.2,0-0.3-0.1c-0.4-0.2-0.7-0.7-0.7-1.2V90c0-0.1,0-0.2,0-0.2
	c-0.2,0-0.4,0.2-0.4,0.5V95C103.7,95.4,104.1,96,104.4,96.2z"/>
<path class="st7" d="M107.3,92.1c0-0.4,0.3-0.6,0.7-0.4c0.4,0.2,0.7,0.7,0.7,1.2v4.8c0,0.4-0.3,0.6-0.7,0.4
	c-0.4-0.2-0.7-0.7-0.7-1.2V92.1z"/>
<path class="st52" d="M108,98.1c0.3,0.2,0.6,0.1,0.7-0.1c-0.1,0-0.2,0-0.3-0.1c-0.4-0.2-0.7-0.7-0.7-1.2v-4.8c0-0.1,0-0.2,0-0.2
	c-0.2,0-0.4,0.2-0.4,0.5v4.8C107.3,97.3,107.6,97.9,108,98.1z"/>
<g>
	<path class="st7" d="M129.3,101c0,0.3-0.2,0.7-0.5,0.8c-0.3,0.2-0.5,0-0.5-0.3c0-0.3,0.2-0.7,0.5-0.8
		C129.1,100.5,129.3,100.7,129.3,101z"/>
</g>
<g>
	<path class="st7" d="M127.9,101.8c0,0.3-0.2,0.7-0.5,0.8c-0.3,0.2-0.5,0-0.5-0.3c0-0.3,0.2-0.7,0.5-0.8
		C127.7,101.4,127.9,101.5,127.9,101.8z"/>
</g>
<g>
	<path class="st7" d="M126.5,102.7c0,0.3-0.2,0.7-0.5,0.8c-0.3,0.2-0.5,0-0.5-0.3c0-0.3,0.2-0.7,0.5-0.8
		C126.2,102.2,126.5,102.4,126.5,102.7z"/>
</g>
<g>
	<path class="st7" d="M125,103.5c0,0.3-0.2,0.7-0.5,0.8c-0.3,0.2-0.5,0-0.5-0.3c0-0.3,0.2-0.7,0.5-0.8
		C124.8,103.1,125,103.2,125,103.5z"/>
</g>
<g>
	<path class="st9" d="M123.6,104.4c0,0.3-0.2,0.7-0.5,0.8c-0.3,0.2-0.5,0-0.5-0.3c0-0.3,0.2-0.7,0.5-0.8S123.6,104.1,123.6,104.4z"
		/>
</g>
<g>
	<path class="st9" d="M122.2,105.2c0,0.3-0.2,0.7-0.5,0.8c-0.3,0.2-0.5,0-0.5-0.3c0-0.3,0.2-0.7,0.5-0.8
		C122,104.8,122.2,104.9,122.2,105.2z"/>
</g>
<g>
	<path class="st9" d="M120.8,106.1c0,0.3-0.2,0.7-0.5,0.8c-0.3,0.2-0.5,0-0.5-0.3c0-0.3,0.2-0.7,0.5-0.8
		C120.6,105.6,120.8,105.8,120.8,106.1z"/>
</g>
<g>
	<path class="st9" d="M119.4,106.9c0,0.3-0.2,0.7-0.5,0.8c-0.3,0.2-0.5,0-0.5-0.3c0-0.3,0.2-0.7,0.5-0.8
		C119.2,106.5,119.4,106.6,119.4,106.9z"/>
</g>
<g>
	<path class="st9" d="M134.2,90.7c0-0.4,0.3-0.8,0.6-1c0.3-0.2,0.6,0,0.6,0.3v0.5c0,0.4-0.3,0.8-0.6,1c-0.3,0.2-0.6,0-0.6-0.3V90.7z
		"/>
</g>
<g>
	<path class="st9" d="M134.2,87.8c0-0.4,0.3-0.8,0.6-1c0.3-0.2,0.6,0,0.6,0.3v0.5c0,0.4-0.3,0.8-0.6,1c-0.3,0.2-0.6,0-0.6-0.3V87.8z
		"/>
</g>
<g>
	<path class="st9" d="M134.2,85c0-0.4,0.3-0.8,0.6-1c0.3-0.2,0.6,0,0.6,0.3v0.5c0,0.4-0.3,0.8-0.6,1c-0.3,0.2-0.6,0-0.6-0.3V85z"/>
</g>
<g>
	<path class="st7" d="M124.9,95.3l6.5-3.9v0.8l-6.5,3.9V95.3z"/>
</g>
<g>
	<path class="st7" d="M123.3,96.3l0.9-0.6v0.8l-0.9,0.6V96.3z"/>
</g>
<g>
	<path class="st9" d="M121.7,97.2l0.9-0.6v0.8l-0.9,0.6V97.2z"/>
</g>
<g>
	<path class="st11" d="M120.1,98.2l0.9-0.6v0.8l-0.9,0.6V98.2z"/>
</g>
<g>
	<path class="st9" d="M118.4,99.2l0.9-0.6v0.8l-0.9,0.6V99.2z"/>
</g>
<g>
	<path class="st9" d="M124.5,93.9l5.4-3.2v0.8l-5.4,3.2V93.9z"/>
</g>
<g>
	<path class="st9" d="M118.4,97.5l5.4-3.2v0.8l-5.4,3.2V97.5z"/>
</g>
<g>
	<path class="st9" d="M128.9,89.5l2.6-1.5v0.8l-2.6,1.5V89.5z"/>
</g>
<g>
	<path class="st11" d="M121.9,93.7l6.3-3.8v0.8l-6.3,3.8V93.7z"/>
</g>
<g>
	<path class="st11" d="M118.4,95.8l2.8-1.7V95l-2.8,1.7V95.8z"/>
</g>
<g>
	<path class="st9" d="M125.6,89.8l3.7-2.2v0.8l-3.7,2.2V89.8z"/>
</g>
<g>
	<path class="st9" d="M118.4,94.2l6.5-3.9v0.8l-6.5,3.9V94.2z"/>
</g>
<g>
	
		<linearGradient id="SVGID_46_" gradientUnits="userSpaceOnUse" x1="115.1414" y1="72.875" x2="115.1414" y2="58.737" gradientTransform="matrix(1 0 0 -1 0 144)">
		<stop  offset="0" style="stop-color:#99DDFF"/>
		<stop  offset="1" style="stop-color:#99BBFF"/>
	</linearGradient>
	<path class="st53" d="M113.4,72.1c0.6-0.3,0.9-0.5,1.2-0.6c0.3-0.1,0.6-0.1,0.8,0c0.3,0.1,0.6,0.2,1.2,0.6l8.4,4.9
		c0.8,0.5,1.2,0.7,1.3,1c0.1,0.3,0.1,0.6,0,0.8c-0.1,0.3-0.5,0.5-1.4,1l-8.5,4.7c-0.6,0.3-0.9,0.5-1.2,0.5c-0.3,0.1-0.5,0.1-0.8,0
		c-0.3-0.1-0.6-0.2-1.2-0.5l-8.3-4.7c-0.8-0.4-1.2-0.7-1.3-1c-0.1-0.3-0.1-0.6,0-0.8c0.1-0.3,0.5-0.5,1.3-1L113.4,72.1z"/>
</g>
<linearGradient id="SVGID_47_" gradientUnits="userSpaceOnUse" x1="92.0113" y1="33.651" x2="92.0113" y2="18.757" gradientTransform="matrix(1 0 0 -1 0 144)">
	<stop  offset="0" style="stop-color:#1F2E4D"/>
	<stop  offset="1" style="stop-color:#0E081A"/>
</linearGradient>
<path class="st54" d="M70.6,97.6l21.3,12.3l21.5-12.3v13.9c0,1.1-0.6,2.1-1.5,2.7l-18.3,10.7c-1,0.6-2.2,0.6-3.2,0l-18.3-10.7
	c-1-0.6-1.5-1.6-1.5-2.7V97.6z"/>
<linearGradient id="SVGID_48_" gradientUnits="userSpaceOnUse" x1="69.8517" y1="31.8218" x2="91.2413" y2="33.2568" gradientTransform="matrix(1 0 0 -1 0 144)">
	<stop  offset="0" style="stop-color:#4D403D"/>
	<stop  offset="1" style="stop-color:#524766;stop-opacity:0.3"/>
</linearGradient>
<path class="st55" d="M70.6,97.6l21.3,12.3l21.5-12.3v13.9c0,1.1-0.6,2.1-1.5,2.7l-18.3,10.7c-1,0.6-2.2,0.6-3.2,0l-18.3-10.7
	c-1-0.6-1.5-1.6-1.5-2.7V97.6z"/>
<linearGradient id="SVGID_49_" gradientUnits="userSpaceOnUse" x1="70.0643" y1="39.6832" x2="112.8437" y2="30.4232" gradientTransform="matrix(1 0 0 -1 0 144)">
	<stop  offset="0" style="stop-color:#5C8AE6"/>
	<stop  offset="0.848" style="stop-color:#661F66"/>
</linearGradient>
<path class="st56" d="M70.5,97.3l21.4,12.3l21.7-12.3v14.1c0,1.2-0.6,2.2-1.6,2.8l-18.3,10.7c-1,0.6-2.3,0.6-3.3,0l-18.3-10.7
	c-1-0.6-1.6-1.7-1.6-2.8V97.3z M113.3,97.8L91.9,110L70.8,97.8v13.6c0,1.1,0.6,2.1,1.5,2.6l18.3,10.7c0.9,0.5,2.1,0.5,3,0l18.3-10.7
	c0.9-0.5,1.5-1.5,1.5-2.6V97.8z"/>
<path class="st2" d="M70.6,107.5l19.8,11.6c1,0.6,2.2,0.6,3.2,0l19.8-11.6v1l-19.3,11.3c-1.3,0.8-2.9,0.8-4.2,0l-19.3-11.3V107.5z"
	/>
<path class="st3" d="M70.6,108.3l19.5,11.4c1.1,0.7,2.6,0.7,3.7,0l19.5-11.4v0.3L93.9,120c-1.1,0.7-2.6,0.7-3.7,0l-19.5-11.4V108.3z
	"/>
<linearGradient id="SVGID_50_" gradientUnits="userSpaceOnUse" x1="89.9243" y1="31.5635" x2="94.0979" y2="31.5635" gradientTransform="matrix(1 0 0 -1 0 144)">
	<stop  offset="0" style="stop-color:#000000;stop-opacity:0"/>
	<stop  offset="0.4996" style="stop-color:#000000;stop-opacity:0.1"/>
	<stop  offset="1" style="stop-color:#000000;stop-opacity:0"/>
</linearGradient>
<path class="st57" d="M89.9,99.4h4.2v26.1h-4.2V99.4z"/>
<path class="st58" d="M90.8,85.4c0.6-0.4,1.4-0.4,2.1,0L113,96.9c0.7,0.4,0.7,1.4,0,1.8L92.9,110c-0.6,0.4-1.4,0.4-2.1,0L71,98.7
	c-0.7-0.4-0.7-1.4,0-1.8L90.8,85.4z"/>
<linearGradient id="SVGID_51_" gradientUnits="userSpaceOnUse" x1="87.2292" y1="29.5568" x2="96.8229" y2="62.9708" gradientTransform="matrix(1 0 0 -1 0 144)">
	<stop  offset="0" style="stop-color:#66CCFF"/>
	<stop  offset="1" style="stop-color:#991F99"/>
</linearGradient>
<path class="st59" d="M90.8,85.3c0.7-0.4,1.5-0.4,2.2,0L113,96.8c0.8,0.5,0.8,1.6,0,2L93,110.1c-0.7,0.4-1.5,0.4-2.2,0L71,98.8
	c-0.8-0.4-0.8-1.6,0-2L90.8,85.3z M92.9,85.5c-0.6-0.3-1.4-0.3-2,0L71.1,97c-0.6,0.4-0.6,1.2,0,1.6l19.8,11.3c0.6,0.3,1.3,0.3,1.9,0
	l20.1-11.3c0.6-0.3,0.6-1.2,0-1.6L92.9,85.5z"/>
<path class="st9" d="M74.3,104.3c0-0.4,0.3-0.6,0.7-0.4c0.4,0.2,0.7,0.7,0.7,1.1v2.5c0,0.4-0.3,0.6-0.7,0.4
	c-0.4-0.2-0.7-0.7-0.7-1.1V104.3z"/>
<path class="st52" d="M74.9,107.9c0.3,0.2,0.5,0.1,0.6-0.1c-0.1,0-0.2,0-0.3-0.1c-0.4-0.2-0.7-0.7-0.7-1.1v-2.5c0-0.1,0-0.2,0-0.2
	c-0.2,0-0.4,0.2-0.4,0.5v2.5C74.3,107.2,74.6,107.7,74.9,107.9z"/>
<path class="st9" d="M77.7,106.1c0-0.4,0.3-0.6,0.7-0.4c0.4,0.2,0.7,0.7,0.7,1.1v2.5c0,0.4-0.3,0.6-0.7,0.4
	c-0.4-0.2-0.7-0.7-0.7-1.1V106.1z"/>
<path class="st52" d="M78.3,109.7c0.3,0.2,0.5,0.1,0.6-0.1c-0.1,0-0.2,0-0.3-0.1c-0.4-0.2-0.7-0.7-0.7-1.1v-2.5c0-0.1,0-0.2,0-0.2
	c-0.2,0-0.4,0.2-0.4,0.5v2.5C77.7,109,78,109.5,78.3,109.7z"/>
<path class="st9" d="M81.1,108.2c0-0.4,0.3-0.6,0.7-0.4c0.4,0.2,0.7,0.7,0.7,1.1v2.5c0,0.4-0.3,0.6-0.7,0.4
	c-0.4-0.2-0.7-0.7-0.7-1.1V108.2z"/>
<path class="st52" d="M81.7,111.8c0.3,0.2,0.5,0.1,0.6-0.1c-0.1,0-0.2,0-0.3-0.1c-0.4-0.2-0.7-0.7-0.7-1.1V108c0-0.1,0-0.2,0-0.2
	c-0.2,0-0.4,0.2-0.4,0.5v2.5C81.1,111.1,81.4,111.6,81.7,111.8z"/>
<path class="st7" d="M84.4,110c0-0.4,0.3-0.6,0.7-0.4c0.4,0.2,0.7,0.7,0.7,1.1v2.5c0,0.4-0.3,0.6-0.7,0.4c-0.4-0.2-0.7-0.7-0.7-1.1
	V110z"/>
<path class="st52" d="M85.1,113.7c0.3,0.2,0.5,0.1,0.6-0.1c-0.1,0-0.2,0-0.3-0.1c-0.4-0.2-0.7-0.7-0.7-1.1v-2.5c0-0.1,0-0.2,0-0.2
	c-0.2,0-0.4,0.2-0.4,0.5v2.5C84.4,112.9,84.7,113.4,85.1,113.7z"/>
<g>
	<path class="st7" d="M105.6,115.4c0,0.3-0.2,0.7-0.5,0.8c-0.3,0.1-0.5,0-0.5-0.3c0-0.3,0.2-0.7,0.5-0.8
		C105.4,115,105.6,115.1,105.6,115.4z"/>
</g>
<g>
	<path class="st7" d="M104.2,116.2c0,0.3-0.2,0.7-0.5,0.8c-0.3,0.2-0.5,0-0.5-0.3c0-0.3,0.2-0.7,0.5-0.8
		C104,115.8,104.2,115.9,104.2,116.2z"/>
</g>
<g>
	<path class="st60" d="M102.9,117c0,0.3-0.2,0.7-0.5,0.8c-0.3,0.1-0.5,0-0.5-0.3c0-0.3,0.2-0.7,0.5-0.8
		C102.7,116.6,102.9,116.7,102.9,117z"/>
</g>
<g>
	<path class="st9" d="M101.5,117.8c0,0.3-0.2,0.7-0.5,0.8c-0.3,0.1-0.5,0-0.5-0.3c0-0.3,0.2-0.7,0.5-0.8
		C101.3,117.4,101.5,117.5,101.5,117.8z"/>
</g>
<g>
	<path class="st9" d="M100.1,118.6c0,0.3-0.2,0.7-0.5,0.8c-0.3,0.2-0.5,0-0.5-0.3s0.2-0.7,0.5-0.8
		C99.9,118.2,100.1,118.3,100.1,118.6z"/>
</g>
<g>
	<path class="st9" d="M98.8,119.4c0,0.3-0.2,0.7-0.5,0.8c-0.3,0.1-0.5,0-0.5-0.3s0.2-0.7,0.5-0.8C98.6,119,98.8,119.2,98.8,119.4z"
		/>
</g>
<g>
	<path class="st9" d="M97.4,120.3c0,0.3-0.2,0.7-0.5,0.8c-0.3,0.1-0.5,0-0.5-0.3c0-0.3,0.2-0.7,0.5-0.8
		C97.2,119.8,97.4,120,97.4,120.3z"/>
</g>
<g>
	<path class="st9" d="M96,121.1c0,0.3-0.2,0.7-0.5,0.8c-0.3,0.1-0.5,0-0.5-0.3c0-0.3,0.2-0.7,0.5-0.8C95.8,120.7,96,120.8,96,121.1z
		"/>
</g>
<g>
	<path class="st7" d="M110.3,106.2c0-0.4,0.3-0.8,0.6-1c0.3-0.2,0.6,0,0.6,0.3v0.5c0,0.4-0.3,0.8-0.6,1c-0.3,0.2-0.6,0-0.6-0.3
		V106.2z"/>
</g>
<g>
	<path class="st7" d="M110.3,103.4c0-0.4,0.3-0.8,0.6-1c0.3-0.2,0.6,0,0.6,0.3v0.5c0,0.4-0.3,0.8-0.6,1c-0.3,0.2-0.6,0-0.6-0.3
		V103.4z"/>
</g>
<g>
	<path class="st7" d="M98.5,111.6l6-3.6v0.8l-6,3.6V111.6z"/>
</g>
<g>
	<path class="st60" d="M95.1,113.6l2.7-1.6v0.8l-2.7,1.6V113.6z"/>
</g>
<g>
	<path class="st7" d="M102.1,107.8l3.6-2.1v0.8l-3.6,2.1V107.8z"/>
</g>
<g>
	<path class="st9" d="M95.1,112l6.3-3.8v0.8l-6.3,3.8V112z"/>
</g>
<ellipse class="st61" cx="91.8" cy="97.6" rx="9.6" ry="5.5"/>
<g>
	<path class="st62" d="M98.7,93.3c0.1,0,0.2,0.1,0.2,0.1c0.1,0,0.2,0.1,0.2,0.1c0.2,0.1,0.2,0.4,0,0.5c-0.3,0.1-0.7,0.1-0.9,0
		c-0.1,0-0.1-0.1-0.2-0.1c-0.1,0-0.1-0.1-0.2-0.1c-0.3-0.1-0.3-0.4,0-0.5C98.1,93.1,98.5,93.1,98.7,93.3z M99.8,94.6
		c0.3-0.1,0.7,0,0.9,0.1c0.1,0.1,0.2,0.2,0.3,0.3c0.2,0.2,0,0.4-0.3,0.5c-0.3,0.1-0.7,0-0.9-0.2c-0.1-0.1-0.2-0.2-0.3-0.3
		C99.4,94.9,99.5,94.7,99.8,94.6z M101,96.2c0.3,0,0.7,0.1,0.7,0.3c0,0.1,0.1,0.2,0.1,0.4c0,0.2-0.2,0.4-0.6,0.4
		c-0.3,0-0.7-0.1-0.7-0.3c0-0.1-0.1-0.2-0.1-0.3C100.5,96.4,100.7,96.2,101,96.2z M101.3,97.9c0.4,0,0.6,0.2,0.6,0.4
		c0,0.1-0.1,0.2-0.1,0.4c-0.1,0.2-0.4,0.3-0.7,0.3c-0.3,0-0.6-0.2-0.5-0.4c0-0.1,0.1-0.2,0.1-0.3C100.7,98,101,97.9,101.3,97.9z
		 M100.7,99.6c0.3,0.1,0.5,0.3,0.3,0.5c-0.1,0.1-0.2,0.2-0.3,0.3c-0.2,0.2-0.6,0.2-0.9,0.1c-0.3-0.1-0.4-0.3-0.3-0.5
		c0.1-0.1,0.2-0.2,0.3-0.3C100,99.6,100.4,99.5,100.7,99.6z M99.2,101.1c0.3,0.1,0.3,0.4,0,0.5c-0.1,0-0.1,0.1-0.2,0.1
		c-0.1,0-0.2,0.1-0.2,0.1c-0.3,0.1-0.7,0.1-0.9,0c-0.2-0.1-0.2-0.4,0-0.5c0.1,0,0.1-0.1,0.2-0.1c0.1,0,0.1-0.1,0.2-0.1
		C98.5,101,98.9,100.9,99.2,101.1z M96.9,102.2c0.2,0.2,0.1,0.4-0.3,0.5c-0.2,0.1-0.4,0.1-0.6,0.2c-0.3,0.1-0.7,0-0.9-0.2
		c-0.2-0.2,0-0.4,0.3-0.5c0.2,0,0.3-0.1,0.5-0.1C96.4,102,96.8,102.1,96.9,102.2z M94.2,102.9c0.1,0.2-0.2,0.4-0.5,0.4
		c-0.2,0-0.4,0-0.6,0.1c-0.4,0-0.7-0.1-0.7-0.3c0-0.2,0.2-0.4,0.6-0.4c0.2,0,0.4,0,0.6-0.1C93.8,102.6,94.1,102.7,94.2,102.9z"/>
</g>
<g>
	<path class="st62" d="M92.1,101.6c-1.9,0.1-4-0.3-5.6-1.3l-0.1-0.1l0.6-1c0,0,0.1-0.1,0.1-0.1c0.2-0.1,0.5-0.1,0.6,0l0,0
		L92.1,101.6z M91.8,100.4l6.1-0.9l-0.1,0.1c-0.4,0.4-1.9,1.7-5,2l-0.1,0l-1.2-0.7c-0.1,0-0.1-0.1-0.1-0.1
		C91.4,100.6,91.5,100.5,91.8,100.4L91.8,100.4z M90.3,93.6l0.2,0.1c3.5,1.9,4.5,2.8,3.5,3.3c-0.2,0.1,0.3,0.2,0.4,0.7
		c0.1,0.5,0.1,0.9-0.9,1.4l-0.1,0c0,0,0.3-0.9-2.5-1.7c-0.2-0.1,1.8,0.9,1.2,1.5c-0.5-0.9-2.1-1.5-3.4-1.4c-1.3,0.1-2.2,0.8-2.7,2.4
		c-0.5-0.4-0.8-0.8-1-1.3l0,0c0.1-0.3,0.5-1,2.1-1.8l-0.1,0c-0.2,0-1.1,0.2-2.3,1.1c-0.1-0.6,0.1-1.2,0.5-1.8
		c0.6-0.2,2.1-0.5,3.4-0.3c-0.6-0.2-3-0.1-3-0.1l0.1-0.1c0.3-0.3,0.9-0.8,1.8-1.2c0.5,0,1.6,0.2,2.6,0.5c-0.9-0.6-2.1-0.7-2.1-0.7
		C89.5,93.6,90.3,93.6,90.3,93.6z M92,95.8L92,95.8c-0.5,0.3-0.2,0.7,0.1,0.8c0.3,0.2,1,0.1,1,0.1C92.8,96.4,92.2,96,92,95.8z
		 M97.7,95.4c1.2,1.1,1.5,2.5,0.6,3.7l0,0.1l-1.7,0.2c-0.1,0-0.2,0-0.2,0c-0.2,0-0.4-0.2-0.3-0.3l0,0L97.7,95.4z M91.1,93.5
		c2-0.1,4.3,0.3,6,1.4l0.1,0.1l-0.5,1.1c0,0-0.1,0.1-0.1,0.1c-0.2,0.1-0.5,0.1-0.6,0l0,0L91.1,93.5z"/>
</g>
</svg>
