<?xml version="1.0" encoding="utf-8"?>
<!-- Generator: Adobe Illustrator 24.0.2, SVG Export Plug-In . SVG Version: 6.00 Build 0)  -->
<svg version="1.1" id="Layer_1" xmlns="http://www.w3.org/2000/svg" xmlns:xlink="http://www.w3.org/1999/xlink" x="0px" y="0px"
	 viewBox="0 0 143 143" style="enable-background:new 0 0 143 143;" xml:space="preserve">
<style type="text/css">
	.st0{fill:url(#SVGID_1_);}
	.st1{fill-rule:evenodd;clip-rule:evenodd;fill:url(#SVGID_2_);}
	.st2{fill-opacity:0.3;}
	.st3{fill:#FFFFFF;fill-opacity:0.2;}
	.st4{fill:url(#SVGID_3_);}
	.st5{fill:url(#SVGID_4_);}
	.st6{fill-rule:evenodd;clip-rule:evenodd;fill:url(#SVGID_5_);}
	.st7{fill-opacity:0.2;}
	.st8{fill-rule:evenodd;clip-rule:evenodd;fill:url(#SVGID_6_);}
	.st9{fill:#1AD9FF;}
	.st10{fill-rule:evenodd;clip-rule:evenodd;fill-opacity:0.5;}
	.st11{fill:#FFC34D;}
	.st12{fill:url(#SVGID_7_);}
	.st13{fill:url(#SVGID_8_);}
	.st14{fill-rule:evenodd;clip-rule:evenodd;fill:url(#SVGID_9_);}
	.st15{fill:url(#SVGID_10_);}
	.st16{fill:url(#SVGID_11_);}
	.st17{fill-rule:evenodd;clip-rule:evenodd;fill:url(#SVGID_12_);}
	.st18{fill-rule:evenodd;clip-rule:evenodd;fill:url(#SVGID_13_);}
	.st19{fill:url(#SVGID_14_);}
	.st20{fill:url(#SVGID_15_);}
	.st21{opacity:0.5;}
	.st22{fill:url(#SVGID_16_);}
	.st23{fill:url(#SVGID_17_);}
	.st24{fill:url(#SVGID_18_);}
	.st25{fill:url(#SVGID_19_);}
	.st26{fill:url(#SVGID_20_);}
	.st27{fill:url(#SVGID_21_);}
	.st28{fill:url(#SVGID_22_);}
	.st29{fill:url(#SVGID_23_);}
	.st30{fill:url(#SVGID_24_);}
	.st31{fill:url(#SVGID_25_);}
	.st32{fill:url(#SVGID_26_);}
	.st33{fill:url(#SVGID_27_);}
	.st34{fill:url(#SVGID_28_);}
	.st35{fill:url(#SVGID_29_);}
	.st36{fill:url(#SVGID_30_);}
	.st37{fill-rule:evenodd;clip-rule:evenodd;fill:url(#SVGID_31_);}
	.st38{fill:url(#SVGID_32_);}
	.st39{fill:url(#SVGID_33_);}
	.st40{fill-rule:evenodd;clip-rule:evenodd;fill:url(#SVGID_34_);}
	.st41{fill-rule:evenodd;clip-rule:evenodd;fill:url(#SVGID_35_);}
	.st42{fill:url(#SVGID_36_);}
	.st43{fill:url(#SVGID_37_);}
	.st44{fill:url(#SVGID_38_);}
	.st45{fill:url(#SVGID_39_);}
	.st46{fill:url(#SVGID_40_);}
	.st47{fill:url(#SVGID_41_);}
	.st48{fill:url(#SVGID_42_);}
	.st49{fill:url(#SVGID_43_);}
	.st50{fill:url(#SVGID_44_);}
	.st51{fill:url(#SVGID_45_);}
	.st52{fill:url(#SVGID_46_);}
	.st53{fill-rule:evenodd;clip-rule:evenodd;fill:url(#SVGID_47_);}
	.st54{fill:url(#SVGID_48_);}
	.st55{fill:url(#SVGID_49_);}
	.st56{fill-rule:evenodd;clip-rule:evenodd;fill:url(#SVGID_50_);}
	.st57{fill-rule:evenodd;clip-rule:evenodd;fill:url(#SVGID_51_);}
	.st58{fill-rule:evenodd;clip-rule:evenodd;fill-opacity:0.2;}
	.st59{fill:url(#SVGID_52_);}
	.st60{fill:url(#SVGID_53_);}
	.st61{fill:url(#SVGID_54_);}
	.st62{fill-rule:evenodd;clip-rule:evenodd;fill:url(#SVGID_55_);}
	.st63{fill:url(#SVGID_56_);}
	.st64{fill:#242433;}
	.st65{fill-rule:evenodd;clip-rule:evenodd;fill:url(#SVGID_57_);}
	.st66{fill:#F54C18;}
	
		.st67{fill:none;stroke:#000000;stroke-width:4;stroke-linecap:round;stroke-linejoin:round;stroke-opacity:0.2;stroke-dasharray:2,8;}
	.st68{fill-rule:evenodd;clip-rule:evenodd;fill:#1AD9FF;}
</style>
<linearGradient id="SVGID_1_" gradientUnits="userSpaceOnUse" x1="40.9929" y1="85.929" x2="107.1536" y2="41.56" gradientTransform="matrix(1 0 0 -1 0 144)">
	<stop  offset="0" style="stop-color:#365FB3"/>
	<stop  offset="0.4552" style="stop-color:#471F99"/>
	<stop  offset="0.9346" style="stop-color:#5E1980"/>
</linearGradient>
<path class="st0" d="M26.1,50.8l42.5,24.5l43.1-24.5v48.6c0,2.2-1.2,4.3-3.1,5.4L72,126.2c-2,1.1-4.4,1.1-6.3,0l-36.5-21.4
	c-1.9-1.1-3.1-3.2-3.1-5.4V50.8z"/>
<linearGradient id="SVGID_2_" gradientUnits="userSpaceOnUse" x1="27.1327" y1="68.7861" x2="112.7241" y2="50.2591" gradientTransform="matrix(1 0 0 -1 0 144)">
	<stop  offset="0" style="stop-color:#5C8AE6"/>
	<stop  offset="0.848" style="stop-color:#661F66"/>
</linearGradient>
<path class="st1" d="M25.8,50.4L68.6,75l43.3-24.7v49c0,2.3-1.2,4.5-3.2,5.6l-36.5,21.4c-2,1.2-4.6,1.2-6.6,0L29.1,105
	c-2-1.2-3.2-3.3-3.2-5.6V50.4z M111.4,51.3L68.6,75.6L26.4,51.3v48.1c0,2.1,1.1,4.1,3,5.2L65.9,126c1.9,1.1,4.2,1.1,6.1,0l36.5-21.4
	c1.8-1.1,3-3,3-5.2V51.3z"/>
<path class="st2" d="M26.1,91.5l39.6,23.2c2,1.1,4.4,1.1,6.3,0l39.6-23.2v2.1l-38.6,22.6c-2.6,1.5-5.8,1.5-8.4,0L26.1,93.6V91.5z"/>
<path class="st3" d="M26.1,93.1L65.2,116c2.3,1.3,5.1,1.3,7.4,0l39.1-22.9v0.5l-39.1,22.9c-2.3,1.3-5.1,1.3-7.4,0L26.1,93.6V93.1z"
	/>
<linearGradient id="SVGID_3_" gradientUnits="userSpaceOnUse" x1="64.7101" y1="42.569" x2="73.0604" y2="42.569" gradientTransform="matrix(1 0 0 -1 0 144)">
	<stop  offset="0" style="stop-color:#000000;stop-opacity:0"/>
	<stop  offset="0.4996" style="stop-color:#000000;stop-opacity:0.1"/>
	<stop  offset="1" style="stop-color:#000000;stop-opacity:0"/>
</linearGradient>
<path class="st4" d="M64.7,75.3h8.4v52.2h-8.4V75.3z"/>
<linearGradient id="SVGID_4_" gradientUnits="userSpaceOnUse" x1="34.0196" y1="77.3271" x2="104.0884" y2="108.89" gradientTransform="matrix(1 0 0 -1 0 144)">
	<stop  offset="0" style="stop-color:#527ACC"/>
	<stop  offset="1" style="stop-color:#7A3D99"/>
</linearGradient>
<path class="st5" d="M66.5,26.4c1.3-0.8,2.9-0.8,4.2,0l40.1,23.1c1.4,0.8,1.4,2.8,0,3.6L70.7,75.7c-1.3,0.7-2.8,0.7-4.1,0L26.9,53.1
	c-1.4-0.8-1.4-2.8,0-3.6L66.5,26.4z"/>
<linearGradient id="SVGID_5_" gradientUnits="userSpaceOnUse" x1="59.3173" y1="59.43" x2="78.5123" y2="126.2838" gradientTransform="matrix(1 0 0 -1 0 144)">
	<stop  offset="0" style="stop-color:#66CCFF"/>
	<stop  offset="1" style="stop-color:#991F99"/>
</linearGradient>
<path class="st6" d="M66.4,26.2c1.4-0.8,3.1-0.8,4.4,0L111,49.3c1.6,0.9,1.6,3.2,0,4.1L70.8,76c-1.4,0.8-3,0.8-4.4,0L26.8,53.4
	c-1.6-0.9-1.6-3.2,0-4.1L66.4,26.2z M70.6,26.7c-1.2-0.7-2.7-0.7-3.9,0L27,49.7c-1.2,0.7-1.2,2.5,0,3.2l39.7,22.6
	c1.2,0.7,2.7,0.7,3.9,0l40.1-22.6c1.2-0.7,1.2-2.5,0-3.2L70.6,26.7z"/>
<path class="st7" d="M68.2,36.4c0.2-0.1,0.2-0.1,0.3-0.1c0.1,0,0.1,0,0.2,0c0.1,0,0.2,0.1,0.3,0.1l24.9,14.2
	c0.4,0.2,0.6,0.4,0.7,0.5c0.1,0.1,0.1,0.3,0,0.4c-0.1,0.2-0.3,0.3-0.7,0.5L69,65.7c-0.1,0.1-0.2,0.1-0.3,0.1c-0.1,0-0.1,0-0.2,0
	c-0.1,0-0.2-0.1-0.3-0.1L43.8,52c-0.4-0.2-0.6-0.4-0.7-0.5c-0.1-0.1-0.1-0.3,0-0.4c0.1-0.2,0.3-0.3,0.7-0.5L68.2,36.4z"/>
<linearGradient id="SVGID_6_" gradientUnits="userSpaceOnUse" x1="46.7961" y1="83.2296" x2="91.1621" y2="102.9427" gradientTransform="matrix(1 0 0 -1 0 144)">
	<stop  offset="0" style="stop-color:#334466"/>
	<stop  offset="1" style="stop-color:#3D1F4D"/>
</linearGradient>
<path class="st8" d="M68.2,35c0.2-0.1,0.5-0.1,0.8,0c0.3,0.1,0.6,0.2,0.7,0.3c0,0,0,0,0,0l24.9,14.2c0.2,0.1,0.4,0.2,0.6,0.3
	c0.2,0.1,0.5,0.4,0.7,0.8c0.2,0.5,0.2,1,0,1.5c-0.2,0.4-0.5,0.6-0.7,0.8c-0.2,0.1-0.4,0.2-0.6,0.3L69.7,66.9c0,0,0,0,0,0
	c-0.1,0.1-0.4,0.2-0.6,0.3c-0.2,0-0.5,0-0.7,0c-0.3-0.1-0.5-0.2-0.6-0.3c0,0,0,0,0,0L43.2,53.2c0,0,0,0,0,0
	c-0.2-0.1-0.4-0.2-0.5-0.3c-0.2-0.1-0.5-0.3-0.7-0.8c-0.2-0.5-0.2-1,0-1.5c0.2-0.4,0.5-0.6,0.7-0.8c0.2-0.1,0.4-0.2,0.5-0.3
	c0,0,0,0,0,0l24.4-14.2c0,0,0,0,0,0C67.7,35.2,67.9,35.1,68.2,35z M68.6,37.7L45.2,51.3l23.5,13.1l23.9-13.1L68.6,37.7z"/>
<path class="st9" d="M33.4,66.3c0-0.8,0.6-1.2,1.3-0.7C35.4,66,36,67,36,67.8v21.7c0,0.8-0.6,1.2-1.3,0.7s-1.3-1.4-1.3-2.2V66.3z"/>
<path class="st10" d="M34.7,90.3c0.6,0.3,1.1,0.2,1.3-0.3c-0.2,0-0.4-0.1-0.6-0.2c-0.7-0.4-1.3-1.4-1.3-2.2V65.9
	c0-0.2,0-0.3,0.1-0.5c-0.4,0-0.8,0.3-0.8,0.9V88C33.4,88.9,34,89.9,34.7,90.3z"/>
<path class="st9" d="M40.2,70c0-0.8,0.6-1.2,1.3-0.7s1.3,1.4,1.3,2.2v21.7c0,0.8-0.6,1.2-1.3,0.7c-0.7-0.4-1.3-1.4-1.3-2.2V70z"/>
<path class="st10" d="M41.5,93.9c0.6,0.3,1.1,0.2,1.3-0.3c-0.2,0-0.4-0.1-0.6-0.2c-0.7-0.4-1.3-1.4-1.3-2.2V69.6
	c0-0.2,0-0.3,0.1-0.5c-0.4,0-0.8,0.3-0.8,0.9v21.7C40.2,92.5,40.8,93.5,41.5,93.9z"/>
<path class="st9" d="M47,74.2c0-0.8,0.6-1.2,1.3-0.7c0.7,0.4,1.3,1.4,1.3,2.2v21.7c0,0.8-0.6,1.2-1.3,0.7c-0.7-0.4-1.3-1.4-1.3-2.2
	V74.2z"/>
<path class="st10" d="M48.3,98.1c0.6,0.3,1.1,0.2,1.3-0.3c-0.2,0-0.4-0.1-0.6-0.2c-0.7-0.4-1.3-1.4-1.3-2.2V73.7
	c0-0.2,0-0.3,0.1-0.5c-0.4,0-0.8,0.3-0.8,0.9v21.7C47,96.7,47.6,97.7,48.3,98.1z"/>
<path class="st9" d="M53.8,77.8c0-0.8,0.6-1.2,1.3-0.7c0.7,0.4,1.3,1.4,1.3,2.2V101c0,0.8-0.6,1.2-1.3,0.7c-0.7-0.4-1.3-1.4-1.3-2.2
	V77.8z"/>
<path class="st10" d="M55.1,101.8c0.6,0.3,1.1,0.2,1.3-0.3c-0.2,0-0.4-0.1-0.6-0.2c-0.7-0.4-1.3-1.4-1.3-2.2V77.4
	c0-0.2,0-0.3,0.1-0.5c-0.4,0-0.8,0.3-0.8,0.9v21.7C53.8,100.4,54.4,101.4,55.1,101.8z"/>
<g>
	<path class="st11" d="M96,107.3c0,0.6-0.4,1.3-0.9,1.6c-0.5,0.3-0.9,0.1-0.9-0.5c0-0.6,0.4-1.3,0.9-1.6
		C95.6,106.5,96,106.7,96,107.3z"/>
	<path class="st9" d="M93.3,108.9c0,0.6-0.4,1.3-0.9,1.6c-0.5,0.3-0.9,0.1-0.9-0.5c0-0.6,0.4-1.3,0.9-1.6
		C92.9,108.1,93.3,108.4,93.3,108.9z"/>
	<path class="st9" d="M90.6,110.6c0,0.6-0.4,1.3-0.9,1.6c-0.5,0.3-0.9,0.1-0.9-0.5c0-0.6,0.4-1.3,0.9-1.6
		C90.2,109.7,90.6,110,90.6,110.6z"/>
	<path class="st9" d="M87.9,112.2c0,0.6-0.4,1.3-0.9,1.6c-0.5,0.3-0.9,0.1-0.9-0.5s0.4-1.3,0.9-1.6
		C87.4,111.4,87.9,111.6,87.9,112.2z"/>
	<path class="st9" d="M85.1,113.8c0,0.6-0.4,1.3-0.9,1.6c-0.5,0.3-0.9,0.1-0.9-0.5c0-0.6,0.4-1.3,0.9-1.6
		C84.7,113,85.1,113.2,85.1,113.8z"/>
	<path class="st9" d="M82.4,115.5c0,0.6-0.4,1.3-0.9,1.6c-0.5,0.3-0.9,0.1-0.9-0.5c0-0.6,0.4-1.3,0.9-1.6
		C82,114.6,82.4,114.9,82.4,115.5z"/>
	<path class="st9" d="M79.7,117.1c0,0.6-0.4,1.3-0.9,1.6c-0.5,0.3-0.9,0.1-0.9-0.5c0-0.6,0.4-1.3,0.9-1.6
		C79.3,116.3,79.7,116.5,79.7,117.1z"/>
	<path class="st9" d="M77,118.7c0,0.6-0.4,1.3-0.9,1.6c-0.5,0.3-0.9,0.1-0.9-0.5c0-0.6,0.4-1.3,0.9-1.6
		C76.6,117.9,77,118.1,77,118.7z"/>
</g>
<g>
	<path class="st9" d="M105.4,80.6c0-0.7,0.5-1.6,1.1-2c0.6-0.4,1.1-0.1,1.1,0.7v1c0,0.7-0.5,1.6-1.1,2c-0.6,0.4-1.1,0.1-1.1-0.7
		V80.6z"/>
</g>
<g>
	<path class="st9" d="M105.4,75.1c0-0.7,0.5-1.6,1.1-2c0.6-0.4,1.1-0.1,1.1,0.7v1c0,0.7-0.5,1.6-1.1,2c-0.6,0.4-1.1,0.1-1.1-0.7
		V75.1z"/>
</g>
<g>
	<path class="st9" d="M105.4,69.6c0-0.7,0.5-1.6,1.1-2c0.6-0.4,1.1-0.1,1.1,0.7v1c0,0.7-0.5,1.6-1.1,2c-0.6,0.4-1.1,0.1-1.1-0.7
		V69.6z"/>
</g>
<g>
	<path class="st9" d="M105.4,64.1c0-0.7,0.5-1.6,1.1-2c0.6-0.4,1.1-0.1,1.1,0.7v1c0,0.7-0.5,1.6-1.1,2c-0.6,0.4-1.1,0.1-1.1-0.7
		V64.1z"/>
</g>
<g>
	<path class="st9" d="M83.6,89.5l11.6-7v1.6l-11.6,7V89.5z"/>
</g>
<g>
	<path class="st9" d="M80.5,91.4l1.8-1.1v1.6L80.5,93V91.4z"/>
</g>
<g>
	<path class="st9" d="M75.1,94.6l4-2.4v1.6l-4,2.4V94.6z"/>
</g>
<g>
	<path class="st9" d="M87.7,83.9l12.5-7.5v1.6l-12.5,7.5V83.9z"/>
</g>
<g>
	<path class="st9" d="M84.5,85.7l1.8-1.1v1.6l-1.8,1.1V85.7z"/>
</g>
<g>
	<path class="st9" d="M81.4,87.6l1.8-1.1v1.6l-1.8,1.1V87.6z"/>
</g>
<g>
	<path class="st11" d="M78.3,89.5l1.8-1.1V90l-1.8,1.1V89.5z"/>
</g>
<g>
	<path class="st9" d="M75.1,91.4l1.8-1.1v1.6L75.1,93V91.4z"/>
</g>
<g>
	<path class="st9" d="M86.8,81.2L97.1,75v1.6l-10.3,6.2V81.2z"/>
</g>
<g>
	<path class="st9" d="M75.1,88.2L85.4,82v1.6l-10.3,6.2V88.2z"/>
</g>
<g>
	<path class="st9" d="M95.3,72.8l4.9-3v1.6l-4.9,3V72.8z"/>
</g>
<g>
	<path class="st11" d="M81.9,80.9l12.1-7.3v1.6l-12.1,7.3V80.9z"/>
</g>
<g>
	<path class="st11" d="M75.1,84.9l5.4-3.2v1.6l-5.4,3.2V84.9z"/>
</g>
<g>
	<path class="st9" d="M89,73.4l7.2-4.3v1.6L89,75V73.4z"/>
</g>
<g>
	<path class="st9" d="M75.1,81.7l12.5-7.5v1.6l-12.5,7.5V81.7z"/>
</g>
<g>
	
		<linearGradient id="SVGID_7_" gradientUnits="userSpaceOnUse" x1="68.8686" y1="106.502" x2="68.8686" y2="79.3633" gradientTransform="matrix(1 0 0 -1 0 144)">
		<stop  offset="0" style="stop-color:#99DDFF"/>
		<stop  offset="1" style="stop-color:#99BBFF"/>
	</linearGradient>
	<path class="st12" d="M67,38.4c0.6-0.3,0.9-0.5,1.2-0.6c0.3-0.1,0.6-0.1,0.8,0c0.3,0.1,0.6,0.2,1.2,0.6l19.9,11.5
		c0.8,0.5,1.2,0.7,1.3,1c0.1,0.3,0.1,0.6,0,0.8c-0.1,0.3-0.5,0.5-1.4,1l-20,11.1c-0.6,0.3-0.9,0.5-1.2,0.5c-0.3,0.1-0.5,0.1-0.8,0
		c-0.3-0.1-0.6-0.2-1.2-0.5L47.5,52.7c-0.8-0.4-1.2-0.7-1.3-1c-0.1-0.3-0.1-0.6,0-0.8c0.1-0.3,0.5-0.5,1.3-1L67,38.4z"/>
</g>
<linearGradient id="SVGID_8_" gradientUnits="userSpaceOnUse" x1="14.6578" y1="60.2953" x2="49.1249" y2="37.1813" gradientTransform="matrix(1 0 0 -1 0 144)">
	<stop  offset="0" style="stop-color:#365FB3"/>
	<stop  offset="0.4552" style="stop-color:#471F99"/>
	<stop  offset="0.9346" style="stop-color:#5E1980"/>
</linearGradient>
<path class="st13" d="M6.9,79.9l22.2,12.8l22.4-12.8v25.3c0,1.2-0.6,2.2-1.6,2.8l-19,11.1c-1,0.6-2.3,0.6-3.3,0l-19-11.1
	c-1-0.6-1.6-1.7-1.6-2.8V79.9z"/>
<linearGradient id="SVGID_9_" gradientUnits="userSpaceOnUse" x1="7.4375" y1="51.3648" x2="52.027" y2="41.7128" gradientTransform="matrix(1 0 0 -1 0 144)">
	<stop  offset="0" style="stop-color:#5C8AE6"/>
	<stop  offset="0.848" style="stop-color:#661F66"/>
</linearGradient>
<path class="st14" d="M6.8,79.7l22.3,12.9l22.6-12.9v25.6c0,1.2-0.6,2.3-1.7,2.9l-19,11.1c-1.1,0.6-2.4,0.6-3.4,0l-19-11.1
	c-1-0.6-1.7-1.7-1.7-2.9V79.7z M51.3,80.2L29.1,92.9L7,80.2v25.1c0,1.1,0.6,2.1,1.5,2.7l19,11.1c1,0.6,2.2,0.6,3.2,0l19-11.1
	c1-0.6,1.5-1.6,1.5-2.7V80.2z"/>
<path class="st2" d="M6.9,101.1l20.6,12.1c1,0.6,2.3,0.6,3.3,0l20.6-12.1v1.1L31.4,114c-1.4,0.8-3,0.8-4.4,0L6.9,102.2V101.1z"/>
<path class="st3" d="M6.9,101.9l20.4,11.9c1.2,0.7,2.7,0.7,3.8,0l20.4-11.9v0.3l-20.4,11.9c-1.2,0.7-2.7,0.7-3.8,0L6.9,102.2V101.9z
	"/>
<linearGradient id="SVGID_10_" gradientUnits="userSpaceOnUse" x1="27.0137" y1="37.707" x2="31.3639" y2="37.707" gradientTransform="matrix(1 0 0 -1 0 144)">
	<stop  offset="0" style="stop-color:#000000;stop-opacity:0"/>
	<stop  offset="0.4996" style="stop-color:#000000;stop-opacity:0.1"/>
	<stop  offset="1" style="stop-color:#000000;stop-opacity:0"/>
</linearGradient>
<path class="st15" d="M27,92.7h4.4v27.2H27V92.7z"/>
<linearGradient id="SVGID_11_" gradientUnits="userSpaceOnUse" x1="11.0252" y1="55.8142" x2="47.5282" y2="72.2574" gradientTransform="matrix(1 0 0 -1 0 144)">
	<stop  offset="0" style="stop-color:#527ACC"/>
	<stop  offset="1" style="stop-color:#7A3D99"/>
</linearGradient>
<path class="st16" d="M28,67.2c0.7-0.4,1.5-0.4,2.2,0l20.9,12c0.7,0.4,0.7,1.5,0,1.9L30.1,92.9c-0.7,0.4-1.5,0.4-2.1,0L7.3,81.1
	c-0.7-0.4-0.7-1.5,0-1.9L28,67.2z"/>
<linearGradient id="SVGID_12_" gradientUnits="userSpaceOnUse" x1="24.2043" y1="46.4909" x2="34.2042" y2="81.3188" gradientTransform="matrix(1 0 0 -1 0 144)">
	<stop  offset="0" style="stop-color:#66CCFF"/>
	<stop  offset="1" style="stop-color:#991F99"/>
</linearGradient>
<path class="st17" d="M27.9,67.1c0.7-0.4,1.6-0.4,2.3,0l20.9,12c0.8,0.5,0.8,1.7,0,2.1L30.2,93c-0.7,0.4-1.6,0.4-2.3,0L7.2,81.2
	c-0.8-0.5-0.8-1.6,0-2.1L27.9,67.1z M30.1,67.3c-0.6-0.4-1.4-0.4-2,0l-20.7,12c-0.6,0.4-0.6,1.3,0,1.6L28,92.8c0.6,0.4,1.4,0.4,2,0
	L51,81c0.6-0.4,0.6-1.3,0-1.7L30.1,67.3z"/>
<path class="st7" d="M28.8,72.4c0.1,0,0.1-0.1,0.2-0.1c0,0,0.1,0,0.1,0c0,0,0.1,0,0.2,0.1l13,7.4c0.2,0.1,0.3,0.2,0.4,0.3
	c0,0.1,0,0.2,0,0.2c0,0.1-0.1,0.1-0.4,0.3l-13,7.1c-0.1,0-0.1,0.1-0.2,0.1c0,0-0.1,0-0.1,0c0,0-0.1,0-0.2-0.1l-12.7-7.1
	c-0.2-0.1-0.3-0.2-0.4-0.3c0-0.1,0-0.2,0-0.2c0-0.1,0.1-0.1,0.4-0.3L28.8,72.4z"/>
<linearGradient id="SVGID_13_" gradientUnits="userSpaceOnUse" x1="17.6812" y1="58.8896" x2="40.7941" y2="69.1591" gradientTransform="matrix(1 0 0 -1 0 144)">
	<stop  offset="0" style="stop-color:#334466"/>
	<stop  offset="1" style="stop-color:#3D1F4D"/>
</linearGradient>
<path class="st18" d="M28.9,71.7c0.1,0,0.3,0,0.4,0c0.2,0,0.3,0.1,0.3,0.1c0,0,0,0,0,0l13,7.4c0.1,0.1,0.2,0.1,0.3,0.2
	c0.1,0.1,0.3,0.2,0.3,0.4c0.1,0.2,0.1,0.5,0,0.8c-0.1,0.2-0.3,0.3-0.4,0.4c-0.1,0.1-0.2,0.1-0.3,0.2l-13,7.1c0,0,0,0,0,0
	c-0.1,0-0.2,0.1-0.3,0.1c-0.1,0-0.3,0-0.4,0c-0.2,0-0.3-0.1-0.3-0.1c0,0,0,0,0,0l-12.7-7.1c0,0,0,0,0,0c-0.1-0.1-0.2-0.1-0.3-0.2
	c-0.1-0.1-0.3-0.2-0.3-0.4c-0.1-0.2-0.1-0.5,0-0.8c0.1-0.2,0.3-0.3,0.3-0.4c0.1-0.1,0.2-0.1,0.3-0.2c0,0,0,0,0,0l12.7-7.4
	c0,0,0,0,0,0C28.6,71.8,28.7,71.7,28.9,71.7z M29.1,73.1l-12.2,7.1L29.1,87l12.5-6.8L29.1,73.1z"/>
<path class="st9" d="M10.7,88c0-0.4,0.3-0.6,0.7-0.4c0.4,0.2,0.7,0.7,0.7,1.2v11.3c0,0.4-0.3,0.6-0.7,0.4c-0.4-0.2-0.7-0.7-0.7-1.2
	V88z"/>
<path class="st10" d="M11.4,100.5c0.3,0.2,0.6,0.1,0.7-0.1c-0.1,0-0.2,0-0.3-0.1c-0.4-0.2-0.7-0.7-0.7-1.2V87.8c0-0.1,0-0.2,0-0.2
	c-0.2,0-0.4,0.2-0.4,0.5v11.3C10.7,99.8,11,100.3,11.4,100.5z"/>
<path class="st9" d="M14.2,89.9c0-0.4,0.3-0.6,0.7-0.4c0.4,0.2,0.7,0.7,0.7,1.2V102c0,0.4-0.3,0.6-0.7,0.4c-0.4-0.2-0.7-0.7-0.7-1.2
	V89.9z"/>
<path class="st10" d="M14.9,102.4c0.3,0.2,0.6,0.1,0.7-0.1c-0.1,0-0.2,0-0.3-0.1c-0.4-0.2-0.7-0.7-0.7-1.2V89.7c0-0.1,0-0.2,0-0.2
	c-0.2,0-0.4,0.2-0.4,0.5v11.3C14.2,101.7,14.5,102.2,14.9,102.4z"/>
<path class="st9" d="M17.8,92.1c0-0.4,0.3-0.6,0.7-0.4c0.4,0.2,0.7,0.7,0.7,1.2v11.3c0,0.4-0.3,0.6-0.7,0.4
	c-0.4-0.2-0.7-0.7-0.7-1.2V92.1z"/>
<path class="st10" d="M18.5,104.6c0.3,0.2,0.6,0.1,0.7-0.1c-0.1,0-0.2,0-0.3-0.1c-0.4-0.2-0.7-0.7-0.7-1.2V91.9c0-0.1,0-0.2,0-0.2
	c-0.2,0-0.4,0.2-0.4,0.5v11.3C17.8,103.8,18.1,104.4,18.5,104.6z"/>
<path class="st9" d="M21.3,94c0-0.4,0.3-0.6,0.7-0.4c0.4,0.2,0.7,0.7,0.7,1.2v11.3c0,0.4-0.3,0.6-0.7,0.4c-0.4-0.2-0.7-0.7-0.7-1.2
	V94z"/>
<path class="st10" d="M22,106.5c0.3,0.2,0.6,0.1,0.7-0.1c-0.1,0-0.2,0-0.3-0.1c-0.4-0.2-0.7-0.7-0.7-1.2V93.8c0-0.1,0-0.2,0-0.2
	c-0.2,0-0.4,0.2-0.4,0.5v11.3C21.3,105.7,21.6,106.3,22,106.5z"/>
<g>
	<path class="st11" d="M43.3,109.4c0,0.3-0.2,0.7-0.5,0.8c-0.3,0.2-0.5,0-0.5-0.3c0-0.3,0.2-0.7,0.5-0.8
		C43.1,108.9,43.3,109.1,43.3,109.4z"/>
	<path class="st9" d="M41.9,110.2c0,0.3-0.2,0.7-0.5,0.8c-0.3,0.2-0.5,0-0.5-0.3c0-0.3,0.2-0.7,0.5-0.8
		C41.7,109.8,41.9,109.9,41.9,110.2z"/>
	<path class="st9" d="M40.5,111.1c0,0.3-0.2,0.7-0.5,0.8c-0.3,0.2-0.5,0-0.5-0.3s0.2-0.7,0.5-0.8C40.3,110.6,40.5,110.7,40.5,111.1z
		"/>
	<path class="st9" d="M39.1,111.9c0,0.3-0.2,0.7-0.5,0.8c-0.3,0.2-0.5,0-0.5-0.3c0-0.3,0.2-0.7,0.5-0.8
		C38.9,111.5,39.1,111.6,39.1,111.9z"/>
	<path class="st9" d="M37.7,112.8c0,0.3-0.2,0.7-0.5,0.8c-0.3,0.2-0.5,0-0.5-0.3c0-0.3,0.2-0.7,0.5-0.8
		C37.4,112.3,37.7,112.4,37.7,112.8z"/>
	<path class="st9" d="M36.2,113.6c0,0.3-0.2,0.7-0.5,0.8c-0.3,0.2-0.5,0-0.5-0.3c0-0.3,0.2-0.7,0.5-0.8
		C36,113.2,36.2,113.3,36.2,113.6z"/>
	<path class="st9" d="M34.8,114.5c0,0.3-0.2,0.7-0.5,0.8c-0.3,0.2-0.5,0-0.5-0.3s0.2-0.7,0.5-0.8C34.6,114,34.8,114.1,34.8,114.5z"
		/>
	<path class="st9" d="M33.4,115.3c0,0.3-0.2,0.7-0.5,0.8c-0.3,0.2-0.5,0-0.5-0.3c0-0.3,0.2-0.7,0.5-0.8
		C33.2,114.9,33.4,115,33.4,115.3z"/>
</g>
<g>
	<path class="st9" d="M48.2,95.4c0-0.4,0.3-0.8,0.6-1c0.3-0.2,0.6,0,0.6,0.3v0.5c0,0.4-0.3,0.8-0.6,1c-0.3,0.2-0.6,0-0.6-0.3V95.4z"
		/>
</g>
<g>
	<path class="st9" d="M48.2,92.6c0-0.4,0.3-0.8,0.6-1c0.3-0.2,0.6,0,0.6,0.3v0.5c0,0.4-0.3,0.8-0.6,1c-0.3,0.2-0.6,0-0.6-0.3V92.6z"
		/>
</g>
<g>
	<path class="st9" d="M48.2,89.7c0-0.4,0.3-0.8,0.6-1c0.3-0.2,0.6,0,0.6,0.3v0.5c0,0.4-0.3,0.8-0.6,1c-0.3,0.2-0.6,0-0.6-0.3V89.7z"
		/>
</g>
<g>
	<path class="st9" d="M48.2,86.9c0-0.4,0.3-0.8,0.6-1c0.3-0.2,0.6,0,0.6,0.3v0.5c0,0.4-0.3,0.8-0.6,1c-0.3,0.2-0.6,0-0.6-0.3V86.9z"
		/>
</g>
<g>
	<path class="st9" d="M36.9,100.1l6.1-3.6v0.8l-6.1,3.6V100.1z"/>
</g>
<g>
	<path class="st9" d="M35.2,101.1l0.9-0.6v0.8l-0.9,0.6V101.1z"/>
</g>
<g>
	<path class="st9" d="M32.5,102.7l2.1-1.3v0.8l-2.1,1.3V102.7z"/>
</g>
<g>
	<path class="st9" d="M39,97.1l6.5-3.9v0.8L39,98V97.1z"/>
</g>
<g>
	<path class="st9" d="M37.3,98.1l0.9-0.6v0.8L37.3,99V98.1z"/>
</g>
<g>
	<path class="st9" d="M35.7,99.1l0.9-0.6v0.8l-0.9,0.6V99.1z"/>
</g>
<g>
	<path class="st11" d="M34.1,100.1l0.9-0.6v0.8l-0.9,0.6V100.1z"/>
</g>
<g>
	<path class="st9" d="M32.5,101.1l0.9-0.6v0.8l-0.9,0.6V101.1z"/>
</g>
<g>
	<path class="st9" d="M38.5,95.7l5.4-3.2v0.8l-5.4,3.2V95.7z"/>
</g>
<g>
	<path class="st9" d="M32.5,99.4l5.4-3.2V97l-5.4,3.2V99.4z"/>
</g>
<g>
	<path class="st9" d="M42.9,91.4l2.6-1.5v0.8l-2.6,1.5V91.4z"/>
</g>
<g>
	<path class="st11" d="M35.9,95.6l6.3-3.8v0.8l-6.3,3.8V95.6z"/>
</g>
<g>
	<path class="st11" d="M32.5,97.7l2.8-1.7v0.8l-2.8,1.7V97.7z"/>
</g>
<g>
	<path class="st9" d="M39.7,91.7l3.7-2.2v0.8l-3.7,2.2V91.7z"/>
</g>
<g>
	<path class="st9" d="M32.5,96l6.5-3.9v0.8l-6.5,3.9V96z"/>
</g>
<g>
	
		<linearGradient id="SVGID_14_" gradientUnits="userSpaceOnUse" x1="29.1721" y1="71.013" x2="29.1721" y2="56.875" gradientTransform="matrix(1 0 0 -1 0 144)">
		<stop  offset="0" style="stop-color:#99DDFF"/>
		<stop  offset="1" style="stop-color:#99BBFF"/>
	</linearGradient>
	<path class="st19" d="M27.4,73.9c0.6-0.3,0.9-0.5,1.2-0.6c0.3-0.1,0.6-0.1,0.8,0c0.3,0.1,0.6,0.2,1.2,0.6l8.4,4.9
		c0.8,0.5,1.2,0.7,1.3,1c0.1,0.3,0.1,0.6,0,0.8c-0.1,0.3-0.5,0.5-1.4,1l-8.5,4.7c-0.6,0.3-0.9,0.5-1.2,0.5c-0.3,0.1-0.5,0.1-0.8,0
		c-0.3-0.1-0.6-0.2-1.2-0.5l-8.3-4.7c-0.8-0.4-1.2-0.7-1.3-1c-0.1-0.3-0.1-0.6,0-0.8c0.1-0.3,0.5-0.5,1.3-1L27.4,73.9z"/>
</g>
<g>
	
		<linearGradient id="SVGID_15_" gradientUnits="userSpaceOnUse" x1="29.0528" y1="96.4346" x2="29.0528" y2="63.808" gradientTransform="matrix(1 0 0 -1 0 144)">
		<stop  offset="0" style="stop-color:#FFFFFF;stop-opacity:0"/>
		<stop  offset="1" style="stop-color:#FFFFFF;stop-opacity:0.1"/>
	</linearGradient>
	<path class="st20" d="M16,51.7c-0.1-2.3,1.7-4.1,4-4.1h18.1c2.3,0,4.1,1.9,4,4.1L41.2,78c0,1.4-0.8,2.6-2,3.3L31,86
		c-1.2,0.7-2.7,0.7-4,0l-8.2-4.7c-1.2-0.7-2-2-2-3.3L16,51.7z"/>
</g>
<g class="st21">
	
		<linearGradient id="SVGID_16_" gradientUnits="userSpaceOnUse" x1="27.4215" y1="67.3426" x2="27.4215" y2="65.4394" gradientTransform="matrix(1 0 0 -1 0 144)">
		<stop  offset="0" style="stop-color:#E1E6F0"/>
		<stop  offset="1" style="stop-color:#939CCC"/>
	</linearGradient>
	<circle class="st22" cx="27.4" cy="77.6" r="1"/>
</g>
<g class="st21">
	
		<linearGradient id="SVGID_17_" gradientUnits="userSpaceOnUse" x1="33.2671" y1="73.3242" x2="33.2671" y2="71.1492" gradientTransform="matrix(1 0 0 -1 0 144)">
		<stop  offset="0" style="stop-color:#E1E6F0"/>
		<stop  offset="1" style="stop-color:#939CCC"/>
	</linearGradient>
	<ellipse class="st23" cx="33.3" cy="71.8" rx="1.1" ry="1.1"/>
</g>
<g class="st21">
	
		<linearGradient id="SVGID_18_" gradientUnits="userSpaceOnUse" x1="29.0528" y1="91.2686" x2="29.0528" y2="88.8216" gradientTransform="matrix(1 0 0 -1 0 144)">
		<stop  offset="0" style="stop-color:#E1E6F0"/>
		<stop  offset="1" style="stop-color:#939CCC"/>
	</linearGradient>
	<circle class="st24" cx="29.1" cy="54" r="1.2"/>
</g>
<g class="st21">
	
		<linearGradient id="SVGID_19_" gradientUnits="userSpaceOnUse" x1="29.8685" y1="81.7524" x2="29.8685" y2="79.3054" gradientTransform="matrix(1 0 0 -1 0 144)">
		<stop  offset="0" style="stop-color:#E1E6F0"/>
		<stop  offset="1" style="stop-color:#939CCC"/>
	</linearGradient>
	<ellipse class="st25" cx="29.9" cy="63.5" rx="1.2" ry="1.2"/>
</g>
<g class="st21">
	
		<linearGradient id="SVGID_20_" gradientUnits="userSpaceOnUse" x1="32.0436" y1="65.4397" x2="32.0436" y2="64.0803" gradientTransform="matrix(1 0 0 -1 0 144)">
		<stop  offset="0" style="stop-color:#E1E6F0"/>
		<stop  offset="1" style="stop-color:#939CCC"/>
	</linearGradient>
	<ellipse class="st26" cx="32" cy="79.2" rx="0.7" ry="0.7"/>
</g>
<g class="st21">
	
		<linearGradient id="SVGID_21_" gradientUnits="userSpaceOnUse" x1="33.9468" y1="86.103" x2="33.9468" y2="84.1998" gradientTransform="matrix(1 0 0 -1 0 144)">
		<stop  offset="0" style="stop-color:#E1E6F0"/>
		<stop  offset="1" style="stop-color:#939CCC"/>
	</linearGradient>
	<circle class="st27" cx="33.9" cy="58.8" r="1"/>
</g>
<g class="st21">
	
		<linearGradient id="SVGID_22_" gradientUnits="userSpaceOnUse" x1="24.8386" y1="74.4117" x2="24.8386" y2="72.7803" gradientTransform="matrix(1 0 0 -1 0 144)">
		<stop  offset="0" style="stop-color:#E1E6F0"/>
		<stop  offset="1" style="stop-color:#939CCC"/>
	</linearGradient>
	<circle class="st28" cx="24.8" cy="70.4" r="0.8"/>
</g>
<g class="st21">
	
		<linearGradient id="SVGID_23_" gradientUnits="userSpaceOnUse" x1="24.5667" y1="82.8404" x2="24.5667" y2="81.7528" gradientTransform="matrix(1 0 0 -1 0 144)">
		<stop  offset="0" style="stop-color:#E1E6F0"/>
		<stop  offset="1" style="stop-color:#939CCC"/>
	</linearGradient>
	<ellipse class="st29" cx="24.6" cy="61.7" rx="0.5" ry="0.5"/>
</g>
<g>
	
		<linearGradient id="SVGID_24_" gradientUnits="userSpaceOnUse" x1="68.8653" y1="141.9634" x2="68.8653" y2="91.0866" gradientTransform="matrix(1 0 0 -1 0 144)">
		<stop  offset="0" style="stop-color:#FFFFFF;stop-opacity:0"/>
		<stop  offset="1" style="stop-color:#FFFFFF;stop-opacity:0.1"/>
	</linearGradient>
	<path class="st30" d="M48.5,8.5C48.4,5,51.2,2,54.8,2H83c3.5,0,6.4,2.9,6.2,6.4l-1.4,41c-0.1,2.2-1.3,4.1-3.1,5.2L72,61.9
		c-1.9,1.1-4.3,1.1-6.2,0L53,54.6c-1.9-1.1-3.1-3-3.1-5.2L48.5,8.5z"/>
</g>
<g class="st21">
	
		<linearGradient id="SVGID_25_" gradientUnits="userSpaceOnUse" x1="68.8653" y1="133.9077" x2="68.8653" y2="130.0919" gradientTransform="matrix(1 0 0 -1 0 144)">
		<stop  offset="0" style="stop-color:#E1E6F0"/>
		<stop  offset="1" style="stop-color:#939CCC"/>
	</linearGradient>
	<circle class="st31" cx="68.9" cy="12" r="1.9"/>
</g>
<g class="st21">
	
		<linearGradient id="SVGID_26_" gradientUnits="userSpaceOnUse" x1="70.1373" y1="119.0685" x2="70.1373" y2="115.2527" gradientTransform="matrix(1 0 0 -1 0 144)">
		<stop  offset="0" style="stop-color:#E1E6F0"/>
		<stop  offset="1" style="stop-color:#939CCC"/>
	</linearGradient>
	<ellipse class="st32" cx="70.1" cy="26.8" rx="1.9" ry="1.9"/>
</g>
<g class="st21">
	
		<linearGradient id="SVGID_27_" gradientUnits="userSpaceOnUse" x1="76.4969" y1="125.8526" x2="76.4969" y2="122.8848" gradientTransform="matrix(1 0 0 -1 0 144)">
		<stop  offset="0" style="stop-color:#E1E6F0"/>
		<stop  offset="1" style="stop-color:#939CCC"/>
	</linearGradient>
	<circle class="st33" cx="76.5" cy="19.6" r="1.5"/>
</g>
<g class="st21">
	
		<linearGradient id="SVGID_28_" gradientUnits="userSpaceOnUse" x1="62.2939" y1="107.6216" x2="62.2939" y2="105.0778" gradientTransform="matrix(1 0 0 -1 0 144)">
		<stop  offset="0" style="stop-color:#E1E6F0"/>
		<stop  offset="1" style="stop-color:#939CCC"/>
	</linearGradient>
	<circle class="st34" cx="62.3" cy="37.7" r="1.3"/>
</g>
<g class="st21">
	
		<linearGradient id="SVGID_29_" gradientUnits="userSpaceOnUse" x1="61.8699" y1="120.765" x2="61.8699" y2="119.0691" gradientTransform="matrix(1 0 0 -1 0 144)">
		<stop  offset="0" style="stop-color:#E1E6F0"/>
		<stop  offset="1" style="stop-color:#939CCC"/>
	</linearGradient>
	<ellipse class="st35" cx="61.9" cy="24.1" rx="0.8" ry="0.8"/>
</g>
<linearGradient id="SVGID_30_" gradientUnits="userSpaceOnUse" x1="29.2682" y1="41.1914" x2="63.7352" y2="18.0764" gradientTransform="matrix(1 0 0 -1 0 144)">
	<stop  offset="0" style="stop-color:#365FB3"/>
	<stop  offset="0.4552" style="stop-color:#471F99"/>
	<stop  offset="0.9346" style="stop-color:#5E1980"/>
</linearGradient>
<path class="st36" d="M21.5,99l22.2,12.8L66.1,99v25.3c0,1.2-0.6,2.2-1.6,2.8l-19,11.1c-1,0.6-2.3,0.6-3.3,0l-19-11.1
	c-1-0.6-1.6-1.7-1.6-2.8V99z"/>
<linearGradient id="SVGID_31_" gradientUnits="userSpaceOnUse" x1="22.0474" y1="32.2608" x2="66.637" y2="22.6088" gradientTransform="matrix(1 0 0 -1 0 144)">
	<stop  offset="0" style="stop-color:#5C8AE6"/>
	<stop  offset="0.848" style="stop-color:#661F66"/>
</linearGradient>
<path class="st37" d="M21.4,98.8l22.3,12.9l22.6-12.9v25.6c0,1.2-0.6,2.3-1.7,2.9l-19,11.1c-1.1,0.6-2.4,0.6-3.4,0l-19-11.1
	c-1-0.6-1.7-1.7-1.7-2.9V98.8z M66,99.3L43.7,112l-22-12.7v25.1c0,1.1,0.6,2.1,1.5,2.7l19,11.1c1,0.6,2.2,0.6,3.2,0l19-11.1
	c1-0.6,1.5-1.6,1.5-2.7V99.3z"/>
<path class="st2" d="M21.5,120.2l20.6,12.1c1,0.6,2.3,0.6,3.3,0l20.6-12.1v1.1L46,133.1c-1.4,0.8-3,0.8-4.4,0l-20.1-11.8V120.2z"/>
<path class="st3" d="M21.5,121L41.9,133c1.2,0.7,2.7,0.7,3.8,0L66.1,121v0.3l-20.4,11.9c-1.2,0.7-2.7,0.7-3.8,0l-20.4-11.9V121z"/>
<linearGradient id="SVGID_32_" gradientUnits="userSpaceOnUse" x1="41.6236" y1="18.6025" x2="45.9738" y2="18.6025" gradientTransform="matrix(1 0 0 -1 0 144)">
	<stop  offset="0" style="stop-color:#000000;stop-opacity:0"/>
	<stop  offset="0.4996" style="stop-color:#000000;stop-opacity:0.1"/>
	<stop  offset="1" style="stop-color:#000000;stop-opacity:0"/>
</linearGradient>
<path class="st38" d="M41.6,111.8H46V139h-4.4V111.8z"/>
<linearGradient id="SVGID_33_" gradientUnits="userSpaceOnUse" x1="25.6352" y1="36.71" x2="62.1382" y2="53.153" gradientTransform="matrix(1 0 0 -1 0 144)">
	<stop  offset="0" style="stop-color:#527ACC"/>
	<stop  offset="1" style="stop-color:#7A3D99"/>
</linearGradient>
<path class="st39" d="M42.6,86.3c0.7-0.4,1.5-0.4,2.2,0l20.9,12c0.7,0.4,0.7,1.5,0,1.9L44.7,112c-0.7,0.4-1.5,0.4-2.1,0l-20.7-11.8
	c-0.7-0.4-0.7-1.5,0-1.9L42.6,86.3z"/>
<linearGradient id="SVGID_34_" gradientUnits="userSpaceOnUse" x1="38.8141" y1="27.386" x2="48.8139" y2="62.214" gradientTransform="matrix(1 0 0 -1 0 144)">
	<stop  offset="0" style="stop-color:#66CCFF"/>
	<stop  offset="1" style="stop-color:#991F99"/>
</linearGradient>
<path class="st40" d="M42.5,86.2c0.7-0.4,1.6-0.4,2.3,0l20.9,12c0.8,0.5,0.8,1.7,0,2.1l-20.9,11.8c-0.7,0.4-1.6,0.4-2.3,0
	l-20.7-11.8c-0.8-0.5-0.8-1.6,0-2.1L42.5,86.2z M44.7,86.4c-0.6-0.4-1.4-0.4-2,0L22,98.5c-0.6,0.4-0.6,1.3,0,1.7l20.7,11.8
	c0.6,0.4,1.4,0.4,2,0l20.9-11.8c0.6-0.4,0.6-1.3,0-1.7L44.7,86.4z"/>
<path class="st7" d="M43.4,91.5c0.1,0,0.1-0.1,0.2-0.1c0,0,0.1,0,0.1,0c0,0,0.1,0,0.2,0.1l13,7.4c0.2,0.1,0.3,0.2,0.4,0.3
	c0,0.1,0,0.2,0,0.2c0,0.1-0.1,0.1-0.4,0.3l-13,7.1c-0.1,0-0.1,0.1-0.2,0.1c0,0-0.1,0-0.1,0c0,0-0.1,0-0.2-0.1l-12.7-7.1
	c-0.2-0.1-0.3-0.2-0.4-0.3c0-0.1,0-0.2,0-0.2c0-0.1,0.1-0.1,0.4-0.3L43.4,91.5z"/>
<linearGradient id="SVGID_35_" gradientUnits="userSpaceOnUse" x1="32.2912" y1="39.7847" x2="55.404" y2="50.0547" gradientTransform="matrix(1 0 0 -1 0 144)">
	<stop  offset="0" style="stop-color:#334466"/>
	<stop  offset="1" style="stop-color:#3D1F4D"/>
</linearGradient>
<path class="st41" d="M43.5,90.8c0.1,0,0.3,0,0.4,0c0.2,0,0.3,0.1,0.3,0.1c0,0,0,0,0,0l13,7.4c0.1,0.1,0.2,0.1,0.3,0.2
	c0.1,0.1,0.3,0.2,0.3,0.4c0.1,0.2,0.1,0.5,0,0.8c-0.1,0.2-0.3,0.3-0.4,0.4c-0.1,0.1-0.2,0.1-0.3,0.2l-13,7.1c0,0,0,0,0,0
	c-0.1,0-0.2,0.1-0.3,0.1c-0.1,0-0.3,0-0.4,0c-0.2,0-0.3-0.1-0.3-0.1c0,0,0,0,0,0l-12.7-7.1c0,0,0,0,0,0c-0.1-0.1-0.2-0.1-0.3-0.2
	c-0.1-0.1-0.3-0.2-0.3-0.4c-0.1-0.2-0.1-0.5,0-0.8c0.1-0.2,0.3-0.3,0.3-0.4c0.1-0.1,0.2-0.1,0.3-0.2c0,0,0,0,0,0l12.7-7.4
	c0,0,0,0,0,0C43.2,90.9,43.3,90.8,43.5,90.8z M43.7,92.2l-12.2,7.1l12.2,6.8l12.5-6.8L43.7,92.2z"/>
<path class="st9" d="M25.3,107.1c0-0.4,0.3-0.6,0.7-0.4c0.4,0.2,0.7,0.7,0.7,1.2v11.3c0,0.4-0.3,0.6-0.7,0.4
	c-0.4-0.2-0.7-0.7-0.7-1.2V107.1z"/>
<path class="st10" d="M26,119.6c0.3,0.2,0.6,0.1,0.7-0.1c-0.1,0-0.2,0-0.3-0.1c-0.4-0.2-0.7-0.7-0.7-1.2v-11.3c0-0.1,0-0.2,0-0.2
	c-0.2,0-0.4,0.2-0.4,0.5v11.3C25.3,118.9,25.6,119.4,26,119.6z"/>
<path class="st9" d="M28.8,109c0-0.4,0.3-0.6,0.7-0.4c0.4,0.2,0.7,0.7,0.7,1.2v11.3c0,0.4-0.3,0.6-0.7,0.4c-0.4-0.2-0.7-0.7-0.7-1.2
	V109z"/>
<path class="st10" d="M29.5,121.5c0.3,0.2,0.6,0.1,0.7-0.1c-0.1,0-0.2,0-0.3-0.1c-0.4-0.2-0.7-0.7-0.7-1.2v-11.3c0-0.1,0-0.2,0-0.2
	c-0.2,0-0.4,0.2-0.4,0.5v11.3C28.8,120.8,29.2,121.3,29.5,121.5z"/>
<path class="st9" d="M32.4,111.2c0-0.4,0.3-0.6,0.7-0.4c0.4,0.2,0.7,0.7,0.7,1.2v11.3c0,0.4-0.3,0.6-0.7,0.4
	c-0.4-0.2-0.7-0.7-0.7-1.2V111.2z"/>
<path class="st10" d="M33.1,123.7c0.3,0.2,0.6,0.1,0.7-0.1c-0.1,0-0.2,0-0.3-0.1c-0.4-0.2-0.7-0.7-0.7-1.2V111c0-0.1,0-0.2,0-0.2
	c-0.2,0-0.4,0.2-0.4,0.5v11.3C32.4,122.9,32.7,123.5,33.1,123.7z"/>
<path class="st9" d="M35.9,113.1c0-0.4,0.3-0.6,0.7-0.4s0.7,0.7,0.7,1.2v11.3c0,0.4-0.3,0.6-0.7,0.4c-0.4-0.2-0.7-0.7-0.7-1.2V113.1
	z"/>
<path class="st10" d="M36.6,125.6c0.3,0.2,0.6,0.1,0.7-0.1c-0.1,0-0.2,0-0.3-0.1c-0.4-0.2-0.7-0.7-0.7-1.2v-11.3c0-0.1,0-0.2,0-0.2
	c-0.2,0-0.4,0.2-0.4,0.5v11.3C35.9,124.8,36.2,125.4,36.6,125.6z"/>
<g>
	<path class="st11" d="M57.9,128.5c0,0.3-0.2,0.7-0.5,0.8c-0.3,0.2-0.5,0-0.5-0.3c0-0.3,0.2-0.7,0.5-0.8
		C57.7,128,57.9,128.2,57.9,128.5z"/>
	<path class="st9" d="M56.5,129.3c0,0.3-0.2,0.7-0.5,0.8c-0.3,0.2-0.5,0-0.5-0.3c0-0.3,0.2-0.7,0.5-0.8
		C56.3,128.9,56.5,129,56.5,129.3z"/>
	<path class="st9" d="M55.1,130.2c0,0.3-0.2,0.7-0.5,0.8c-0.3,0.2-0.5,0-0.5-0.3s0.2-0.7,0.5-0.8C54.9,129.7,55.1,129.9,55.1,130.2z
		"/>
	<path class="st9" d="M53.7,131c0,0.3-0.2,0.7-0.5,0.8c-0.3,0.2-0.5,0-0.5-0.3c0-0.3,0.2-0.7,0.5-0.8
		C53.5,130.6,53.7,130.7,53.7,131z"/>
	<path class="st9" d="M52.3,131.9c0,0.3-0.2,0.7-0.5,0.8c-0.3,0.2-0.5,0-0.5-0.3c0-0.3,0.2-0.7,0.5-0.8
		C52.1,131.4,52.3,131.5,52.3,131.9z"/>
	<path class="st9" d="M50.8,132.7c0,0.3-0.2,0.7-0.5,0.8c-0.3,0.2-0.5,0-0.5-0.3c0-0.3,0.2-0.7,0.5-0.8
		C50.6,132.3,50.8,132.4,50.8,132.7z"/>
	<path class="st9" d="M49.4,133.6c0,0.3-0.2,0.7-0.5,0.8c-0.3,0.2-0.5,0-0.5-0.3s0.2-0.7,0.5-0.8C49.2,133.1,49.4,133.2,49.4,133.6z
		"/>
	<path class="st9" d="M48,134.4c0,0.3-0.2,0.7-0.5,0.8c-0.3,0.2-0.5,0-0.5-0.3c0-0.3,0.2-0.7,0.5-0.8C47.8,134,48,134.1,48,134.4z"
		/>
</g>
<g>
	<path class="st9" d="M62.8,114.5c0-0.4,0.3-0.8,0.6-1c0.3-0.2,0.6,0,0.6,0.3v0.5c0,0.4-0.3,0.8-0.6,1c-0.3,0.2-0.6,0-0.6-0.3V114.5
		z"/>
</g>
<g>
	<path class="st9" d="M62.8,111.7c0-0.4,0.3-0.8,0.6-1c0.3-0.2,0.6,0,0.6,0.3v0.5c0,0.4-0.3,0.8-0.6,1c-0.3,0.2-0.6,0-0.6-0.3V111.7
		z"/>
</g>
<g>
	<path class="st9" d="M62.8,108.8c0-0.4,0.3-0.8,0.6-1c0.3-0.2,0.6,0,0.6,0.3v0.5c0,0.4-0.3,0.8-0.6,1s-0.6,0-0.6-0.3V108.8z"/>
</g>
<g>
	<path class="st9" d="M62.8,106c0-0.4,0.3-0.8,0.6-1s0.6,0,0.6,0.3v0.5c0,0.4-0.3,0.8-0.6,1s-0.6,0-0.6-0.3V106z"/>
</g>
<g>
	<path class="st9" d="M51.5,119.2l6.1-3.6v0.8l-6.1,3.6V119.2z"/>
</g>
<g>
	<path class="st9" d="M49.9,120.2l0.9-0.6v0.8l-0.9,0.6V120.2z"/>
</g>
<g>
	<path class="st9" d="M47.1,121.8l2.1-1.3v0.8l-2.1,1.3V121.8z"/>
</g>
<g>
	<path class="st9" d="M53.6,116.2l6.5-3.9v0.8l-6.5,3.9V116.2z"/>
</g>
<g>
	<path class="st9" d="M52,117.2l0.9-0.6v0.8l-0.9,0.6V117.2z"/>
</g>
<g>
	<path class="st9" d="M50.3,118.2l0.9-0.6v0.8l-0.9,0.6V118.2z"/>
</g>
<g>
	<path class="st11" d="M48.7,119.2l0.9-0.6v0.8l-0.9,0.6V119.2z"/>
</g>
<g>
	<path class="st9" d="M47.1,120.2l0.9-0.6v0.8l-0.9,0.6V120.2z"/>
</g>
<g>
	<path class="st9" d="M53.1,114.8l5.4-3.2v0.8l-5.4,3.2V114.8z"/>
</g>
<g>
	<path class="st9" d="M47.1,118.5l5.4-3.2v0.8l-5.4,3.2V118.5z"/>
</g>
<g>
	<path class="st9" d="M57.5,110.5l2.6-1.5v0.8l-2.6,1.5V110.5z"/>
</g>
<g>
	<path class="st11" d="M50.6,114.7l6.3-3.8v0.8l-6.3,3.8V114.7z"/>
</g>
<g>
	<path class="st11" d="M47.1,116.8l2.8-1.7v0.8l-2.8,1.7V116.8z"/>
</g>
<g>
	<path class="st9" d="M54.3,110.8l3.7-2.2v0.8l-3.7,2.2V110.8z"/>
</g>
<g>
	<path class="st9" d="M47.1,115.1l6.5-3.9v0.8l-6.5,3.9V115.1z"/>
</g>
<g>
	
		<linearGradient id="SVGID_36_" gradientUnits="userSpaceOnUse" x1="43.782" y1="51.909" x2="43.782" y2="37.771" gradientTransform="matrix(1 0 0 -1 0 144)">
		<stop  offset="0" style="stop-color:#99DDFF"/>
		<stop  offset="1" style="stop-color:#99BBFF"/>
	</linearGradient>
	<path class="st42" d="M42.1,93c0.6-0.3,0.9-0.5,1.2-0.6c0.3-0.1,0.6-0.1,0.8,0c0.3,0.1,0.6,0.2,1.2,0.6l8.4,4.9
		c0.8,0.5,1.2,0.7,1.3,1c0.1,0.3,0.1,0.6,0,0.8c-0.1,0.3-0.5,0.5-1.4,1l-8.5,4.7c-0.6,0.3-0.9,0.5-1.2,0.5c-0.3,0.1-0.5,0.1-0.8,0
		c-0.3-0.1-0.6-0.2-1.2-0.5l-8.3-4.7c-0.8-0.4-1.2-0.7-1.3-1c-0.1-0.3-0.1-0.6,0-0.8c0.1-0.3,0.5-0.5,1.3-1L42.1,93z"/>
</g>
<g>
	
		<linearGradient id="SVGID_37_" gradientUnits="userSpaceOnUse" x1="43.6627" y1="77.3306" x2="43.6627" y2="44.704" gradientTransform="matrix(1 0 0 -1 0 144)">
		<stop  offset="0" style="stop-color:#FFFFFF;stop-opacity:0"/>
		<stop  offset="1" style="stop-color:#FFFFFF;stop-opacity:0.1"/>
	</linearGradient>
	<path class="st43" d="M30.6,70.8c-0.1-2.3,1.7-4.1,4-4.1h18.1c2.3,0,4.1,1.9,4,4.1l-0.9,26.3c0,1.4-0.8,2.6-2,3.3l-8.2,4.7
		c-1.2,0.7-2.7,0.7-4,0l-8.2-4.7c-1.2-0.7-2-2-2-3.3L30.6,70.8z"/>
</g>
<g class="st21">
	
		<linearGradient id="SVGID_38_" gradientUnits="userSpaceOnUse" x1="42.0314" y1="48.2386" x2="42.0314" y2="46.3354" gradientTransform="matrix(1 0 0 -1 0 144)">
		<stop  offset="0" style="stop-color:#E1E6F0"/>
		<stop  offset="1" style="stop-color:#939CCC"/>
	</linearGradient>
	<circle class="st44" cx="42" cy="96.7" r="1"/>
</g>
<g class="st21">
	
		<linearGradient id="SVGID_39_" gradientUnits="userSpaceOnUse" x1="47.877" y1="54.2206" x2="47.877" y2="52.0455" gradientTransform="matrix(1 0 0 -1 0 144)">
		<stop  offset="0" style="stop-color:#E1E6F0"/>
		<stop  offset="1" style="stop-color:#939CCC"/>
	</linearGradient>
	<ellipse class="st45" cx="47.9" cy="90.9" rx="1.1" ry="1.1"/>
</g>
<g class="st21">
	
		<linearGradient id="SVGID_40_" gradientUnits="userSpaceOnUse" x1="43.6627" y1="72.1645" x2="43.6627" y2="69.7175" gradientTransform="matrix(1 0 0 -1 0 144)">
		<stop  offset="0" style="stop-color:#E1E6F0"/>
		<stop  offset="1" style="stop-color:#939CCC"/>
	</linearGradient>
	<circle class="st46" cx="43.7" cy="73.1" r="1.2"/>
</g>
<g class="st21">
	
		<linearGradient id="SVGID_41_" gradientUnits="userSpaceOnUse" x1="44.4784" y1="62.6485" x2="44.4784" y2="60.2015" gradientTransform="matrix(1 0 0 -1 0 144)">
		<stop  offset="0" style="stop-color:#E1E6F0"/>
		<stop  offset="1" style="stop-color:#939CCC"/>
	</linearGradient>
	<ellipse class="st47" cx="44.5" cy="82.6" rx="1.2" ry="1.2"/>
</g>
<g class="st21">
	
		<linearGradient id="SVGID_42_" gradientUnits="userSpaceOnUse" x1="46.6535" y1="46.3357" x2="46.6535" y2="44.9763" gradientTransform="matrix(1 0 0 -1 0 144)">
		<stop  offset="0" style="stop-color:#E1E6F0"/>
		<stop  offset="1" style="stop-color:#939CCC"/>
	</linearGradient>
	<ellipse class="st48" cx="46.7" cy="98.3" rx="0.7" ry="0.7"/>
</g>
<g class="st21">
	
		<linearGradient id="SVGID_43_" gradientUnits="userSpaceOnUse" x1="48.5567" y1="66.9986" x2="48.5567" y2="65.0954" gradientTransform="matrix(1 0 0 -1 0 144)">
		<stop  offset="0" style="stop-color:#E1E6F0"/>
		<stop  offset="1" style="stop-color:#939CCC"/>
	</linearGradient>
	<circle class="st49" cx="48.6" cy="78" r="1"/>
</g>
<g class="st21">
	
		<linearGradient id="SVGID_44_" gradientUnits="userSpaceOnUse" x1="39.4485" y1="55.3077" x2="39.4485" y2="53.6763" gradientTransform="matrix(1 0 0 -1 0 144)">
		<stop  offset="0" style="stop-color:#E1E6F0"/>
		<stop  offset="1" style="stop-color:#939CCC"/>
	</linearGradient>
	<circle class="st50" cx="39.4" cy="89.5" r="0.8"/>
</g>
<g class="st21">
	
		<linearGradient id="SVGID_45_" gradientUnits="userSpaceOnUse" x1="39.1766" y1="63.7368" x2="39.1766" y2="62.6492" gradientTransform="matrix(1 0 0 -1 0 144)">
		<stop  offset="0" style="stop-color:#E1E6F0"/>
		<stop  offset="1" style="stop-color:#939CCC"/>
	</linearGradient>
	<ellipse class="st51" cx="39.2" cy="80.8" rx="0.5" ry="0.5"/>
</g>
<linearGradient id="SVGID_46_" gradientUnits="userSpaceOnUse" x1="99.1183" y1="51.4324" x2="133.5848" y2="28.3174" gradientTransform="matrix(1 0 0 -1 0 144)">
	<stop  offset="0" style="stop-color:#365FB3"/>
	<stop  offset="0.4552" style="stop-color:#471F99"/>
	<stop  offset="0.9346" style="stop-color:#5E1980"/>
</linearGradient>
<path class="st52" d="M92.9,93.1l22.2,12.8l22.4-12.8v18.8c0,1.2-0.6,2.2-1.6,2.8l-19,11.1c-1,0.6-2.3,0.6-3.3,0l-19-11.1
	c-1-0.6-1.6-1.7-1.6-2.8V93.1z"/>
<linearGradient id="SVGID_47_" gradientUnits="userSpaceOnUse" x1="92.7323" y1="41.6357" x2="137.3218" y2="31.9837" gradientTransform="matrix(1 0 0 -1 0 144)">
	<stop  offset="0" style="stop-color:#5C8AE6"/>
	<stop  offset="0.848" style="stop-color:#661F66"/>
</linearGradient>
<path class="st53" d="M92.7,92.8l22.3,12.9l22.6-12.9v19c0,1.2-0.6,2.3-1.7,2.9l-19,11.1c-1.1,0.6-2.4,0.6-3.4,0l-19-11.1
	c-1-0.6-1.7-1.7-1.7-2.9V92.8z M137.3,93.3L115,106L93,93.3v18.6c0,1.1,0.6,2.1,1.5,2.7l19,11.1c1,0.6,2.2,0.6,3.2,0l19-11.1
	c1-0.6,1.5-1.6,1.5-2.7V93.3z"/>
<path class="st2" d="M92.9,107.7l20.6,12.1c1,0.6,2.3,0.6,3.3,0l20.6-12.1v1.1l-20.1,11.8c-1.4,0.8-3,0.8-4.4,0l-20.1-11.8V107.7z"
	/>
<path class="st3" d="M92.9,108.6l20.4,11.9c1.2,0.7,2.7,0.7,3.8,0l20.4-11.9v0.3l-20.4,11.9c-1.2,0.7-2.7,0.7-3.8,0l-20.4-11.9
	V108.6z"/>
<linearGradient id="SVGID_48_" gradientUnits="userSpaceOnUse" x1="112.983" y1="31.094" x2="117.333" y2="31.094" gradientTransform="matrix(1 0 0 -1 0 144)">
	<stop  offset="0" style="stop-color:#000000;stop-opacity:0"/>
	<stop  offset="0.4996" style="stop-color:#000000;stop-opacity:0.1"/>
	<stop  offset="1" style="stop-color:#000000;stop-opacity:0"/>
</linearGradient>
<path class="st54" d="M113,99.3h4.3v27.2H113V99.3z"/>
<linearGradient id="SVGID_49_" gradientUnits="userSpaceOnUse" x1="96.9946" y1="42.6764" x2="133.4973" y2="59.1194" gradientTransform="matrix(1 0 0 -1 0 144)">
	<stop  offset="0" style="stop-color:#527ACC"/>
	<stop  offset="1" style="stop-color:#7A3D99"/>
</linearGradient>
<path class="st55" d="M113.9,80.4c0.7-0.4,1.5-0.4,2.2,0l20.9,12c0.7,0.4,0.7,1.5,0,1.9L116.1,106c-0.7,0.4-1.5,0.4-2.1,0L93.3,94.3
	c-0.7-0.4-0.7-1.5,0-1.9L113.9,80.4z"/>
<linearGradient id="SVGID_50_" gradientUnits="userSpaceOnUse" x1="110.1742" y1="33.353" x2="120.1736" y2="68.1807" gradientTransform="matrix(1 0 0 -1 0 144)">
	<stop  offset="0" style="stop-color:#66CCFF"/>
	<stop  offset="1" style="stop-color:#991F99"/>
</linearGradient>
<path class="st56" d="M113.9,80.2c0.7-0.4,1.6-0.4,2.3,0l20.9,12c0.8,0.5,0.8,1.7,0,2.1l-20.9,11.8c-0.7,0.4-1.6,0.4-2.3,0
	L93.2,94.4c-0.8-0.5-0.8-1.6,0-2.1L113.9,80.2z M116,80.5c-0.6-0.4-1.4-0.4-2,0l-20.7,12c-0.6,0.4-0.6,1.3,0,1.6l20.7,11.8
	c0.6,0.4,1.4,0.4,2,0l20.9-11.8c0.6-0.4,0.6-1.3,0-1.7L116,80.5z"/>
<path class="st7" d="M114.8,85.6c0.1,0,0.1-0.1,0.2-0.1c0,0,0.1,0,0.1,0c0,0,0.1,0,0.2,0.1l13,7.4c0.2,0.1,0.3,0.2,0.4,0.3
	c0,0.1,0,0.2,0,0.2c0,0.1-0.1,0.1-0.4,0.3l-13,7.1c-0.1,0-0.1,0.1-0.2,0.1c0,0-0.1,0-0.1,0c0,0-0.1,0-0.2-0.1l-12.7-7.1
	c-0.2-0.1-0.3-0.2-0.4-0.3c0-0.1,0-0.2,0-0.2c0-0.1,0.1-0.1,0.4-0.3L114.8,85.6z"/>
<linearGradient id="SVGID_51_" gradientUnits="userSpaceOnUse" x1="103.6506" y1="45.7517" x2="126.7636" y2="56.0207" gradientTransform="matrix(1 0 0 -1 0 144)">
	<stop  offset="0" style="stop-color:#334466"/>
	<stop  offset="1" style="stop-color:#3D1F4D"/>
</linearGradient>
<path class="st57" d="M114.8,84.8c0.1,0,0.3,0,0.4,0c0.2,0,0.3,0.1,0.3,0.1c0,0,0,0,0,0l13,7.4c0.1,0.1,0.2,0.1,0.3,0.2
	c0.1,0.1,0.3,0.2,0.3,0.4c0.1,0.2,0.1,0.5,0,0.8c-0.1,0.2-0.3,0.3-0.4,0.4c-0.1,0.1-0.2,0.1-0.3,0.2l-13,7.1c0,0,0,0,0,0
	c-0.1,0-0.2,0.1-0.3,0.1c-0.1,0-0.3,0-0.4,0c-0.2,0-0.3-0.1-0.3-0.1c0,0,0,0,0,0l-12.7-7.1c0,0,0,0,0,0c-0.1-0.1-0.2-0.1-0.3-0.2
	c-0.1-0.1-0.3-0.2-0.3-0.4c-0.1-0.2-0.1-0.5,0-0.8c0.1-0.2,0.3-0.3,0.3-0.4c0.1-0.1,0.2-0.1,0.3-0.2c0,0,0,0,0,0l12.7-7.4
	c0,0,0,0,0,0C114.5,84.9,114.7,84.9,114.8,84.8z M115,86.2l-12.2,7.1l12.2,6.8l12.5-6.8L115,86.2z"/>
<path class="st9" d="M96.7,101.2c0-0.4,0.3-0.6,0.7-0.4c0.4,0.2,0.7,0.7,0.7,1.2v4.8c0,0.4-0.3,0.6-0.7,0.4
	c-0.4-0.2-0.7-0.7-0.7-1.2V101.2z"/>
<path class="st10" d="M97.4,107.1c0.3,0.2,0.6,0.1,0.7-0.1c-0.1,0-0.2,0-0.3-0.1c-0.4-0.2-0.7-0.7-0.7-1.2v-4.8c0-0.1,0-0.2,0-0.2
	c-0.2,0-0.4,0.2-0.4,0.5v4.8C96.7,106.4,97,106.9,97.4,107.1z"/>
<path class="st9" d="M100.2,103.1c0-0.4,0.3-0.6,0.7-0.4c0.4,0.2,0.7,0.7,0.7,1.2v4.8c0,0.4-0.3,0.6-0.7,0.4
	c-0.4-0.2-0.7-0.7-0.7-1.2V103.1z"/>
<path class="st10" d="M100.9,109c0.3,0.2,0.6,0.1,0.7-0.1c-0.1,0-0.2,0-0.3-0.1c-0.4-0.2-0.7-0.7-0.7-1.2v-4.8c0-0.1,0-0.2,0-0.2
	c-0.2,0-0.4,0.2-0.4,0.5v4.8C100.2,108.3,100.5,108.8,100.9,109z"/>
<path class="st9" d="M103.7,105.2c0-0.4,0.3-0.6,0.7-0.4c0.4,0.2,0.7,0.7,0.7,1.2v4.8c0,0.4-0.3,0.6-0.7,0.4
	c-0.4-0.2-0.7-0.7-0.7-1.2V105.2z"/>
<path class="st10" d="M104.4,111.2c0.3,0.2,0.6,0.1,0.7-0.1c-0.1,0-0.2,0-0.3-0.1c-0.4-0.2-0.7-0.7-0.7-1.2V105c0-0.1,0-0.2,0-0.2
	c-0.2,0-0.4,0.2-0.4,0.5v4.8C103.7,110.4,104.1,111,104.4,111.2z"/>
<path class="st7" d="M107.3,107.1c0-0.4,0.3-0.6,0.7-0.4c0.4,0.2,0.7,0.7,0.7,1.2v4.8c0,0.4-0.3,0.6-0.7,0.4
	c-0.4-0.2-0.7-0.7-0.7-1.2V107.1z"/>
<path class="st58" d="M108,113.1c0.3,0.2,0.6,0.1,0.7-0.1c-0.1,0-0.2,0-0.3-0.1c-0.4-0.2-0.7-0.7-0.7-1.2v-4.8c0-0.1,0-0.2,0-0.2
	c-0.2,0-0.4,0.2-0.4,0.5v4.8C107.3,112.3,107.6,112.9,108,113.1z"/>
<g>
	<path class="st7" d="M129.3,116c0,0.3-0.2,0.7-0.5,0.8c-0.3,0.2-0.5,0-0.5-0.3c0-0.3,0.2-0.7,0.5-0.8
		C129.1,115.5,129.3,115.7,129.3,116z"/>
</g>
<g>
	<path class="st7" d="M127.9,116.8c0,0.3-0.2,0.7-0.5,0.8c-0.3,0.2-0.5,0-0.5-0.3c0-0.3,0.2-0.7,0.5-0.8
		C127.7,116.4,127.9,116.5,127.9,116.8z"/>
</g>
<g>
	<path class="st7" d="M126.5,117.7c0,0.3-0.2,0.7-0.5,0.8c-0.3,0.2-0.5,0-0.5-0.3c0-0.3,0.2-0.7,0.5-0.8
		C126.2,117.2,126.5,117.4,126.5,117.7z"/>
</g>
<g>
	<path class="st7" d="M125,118.5c0,0.3-0.2,0.7-0.5,0.8c-0.3,0.2-0.5,0-0.5-0.3c0-0.3,0.2-0.7,0.5-0.8
		C124.8,118.1,125,118.2,125,118.5z"/>
</g>
<g>
	<path class="st9" d="M123.6,119.4c0,0.3-0.2,0.7-0.5,0.8c-0.3,0.2-0.5,0-0.5-0.3c0-0.3,0.2-0.7,0.5-0.8S123.6,119.1,123.6,119.4z"
		/>
</g>
<g>
	<path class="st9" d="M122.2,120.2c0,0.3-0.2,0.7-0.5,0.8c-0.3,0.2-0.5,0-0.5-0.3c0-0.3,0.2-0.7,0.5-0.8
		C122,119.8,122.2,119.9,122.2,120.2z"/>
</g>
<g>
	<path class="st9" d="M120.8,121.1c0,0.3-0.2,0.7-0.5,0.8c-0.3,0.2-0.5,0-0.5-0.3c0-0.3,0.2-0.7,0.5-0.8
		C120.6,120.6,120.8,120.8,120.8,121.1z"/>
</g>
<g>
	<path class="st9" d="M119.4,121.9c0,0.3-0.2,0.7-0.5,0.8c-0.3,0.2-0.5,0-0.5-0.3c0-0.3,0.2-0.7,0.5-0.8
		C119.2,121.5,119.4,121.6,119.4,121.9z"/>
</g>
<g>
	<path class="st9" d="M134.2,105.7c0-0.4,0.3-0.8,0.6-1c0.3-0.2,0.6,0,0.6,0.3v0.5c0,0.4-0.3,0.8-0.6,1c-0.3,0.2-0.6,0-0.6-0.3
		V105.7z"/>
</g>
<g>
	<path class="st9" d="M134.2,102.8c0-0.4,0.3-0.8,0.6-1c0.3-0.2,0.6,0,0.6,0.3v0.5c0,0.4-0.3,0.8-0.6,1c-0.3,0.2-0.6,0-0.6-0.3
		V102.8z"/>
</g>
<g>
	<path class="st9" d="M134.2,100c0-0.4,0.3-0.8,0.6-1c0.3-0.2,0.6,0,0.6,0.3v0.5c0,0.4-0.3,0.8-0.6,1c-0.3,0.2-0.6,0-0.6-0.3V100z"
		/>
</g>
<g>
	<path class="st7" d="M124.9,110.3l6.5-3.9v0.8l-6.5,3.9V110.3z"/>
</g>
<g>
	<path class="st7" d="M123.3,111.3l0.9-0.6v0.8l-0.9,0.6V111.3z"/>
</g>
<g>
	<path class="st9" d="M121.7,112.2l0.9-0.6v0.8l-0.9,0.6V112.2z"/>
</g>
<g>
	<path class="st11" d="M120.1,113.2l0.9-0.6v0.8l-0.9,0.6V113.2z"/>
</g>
<g>
	<path class="st9" d="M118.4,114.2l0.9-0.6v0.8l-0.9,0.6V114.2z"/>
</g>
<g>
	<path class="st9" d="M124.5,108.9l5.4-3.2v0.8l-5.4,3.2V108.9z"/>
</g>
<g>
	<path class="st9" d="M118.4,112.5l5.4-3.2v0.8l-5.4,3.2V112.5z"/>
</g>
<g>
	<path class="st9" d="M128.9,104.5l2.6-1.5v0.8l-2.6,1.5V104.5z"/>
</g>
<g>
	<path class="st11" d="M121.9,108.7l6.3-3.8v0.8l-6.3,3.8V108.7z"/>
</g>
<g>
	<path class="st11" d="M118.4,110.8l2.8-1.7v0.8l-2.8,1.7V110.8z"/>
</g>
<g>
	<path class="st9" d="M125.6,104.8l3.7-2.2v0.8l-3.7,2.2V104.8z"/>
</g>
<g>
	<path class="st9" d="M118.4,109.2l6.5-3.9v0.8l-6.5,3.9V109.2z"/>
</g>
<g>
	
		<linearGradient id="SVGID_52_" gradientUnits="userSpaceOnUse" x1="115.1414" y1="57.875" x2="115.1414" y2="43.737" gradientTransform="matrix(1 0 0 -1 0 144)">
		<stop  offset="0" style="stop-color:#99DDFF"/>
		<stop  offset="1" style="stop-color:#99BBFF"/>
	</linearGradient>
	<path class="st59" d="M113.4,87.1c0.6-0.3,0.9-0.5,1.2-0.6c0.3-0.1,0.6-0.1,0.8,0c0.3,0.1,0.6,0.2,1.2,0.6l8.4,4.9
		c0.8,0.5,1.2,0.7,1.3,1c0.1,0.3,0.1,0.6,0,0.8c-0.1,0.3-0.5,0.5-1.4,1l-8.5,4.7c-0.6,0.3-0.9,0.5-1.2,0.5c-0.3,0.1-0.5,0.1-0.8,0
		c-0.3-0.1-0.6-0.2-1.2-0.5l-8.3-4.7c-0.8-0.4-1.2-0.7-1.3-1c-0.1-0.3-0.1-0.6,0-0.8c0.1-0.3,0.5-0.5,1.3-1L113.4,87.1z"/>
</g>
<linearGradient id="SVGID_53_" gradientUnits="userSpaceOnUse" x1="92.0113" y1="18.651" x2="92.0113" y2="3.757" gradientTransform="matrix(1 0 0 -1 0 144)">
	<stop  offset="0" style="stop-color:#1F2E4D"/>
	<stop  offset="1" style="stop-color:#0E081A"/>
</linearGradient>
<path class="st60" d="M70.6,112.6l21.3,12.3l21.5-12.3v13.9c0,1.1-0.6,2.1-1.5,2.7l-18.3,10.7c-1,0.6-2.2,0.6-3.2,0l-18.3-10.7
	c-1-0.6-1.5-1.6-1.5-2.7V112.6z"/>
<linearGradient id="SVGID_54_" gradientUnits="userSpaceOnUse" x1="69.8517" y1="16.8218" x2="91.2413" y2="18.2568" gradientTransform="matrix(1 0 0 -1 0 144)">
	<stop  offset="0" style="stop-color:#4D403D"/>
	<stop  offset="1" style="stop-color:#524766;stop-opacity:0.3"/>
</linearGradient>
<path class="st61" d="M70.6,112.6l21.3,12.3l21.5-12.3v13.9c0,1.1-0.6,2.1-1.5,2.7l-18.3,10.7c-1,0.6-2.2,0.6-3.2,0l-18.3-10.7
	c-1-0.6-1.5-1.6-1.5-2.7V112.6z"/>
<linearGradient id="SVGID_55_" gradientUnits="userSpaceOnUse" x1="70.0643" y1="24.6832" x2="112.8437" y2="15.4232" gradientTransform="matrix(1 0 0 -1 0 144)">
	<stop  offset="0" style="stop-color:#5C8AE6"/>
	<stop  offset="0.848" style="stop-color:#661F66"/>
</linearGradient>
<path class="st62" d="M70.5,112.3l21.4,12.3l21.7-12.3v14.1c0,1.2-0.6,2.2-1.6,2.8l-18.3,10.7c-1,0.6-2.3,0.6-3.3,0l-18.3-10.7
	c-1-0.6-1.6-1.7-1.6-2.8V112.3z M113.3,112.8L91.9,125l-21.1-12.2v13.6c0,1.1,0.6,2.1,1.5,2.6l18.3,10.7c0.9,0.5,2.1,0.5,3,0
	l18.3-10.7c0.9-0.5,1.5-1.5,1.5-2.6V112.8z"/>
<path class="st2" d="M70.6,122.5l19.8,11.6c1,0.6,2.2,0.6,3.2,0l19.8-11.6v1l-19.3,11.3c-1.3,0.8-2.9,0.8-4.2,0l-19.3-11.3V122.5z"
	/>
<path class="st3" d="M70.6,123.3l19.5,11.4c1.1,0.7,2.6,0.7,3.7,0l19.5-11.4v0.3L93.9,135c-1.1,0.7-2.6,0.7-3.7,0l-19.5-11.4V123.3z
	"/>
<linearGradient id="SVGID_56_" gradientUnits="userSpaceOnUse" x1="89.9243" y1="16.5635" x2="94.0979" y2="16.5635" gradientTransform="matrix(1 0 0 -1 0 144)">
	<stop  offset="0" style="stop-color:#000000;stop-opacity:0"/>
	<stop  offset="0.4996" style="stop-color:#000000;stop-opacity:0.1"/>
	<stop  offset="1" style="stop-color:#000000;stop-opacity:0"/>
</linearGradient>
<path class="st63" d="M89.9,114.4h4.2v26.1h-4.2V114.4z"/>
<path class="st64" d="M90.8,100.4c0.6-0.4,1.4-0.4,2.1,0l20.1,11.5c0.7,0.4,0.7,1.4,0,1.8L92.9,125c-0.6,0.4-1.4,0.4-2.1,0L71,113.7
	c-0.7-0.4-0.7-1.4,0-1.8L90.8,100.4z"/>
<linearGradient id="SVGID_57_" gradientUnits="userSpaceOnUse" x1="87.2292" y1="14.5568" x2="96.8229" y2="47.9708" gradientTransform="matrix(1 0 0 -1 0 144)">
	<stop  offset="0" style="stop-color:#66CCFF"/>
	<stop  offset="1" style="stop-color:#991F99"/>
</linearGradient>
<path class="st65" d="M90.8,100.3c0.7-0.4,1.5-0.4,2.2,0l20.1,11.5c0.8,0.5,0.8,1.6,0,2L93,125.1c-0.7,0.4-1.5,0.4-2.2,0L71,113.8
	c-0.8-0.4-0.8-1.6,0-2L90.8,100.3z M92.9,100.5c-0.6-0.3-1.4-0.3-2,0L71.1,112c-0.6,0.4-0.6,1.2,0,1.6l19.8,11.3
	c0.6,0.3,1.3,0.3,1.9,0l20.1-11.3c0.6-0.3,0.6-1.2,0-1.6L92.9,100.5z"/>
<path class="st9" d="M74.3,119.3c0-0.4,0.3-0.6,0.7-0.4c0.4,0.2,0.7,0.7,0.7,1.1v2.5c0,0.4-0.3,0.6-0.7,0.4
	c-0.4-0.2-0.7-0.7-0.7-1.1V119.3z"/>
<path class="st58" d="M74.9,122.9c0.3,0.2,0.5,0.1,0.6-0.1c-0.1,0-0.2,0-0.3-0.1c-0.4-0.2-0.7-0.7-0.7-1.1v-2.5c0-0.1,0-0.2,0-0.2
	c-0.2,0-0.4,0.2-0.4,0.5v2.5C74.3,122.2,74.6,122.7,74.9,122.9z"/>
<path class="st9" d="M77.7,121.1c0-0.4,0.3-0.6,0.7-0.4c0.4,0.2,0.7,0.7,0.7,1.1v2.5c0,0.4-0.3,0.6-0.7,0.4
	c-0.4-0.2-0.7-0.7-0.7-1.1V121.1z"/>
<path class="st58" d="M78.3,124.7c0.3,0.2,0.5,0.1,0.6-0.1c-0.1,0-0.2,0-0.3-0.1c-0.4-0.2-0.7-0.7-0.7-1.1v-2.5c0-0.1,0-0.2,0-0.2
	c-0.2,0-0.4,0.2-0.4,0.5v2.5C77.7,124,78,124.5,78.3,124.7z"/>
<path class="st9" d="M81.1,123.2c0-0.4,0.3-0.6,0.7-0.4c0.4,0.2,0.7,0.7,0.7,1.1v2.5c0,0.4-0.3,0.6-0.7,0.4
	c-0.4-0.2-0.7-0.7-0.7-1.1V123.2z"/>
<path class="st58" d="M81.7,126.8c0.3,0.2,0.5,0.1,0.6-0.1c-0.1,0-0.2,0-0.3-0.1c-0.4-0.2-0.7-0.7-0.7-1.1V123c0-0.1,0-0.2,0-0.2
	c-0.2,0-0.4,0.2-0.4,0.5v2.5C81.1,126.1,81.4,126.6,81.7,126.8z"/>
<path class="st7" d="M84.4,125c0-0.4,0.3-0.6,0.7-0.4c0.4,0.2,0.7,0.7,0.7,1.1v2.5c0,0.4-0.3,0.6-0.7,0.4c-0.4-0.2-0.7-0.7-0.7-1.1
	V125z"/>
<path class="st58" d="M85.1,128.7c0.3,0.2,0.5,0.1,0.6-0.1c-0.1,0-0.2,0-0.3-0.1c-0.4-0.2-0.7-0.7-0.7-1.1v-2.5c0-0.1,0-0.2,0-0.2
	c-0.2,0-0.4,0.2-0.4,0.5v2.5C84.4,127.9,84.7,128.4,85.1,128.7z"/>
<g>
	<path class="st7" d="M105.6,130.4c0,0.3-0.2,0.7-0.5,0.8c-0.3,0.1-0.5,0-0.5-0.3c0-0.3,0.2-0.7,0.5-0.8
		C105.4,130,105.6,130.1,105.6,130.4z"/>
</g>
<g>
	<path class="st7" d="M104.2,131.2c0,0.3-0.2,0.7-0.5,0.8c-0.3,0.2-0.5,0-0.5-0.3c0-0.3,0.2-0.7,0.5-0.8
		C104,130.8,104.2,130.9,104.2,131.2z"/>
</g>
<g>
	<path class="st66" d="M102.9,132c0,0.3-0.2,0.7-0.5,0.8c-0.3,0.1-0.5,0-0.5-0.3c0-0.3,0.2-0.7,0.5-0.8
		C102.7,131.6,102.9,131.7,102.9,132z"/>
</g>
<g>
	<path class="st9" d="M101.5,132.8c0,0.3-0.2,0.7-0.5,0.8c-0.3,0.1-0.5,0-0.5-0.3c0-0.3,0.2-0.7,0.5-0.8
		C101.3,132.4,101.5,132.5,101.5,132.8z"/>
</g>
<g>
	<path class="st9" d="M100.1,133.6c0,0.3-0.2,0.7-0.5,0.8c-0.3,0.2-0.5,0-0.5-0.3s0.2-0.7,0.5-0.8
		C99.9,133.2,100.1,133.3,100.1,133.6z"/>
</g>
<g>
	<path class="st9" d="M98.8,134.4c0,0.3-0.2,0.7-0.5,0.8c-0.3,0.1-0.5,0-0.5-0.3s0.2-0.7,0.5-0.8C98.6,134,98.8,134.2,98.8,134.4z"
		/>
</g>
<g>
	<path class="st9" d="M97.4,135.3c0,0.3-0.2,0.7-0.5,0.8c-0.3,0.1-0.5,0-0.5-0.3c0-0.3,0.2-0.7,0.5-0.8
		C97.2,134.8,97.4,135,97.4,135.3z"/>
</g>
<g>
	<path class="st9" d="M96,136.1c0,0.3-0.2,0.7-0.5,0.8c-0.3,0.1-0.5,0-0.5-0.3c0-0.3,0.2-0.7,0.5-0.8C95.8,135.7,96,135.8,96,136.1z
		"/>
</g>
<g>
	<path class="st7" d="M110.3,121.2c0-0.4,0.3-0.8,0.6-1c0.3-0.2,0.6,0,0.6,0.3v0.5c0,0.4-0.3,0.8-0.6,1c-0.3,0.2-0.6,0-0.6-0.3
		V121.2z"/>
</g>
<g>
	<path class="st7" d="M110.3,118.4c0-0.4,0.3-0.8,0.6-1c0.3-0.2,0.6,0,0.6,0.3v0.5c0,0.4-0.3,0.8-0.6,1c-0.3,0.2-0.6,0-0.6-0.3
		V118.4z"/>
</g>
<g>
	<path class="st7" d="M98.5,126.6l6-3.6v0.8l-6,3.6V126.6z"/>
</g>
<g>
	<path class="st66" d="M95.1,128.6l2.7-1.6v0.8l-2.7,1.6V128.6z"/>
</g>
<g>
	<path class="st7" d="M102.1,122.8l3.6-2.1v0.8l-3.6,2.1V122.8z"/>
</g>
<g>
	<path class="st9" d="M95.1,127l6.3-3.8v0.8l-6.3,3.8V127z"/>
</g>
<ellipse class="st67" cx="91.8" cy="112.6" rx="9.6" ry="5.5"/>
<g>
	<path class="st68" d="M98.7,108.3c0.1,0,0.2,0.1,0.2,0.1c0.1,0,0.2,0.1,0.2,0.1c0.2,0.1,0.2,0.4,0,0.5c-0.3,0.1-0.7,0.1-0.9,0
		c-0.1,0-0.1-0.1-0.2-0.1c-0.1,0-0.1-0.1-0.2-0.1c-0.3-0.1-0.3-0.4,0-0.5C98.1,108.1,98.5,108.1,98.7,108.3z M99.8,109.6
		c0.3-0.1,0.7,0,0.9,0.1c0.1,0.1,0.2,0.2,0.3,0.3c0.2,0.2,0,0.4-0.3,0.5c-0.3,0.1-0.7,0-0.9-0.2c-0.1-0.1-0.2-0.2-0.3-0.3
		C99.4,109.9,99.5,109.7,99.8,109.6z M101,111.2c0.3,0,0.7,0.1,0.7,0.3c0,0.1,0.1,0.2,0.1,0.4c0,0.2-0.2,0.4-0.6,0.4
		c-0.3,0-0.7-0.1-0.7-0.3c0-0.1-0.1-0.2-0.1-0.3C100.5,111.4,100.7,111.2,101,111.2z M101.3,112.9c0.4,0,0.6,0.2,0.6,0.4
		c0,0.1-0.1,0.2-0.1,0.4c-0.1,0.2-0.4,0.3-0.7,0.3c-0.3,0-0.6-0.2-0.5-0.4c0-0.1,0.1-0.2,0.1-0.3C100.7,113,101,112.9,101.3,112.9z
		 M100.7,114.6c0.3,0.1,0.5,0.3,0.3,0.5c-0.1,0.1-0.2,0.2-0.3,0.3c-0.2,0.2-0.6,0.2-0.9,0.1c-0.3-0.1-0.4-0.3-0.3-0.5
		c0.1-0.1,0.2-0.2,0.3-0.3C100,114.6,100.4,114.5,100.7,114.6z M99.2,116.1c0.3,0.1,0.3,0.4,0,0.5c-0.1,0-0.1,0.1-0.2,0.1
		c-0.1,0-0.2,0.1-0.2,0.1c-0.3,0.1-0.7,0.1-0.9,0c-0.2-0.1-0.2-0.4,0-0.5c0.1,0,0.1-0.1,0.2-0.1c0.1,0,0.1-0.1,0.2-0.1
		C98.5,116,98.9,115.9,99.2,116.1z M96.9,117.2c0.2,0.2,0.1,0.4-0.3,0.5c-0.2,0.1-0.4,0.1-0.6,0.2c-0.3,0.1-0.7,0-0.9-0.2
		c-0.2-0.2,0-0.4,0.3-0.5c0.2,0,0.3-0.1,0.5-0.1C96.4,117,96.8,117.1,96.9,117.2z M94.2,117.9c0.1,0.2-0.2,0.4-0.5,0.4
		c-0.2,0-0.4,0-0.6,0.1c-0.4,0-0.7-0.1-0.7-0.3c0-0.2,0.2-0.4,0.6-0.4c0.2,0,0.4,0,0.6-0.1C93.8,117.6,94.1,117.7,94.2,117.9z"/>
</g>
<g>
	<path class="st68" d="M92.1,116.6c-1.9,0.1-4-0.3-5.6-1.3l-0.1-0.1l0.6-1c0,0,0.1-0.1,0.1-0.1c0.2-0.1,0.5-0.1,0.6,0l0,0
		L92.1,116.6z M91.8,115.4l6.1-0.9l-0.1,0.1c-0.4,0.4-1.9,1.7-5,2l-0.1,0l-1.2-0.7c-0.1,0-0.1-0.1-0.1-0.1
		C91.4,115.6,91.5,115.5,91.8,115.4L91.8,115.4z M90.3,108.6l0.2,0.1c3.5,1.9,4.5,2.8,3.5,3.3c-0.2,0.1,0.3,0.2,0.4,0.7
		c0.1,0.5,0.1,0.9-0.9,1.4l-0.1,0c0,0,0.3-0.9-2.5-1.7c-0.2-0.1,1.8,0.9,1.2,1.5c-0.5-0.9-2.1-1.5-3.4-1.4c-1.3,0.1-2.2,0.8-2.7,2.4
		c-0.5-0.4-0.8-0.8-1-1.3l0,0c0.1-0.3,0.5-1,2.1-1.8l-0.1,0c-0.2,0-1.1,0.2-2.3,1.1c-0.1-0.6,0.1-1.2,0.5-1.8
		c0.6-0.2,2.1-0.5,3.4-0.3c-0.6-0.2-3-0.1-3-0.1l0.1-0.1c0.3-0.3,0.9-0.8,1.8-1.2c0.5,0,1.6,0.2,2.6,0.5c-0.9-0.6-2.1-0.7-2.1-0.7
		C89.5,108.6,90.3,108.6,90.3,108.6z M92,110.8L92,110.8c-0.5,0.3-0.2,0.7,0.1,0.8c0.3,0.2,1,0.1,1,0.1
		C92.8,111.4,92.2,111,92,110.8z M97.7,110.4c1.2,1.1,1.5,2.5,0.6,3.7l0,0.1l-1.7,0.2c-0.1,0-0.2,0-0.2,0c-0.2,0-0.4-0.2-0.3-0.3
		l0,0L97.7,110.4z M91.1,108.5c2-0.1,4.3,0.3,6,1.4l0.1,0.1l-0.5,1.1c0,0-0.1,0.1-0.1,0.1c-0.2,0.1-0.5,0.1-0.6,0l0,0L91.1,108.5z"
		/>
</g>
</svg>
