<?xml version="1.0" encoding="utf-8"?>
<!-- Generator: Adobe Illustrator 24.0.2, SVG Export Plug-In . SVG Version: 6.00 Build 0)  -->
<svg version="1.1" id="Layer_1" xmlns="http://www.w3.org/2000/svg" xmlns:xlink="http://www.w3.org/1999/xlink" x="0px" y="0px"
	 viewBox="0 0 143 143" style="enable-background:new 0 0 143 143;" xml:space="preserve">
<style type="text/css">
	.st0{fill:url(#SVGID_1_);}
	.st1{fill-rule:evenodd;clip-rule:evenodd;fill:url(#SVGID_2_);}
	.st2{fill-opacity:0.3;}
	.st3{fill:#FFFFFF;fill-opacity:0.2;}
	.st4{fill:url(#SVGID_3_);}
	.st5{fill:url(#SVGID_4_);}
	.st6{fill-rule:evenodd;clip-rule:evenodd;fill:url(#SVGID_5_);}
	.st7{fill-opacity:0.2;}
	.st8{fill-rule:evenodd;clip-rule:evenodd;fill:url(#SVGID_6_);}
	.st9{fill:#1AD9FF;}
	.st10{fill-rule:evenodd;clip-rule:evenodd;fill-opacity:0.5;}
	.st11{fill:#FFC34D;}
	.st12{fill:url(#SVGID_7_);}
	.st13{fill:url(#SVGID_8_);}
	.st14{opacity:0.5;}
	.st15{fill:url(#SVGID_9_);}
	.st16{fill:url(#SVGID_10_);}
	.st17{fill:url(#SVGID_11_);}
	.st18{fill:url(#SVGID_12_);}
	.st19{fill:url(#SVGID_13_);}
	.st20{fill:url(#SVGID_14_);}
	.st21{fill:url(#SVGID_15_);}
	.st22{fill:url(#SVGID_16_);}
	.st23{fill:url(#SVGID_17_);}
	.st24{fill-rule:evenodd;clip-rule:evenodd;fill:url(#SVGID_18_);}
	.st25{fill:url(#SVGID_19_);}
	.st26{fill:url(#SVGID_20_);}
	.st27{fill-rule:evenodd;clip-rule:evenodd;fill:url(#SVGID_21_);}
	.st28{fill-rule:evenodd;clip-rule:evenodd;fill:url(#SVGID_22_);}
	.st29{fill:url(#SVGID_23_);}
	.st30{fill:url(#SVGID_24_);}
	.st31{fill:url(#SVGID_25_);}
	.st32{fill:url(#SVGID_26_);}
	.st33{fill:url(#SVGID_27_);}
	.st34{fill:url(#SVGID_28_);}
	.st35{fill:url(#SVGID_29_);}
	.st36{fill:url(#SVGID_30_);}
	.st37{fill:url(#SVGID_31_);}
	.st38{fill:url(#SVGID_32_);}
	.st39{fill:url(#SVGID_33_);}
	.st40{fill-rule:evenodd;clip-rule:evenodd;fill:url(#SVGID_34_);}
	.st41{fill:url(#SVGID_35_);}
	.st42{fill:url(#SVGID_36_);}
	.st43{fill-rule:evenodd;clip-rule:evenodd;fill:url(#SVGID_37_);}
	.st44{fill-rule:evenodd;clip-rule:evenodd;fill:url(#SVGID_38_);}
	.st45{fill-rule:evenodd;clip-rule:evenodd;fill-opacity:0.2;}
	.st46{fill:url(#SVGID_39_);}
	.st47{fill:url(#SVGID_40_);}
	.st48{fill:url(#SVGID_41_);}
	.st49{fill-rule:evenodd;clip-rule:evenodd;fill:url(#SVGID_42_);}
	.st50{fill:url(#SVGID_43_);}
	.st51{fill:#242433;}
	.st52{fill-rule:evenodd;clip-rule:evenodd;fill:url(#SVGID_44_);}
	.st53{fill:#F54C18;}
	
		.st54{fill:none;stroke:#000000;stroke-width:4;stroke-linecap:round;stroke-linejoin:round;stroke-opacity:0.2;stroke-dasharray:2,8;}
	.st55{fill-rule:evenodd;clip-rule:evenodd;fill:#1AD9FF;}
</style>
<linearGradient id="SVGID_1_" gradientUnits="userSpaceOnUse" x1="53.1907" y1="96.4737" x2="96.6413" y2="67.3346" gradientTransform="matrix(1 0 0 -1 0 144)">
	<stop  offset="0" style="stop-color:#365FB3"/>
	<stop  offset="0.4552" style="stop-color:#471F99"/>
	<stop  offset="0.9346" style="stop-color:#5E1980"/>
</linearGradient>
<path class="st0" d="M43.4,42.8l27.9,16.1l28.3-16.1v31.9c0,1.5-0.8,2.8-2,3.5l-24,14c-1.3,0.8-2.9,0.8-4.2,0l-24-14
	c-1.3-0.7-2-2.1-2-3.5V42.8z"/>
<linearGradient id="SVGID_2_" gradientUnits="userSpaceOnUse" x1="44.0883" y1="85.2152" x2="100.2997" y2="73.0475" gradientTransform="matrix(1 0 0 -1 0 144)">
	<stop  offset="0" style="stop-color:#5C8AE6"/>
	<stop  offset="0.848" style="stop-color:#661F66"/>
</linearGradient>
<path class="st1" d="M43.2,42.5l28.1,16.2l28.4-16.2v32.2c0,1.5-0.8,2.9-2.1,3.7l-24,14c-1.3,0.8-3,0.8-4.3,0l-24-14
	c-1.3-0.8-2.1-2.2-2.1-3.7V42.5z M99.4,43.1l-28.1,16l-27.8-16v31.6c0,1.4,0.7,2.7,2,3.4l24,14c1.2,0.7,2.8,0.7,4,0l24-14
	c1.2-0.7,2-2,2-3.4V43.1z"/>
<path class="st2" d="M43.4,69.5l26,15.2c1.3,0.8,2.9,0.8,4.2,0l26-15.2v1.4L74.3,85.7c-1.7,1-3.8,1-5.5,0L43.4,70.9V69.5z"/>
<path class="st3" d="M43.4,70.5l25.7,15c1.5,0.9,3.4,0.9,4.8,0l25.7-15v0.3l-25.7,15c-1.5,0.9-3.4,0.9-4.8,0l-25.7-15V70.5z"/>
<linearGradient id="SVGID_3_" gradientUnits="userSpaceOnUse" x1="68.7669" y1="67.9977" x2="74.2509" y2="67.9977" gradientTransform="matrix(1 0 0 -1 0 144)">
	<stop  offset="0" style="stop-color:#000000;stop-opacity:0"/>
	<stop  offset="0.4996" style="stop-color:#000000;stop-opacity:0.1"/>
	<stop  offset="1" style="stop-color:#000000;stop-opacity:0"/>
</linearGradient>
<path class="st4" d="M68.8,58.9h5.5v34.3h-5.5V58.9z"/>
<linearGradient id="SVGID_4_" gradientUnits="userSpaceOnUse" x1="48.6111" y1="90.8244" x2="94.6283" y2="111.5531" gradientTransform="matrix(1 0 0 -1 0 144)">
	<stop  offset="0" style="stop-color:#527ACC"/>
	<stop  offset="1" style="stop-color:#7A3D99"/>
</linearGradient>
<path class="st5" d="M70,26.8c0.8-0.5,1.9-0.5,2.7,0l26.4,15.1c0.9,0.5,0.9,1.9,0,2.4L72.7,59.1c-0.8,0.5-1.9,0.5-2.7,0L43.9,44.3
	c-0.9-0.5-0.9-1.8,0-2.4L70,26.8z"/>
<linearGradient id="SVGID_5_" gradientUnits="userSpaceOnUse" x1="65.2253" y1="79.0709" x2="77.8315" y2="122.9765" gradientTransform="matrix(1 0 0 -1 0 144)">
	<stop  offset="0" style="stop-color:#66CCFF"/>
	<stop  offset="1" style="stop-color:#991F99"/>
</linearGradient>
<path class="st6" d="M69.9,26.6c0.9-0.5,2-0.5,2.9,0l26.4,15.1c1,0.6,1,2.1,0,2.7L72.8,59.3c-0.9,0.5-2,0.5-2.9,0L43.8,44.4
	c-1-0.6-1-2.1,0-2.7L69.9,26.6z M72.6,26.9c-0.8-0.5-1.8-0.5-2.6,0L44,42c-0.8,0.5-0.8,1.6,0,2.1L70.1,59c0.8,0.4,1.7,0.4,2.5,0
	L99,44.1c0.8-0.5,0.8-1.6,0-2.1L72.6,26.9z"/>
<path class="st7" d="M71.1,33.3c0.1-0.1,0.1-0.1,0.2-0.1c0,0,0.1,0,0.1,0c0.1,0,0.1,0,0.2,0.1L88,42.6c0.3,0.2,0.4,0.2,0.5,0.3
	c0,0.1,0,0.2,0,0.3c0,0.1-0.2,0.2-0.5,0.3l-16.4,9c-0.1,0.1-0.1,0.1-0.2,0.1c0,0-0.1,0-0.1,0c-0.1,0-0.1,0-0.2-0.1l-16-9
	c-0.3-0.2-0.4-0.2-0.5-0.3c0-0.1,0-0.2,0-0.3c0-0.1,0.2-0.2,0.5-0.3L71.1,33.3z"/>
<linearGradient id="SVGID_6_" gradientUnits="userSpaceOnUse" x1="57.002" y1="94.7009" x2="86.139" y2="107.6474" gradientTransform="matrix(1 0 0 -1 0 144)">
	<stop  offset="0" style="stop-color:#334466"/>
	<stop  offset="1" style="stop-color:#3D1F4D"/>
</linearGradient>
<path class="st8" d="M71.1,32.4c0.2,0,0.3,0,0.5,0c0.2,0,0.4,0.1,0.4,0.2c0,0,0,0,0,0l16.4,9.3c0.1,0.1,0.3,0.1,0.4,0.2
	c0.1,0.1,0.3,0.2,0.4,0.5c0.1,0.3,0.1,0.7,0,1c-0.1,0.3-0.3,0.4-0.4,0.5c-0.1,0.1-0.2,0.1-0.4,0.2l-16.4,9c0,0,0,0,0,0
	c-0.1,0-0.2,0.1-0.4,0.2c-0.2,0-0.3,0-0.5,0c-0.2,0-0.4-0.1-0.4-0.2c0,0,0,0,0,0l-16-9c0,0,0,0,0,0c-0.1-0.1-0.3-0.1-0.4-0.2
	c-0.1-0.1-0.3-0.2-0.4-0.5c-0.1-0.3-0.1-0.7,0-1c0.1-0.3,0.3-0.4,0.4-0.5c0.1-0.1,0.2-0.2,0.4-0.2c0,0,0,0,0,0l16-9.3c0,0,0,0,0,0
	C70.7,32.5,70.9,32.4,71.1,32.4z M71.3,34.1l-15.4,8.9l15.4,8.6l15.7-8.6L71.3,34.1z"/>
<path class="st9" d="M48.2,53c0-0.5,0.4-0.8,0.9-0.5c0.5,0.3,0.9,0.9,0.9,1.5v14.3c0,0.5-0.4,0.8-0.9,0.5c-0.5-0.3-0.9-0.9-0.9-1.5
	V53z"/>
<path class="st10" d="M49.1,68.7c0.4,0.2,0.7,0.1,0.8-0.2c-0.1,0-0.2,0-0.4-0.1c-0.5-0.3-0.9-0.9-0.9-1.5V52.7c0-0.1,0-0.2,0.1-0.3
	c-0.3,0-0.5,0.2-0.5,0.6v14.3C48.2,67.8,48.6,68.4,49.1,68.7z"/>
<path class="st9" d="M52.7,55.4c0-0.5,0.4-0.8,0.9-0.5c0.5,0.3,0.9,0.9,0.9,1.5v14.3c0,0.5-0.4,0.8-0.9,0.5
	c-0.5-0.3-0.9-0.9-0.9-1.5V55.4z"/>
<path class="st10" d="M53.5,71.1c0.4,0.2,0.7,0.1,0.8-0.2c-0.1,0-0.2,0-0.4-0.1c-0.5-0.3-0.9-0.9-0.9-1.5V55.1c0-0.1,0-0.2,0.1-0.3
	c-0.3,0-0.5,0.2-0.5,0.6v14.3C52.7,70.2,53.1,70.8,53.5,71.1z"/>
<path class="st9" d="M57.1,58.1c0-0.5,0.4-0.8,0.9-0.5c0.5,0.3,0.9,0.9,0.9,1.5v14.3c0,0.5-0.4,0.8-0.9,0.5
	c-0.5-0.3-0.9-0.9-0.9-1.5V58.1z"/>
<path class="st10" d="M58,73.8c0.4,0.2,0.7,0.1,0.8-0.2c-0.1,0-0.2,0-0.4-0.1c-0.5-0.3-0.9-0.9-0.9-1.5V57.8c0-0.1,0-0.2,0.1-0.3
	c-0.3,0-0.5,0.2-0.5,0.6v14.3C57.1,72.9,57.5,73.6,58,73.8z"/>
<path class="st9" d="M61.6,60.5c0-0.5,0.4-0.8,0.9-0.5c0.5,0.3,0.9,0.9,0.9,1.5v14.3c0,0.5-0.4,0.8-0.9,0.5
	c-0.5-0.3-0.9-0.9-0.9-1.5V60.5z"/>
<path class="st10" d="M62.5,76.2c0.4,0.2,0.7,0.1,0.8-0.2c-0.1,0-0.2,0-0.4-0.1C62.4,75.7,62,75,62,74.5V60.2c0-0.1,0-0.2,0.1-0.3
	c-0.3,0-0.5,0.2-0.5,0.6v14.3C61.6,75.3,62,76,62.5,76.2z"/>
<g>
	<path class="st11" d="M89.3,79.9c0,0.4-0.3,0.9-0.6,1.1c-0.3,0.2-0.6,0-0.6-0.4c0-0.4,0.3-0.9,0.6-1.1
		C89.1,79.3,89.3,79.5,89.3,79.9z"/>
	<path class="st9" d="M87.5,80.9c0,0.4-0.3,0.9-0.6,1.1c-0.3,0.2-0.6,0-0.6-0.4c0-0.4,0.3-0.9,0.6-1.1
		C87.3,80.4,87.5,80.5,87.5,80.9z"/>
	<path class="st9" d="M85.8,82c0,0.4-0.3,0.9-0.6,1.1c-0.3,0.2-0.6,0-0.6-0.4c0-0.4,0.3-0.9,0.6-1.1S85.8,81.6,85.8,82z"/>
	<path class="st9" d="M84,83.1c0,0.4-0.3,0.9-0.6,1.1s-0.6,0-0.6-0.4c0-0.4,0.3-0.9,0.6-1.1S84,82.7,84,83.1z"/>
	<path class="st9" d="M82.2,84.1c0,0.4-0.3,0.9-0.6,1.1c-0.3,0.2-0.6,0-0.6-0.4c0-0.4,0.3-0.9,0.6-1.1
		C81.9,83.6,82.2,83.8,82.2,84.1z"/>
	<path class="st9" d="M80.4,85.2c0,0.4-0.3,0.9-0.6,1.1c-0.3,0.2-0.6,0-0.6-0.4c0-0.4,0.3-0.9,0.6-1.1
		C80.1,84.7,80.4,84.8,80.4,85.2z"/>
	<path class="st9" d="M78.6,86.3c0,0.4-0.3,0.9-0.6,1.1s-0.6,0-0.6-0.4c0-0.4,0.3-0.9,0.6-1.1S78.6,85.9,78.6,86.3z"/>
	<path class="st9" d="M76.8,87.4c0,0.4-0.3,0.9-0.6,1.1c-0.3,0.2-0.6,0-0.6-0.4c0-0.4,0.3-0.9,0.6-1.1C76.5,86.8,76.8,87,76.8,87.4z
		"/>
</g>
<g>
	<path class="st9" d="M95.5,62.3c0-0.5,0.3-1,0.7-1.3c0.4-0.2,0.7,0,0.7,0.4v0.7c0,0.5-0.3,1-0.7,1.3c-0.4,0.2-0.7,0-0.7-0.4V62.3z"
		/>
</g>
<g>
	<path class="st9" d="M95.5,58.7c0-0.5,0.3-1,0.7-1.3c0.4-0.2,0.7,0,0.7,0.4v0.7c0,0.5-0.3,1-0.7,1.3c-0.4,0.2-0.7,0-0.7-0.4V58.7z"
		/>
</g>
<g>
	<path class="st9" d="M95.5,55.1c0-0.5,0.3-1,0.7-1.3c0.4-0.2,0.7,0,0.7,0.4v0.7c0,0.5-0.3,1-0.7,1.3c-0.4,0.2-0.7,0-0.7-0.4V55.1z"
		/>
</g>
<g>
	<path class="st9" d="M95.5,51.5c0-0.5,0.3-1,0.7-1.3c0.4-0.2,0.7,0,0.7,0.4v0.7c0,0.5-0.3,1-0.7,1.3c-0.4,0.2-0.7,0-0.7-0.4V51.5z"
		/>
</g>
<g>
	<path class="st9" d="M81.2,68.2l7.6-4.6v1.1l-7.6,4.6V68.2z"/>
</g>
<g>
	<path class="st9" d="M79.1,69.4l1.2-0.7v1.1l-1.2,0.7V69.4z"/>
</g>
<g>
	<path class="st9" d="M75.6,71.5l2.6-1.6V71l-2.6,1.6V71.5z"/>
</g>
<g>
	<path class="st9" d="M83.8,64.5l8.2-4.9v1.1l-8.2,4.9V64.5z"/>
</g>
<g>
	<path class="st9" d="M81.8,65.7L83,65V66l-1.2,0.7V65.7z"/>
</g>
<g>
	<path class="st9" d="M79.7,66.9l1.2-0.7v1.1L79.7,68V66.9z"/>
</g>
<g>
	<path class="st11" d="M77.7,68.2l1.2-0.7v1.1l-1.2,0.7V68.2z"/>
</g>
<g>
	<path class="st9" d="M75.6,69.4l1.2-0.7v1.1l-1.2,0.7V69.4z"/>
</g>
<g>
	<path class="st9" d="M83.3,62.7l6.8-4.1v1.1l-6.8,4.1V62.7z"/>
</g>
<g>
	<path class="st9" d="M75.6,67.3l6.8-4.1v1.1l-6.8,4.1V67.3z"/>
</g>
<g>
	<path class="st9" d="M88.8,57.2l3.2-1.9v1.1l-3.2,1.9V57.2z"/>
</g>
<g>
	<path class="st11" d="M80,62.5l7.9-4.8v1.1L80,63.6V62.5z"/>
</g>
<g>
	<path class="st11" d="M75.6,65.2l3.5-2.1v1.1l-3.5,2.1V65.2z"/>
</g>
<g>
	<path class="st9" d="M84.7,57.6l4.7-2.8v1.1l-4.7,2.8V57.6z"/>
</g>
<g>
	<path class="st9" d="M75.6,63l8.2-4.9v1.1l-8.2,4.9V63z"/>
</g>
<g>
	
		<linearGradient id="SVGID_7_" gradientUnits="userSpaceOnUse" x1="71.4922" y1="109.9844" x2="71.4922" y2="92.1612" gradientTransform="matrix(1 0 0 -1 0 144)">
		<stop  offset="0" style="stop-color:#99DDFF"/>
		<stop  offset="1" style="stop-color:#99BBFF"/>
	</linearGradient>
	<path class="st12" d="M69.7,35c0.6-0.3,0.9-0.5,1.2-0.6c0.3-0.1,0.6-0.1,0.8,0c0.3,0.1,0.6,0.2,1.2,0.6l11.7,6.7
		c0.8,0.5,1.2,0.7,1.3,1c0.1,0.3,0.1,0.6,0,0.8c-0.1,0.3-0.5,0.5-1.4,1L72.9,51c-0.6,0.3-0.9,0.5-1.2,0.5c-0.3,0.1-0.5,0.1-0.8,0
		c-0.3-0.1-0.6-0.2-1.2-0.5l-11.5-6.5c-0.8-0.4-1.2-0.7-1.3-1c-0.1-0.3-0.1-0.6,0-0.8c0.1-0.3,0.5-0.5,1.3-1L69.7,35z"/>
</g>
<g>
	
		<linearGradient id="SVGID_8_" gradientUnits="userSpaceOnUse" x1="71.3375" y1="142.0317" x2="71.3375" y2="100.9014" gradientTransform="matrix(1 0 0 -1 0 144)">
		<stop  offset="0" style="stop-color:#FFFFFF;stop-opacity:0"/>
		<stop  offset="1" style="stop-color:#FFFFFF;stop-opacity:0.1"/>
	</linearGradient>
	<path class="st13" d="M54.9,6.1c-0.1-2.3,1.7-4.1,4-4.1h25c2.3,0,4.1,1.9,4,4.1l-1.2,34.8c0,1.4-0.8,2.6-2,3.3l-11.3,6.5
		c-1.2,0.7-2.7,0.7-4,0L58,44.2c-1.2-0.7-2-2-2-3.3L54.9,6.1z"/>
</g>
<g class="st14">
	
		<linearGradient id="SVGID_9_" gradientUnits="userSpaceOnUse" x1="69.281" y1="105.3574" x2="69.281" y2="102.9582" gradientTransform="matrix(1 0 0 -1 0 144)">
		<stop  offset="0" style="stop-color:#E1E6F0"/>
		<stop  offset="1" style="stop-color:#939CCC"/>
	</linearGradient>
	<circle class="st15" cx="69.3" cy="39.8" r="1.2"/>
</g>
<g class="st14">
	
		<linearGradient id="SVGID_10_" gradientUnits="userSpaceOnUse" x1="76.6502" y1="112.8979" x2="76.6502" y2="110.1559" gradientTransform="matrix(1 0 0 -1 0 144)">
		<stop  offset="0" style="stop-color:#E1E6F0"/>
		<stop  offset="1" style="stop-color:#939CCC"/>
	</linearGradient>
	<ellipse class="st16" cx="76.7" cy="32.5" rx="1.4" ry="1.4"/>
</g>
<g class="st14">
	
		<linearGradient id="SVGID_11_" gradientUnits="userSpaceOnUse" x1="71.3375" y1="135.5195" x2="71.3375" y2="132.4347" gradientTransform="matrix(1 0 0 -1 0 144)">
		<stop  offset="0" style="stop-color:#E1E6F0"/>
		<stop  offset="1" style="stop-color:#939CCC"/>
	</linearGradient>
	<ellipse class="st17" cx="71.3" cy="10" rx="1.5" ry="1.5"/>
</g>
<g class="st14">
	
		<linearGradient id="SVGID_12_" gradientUnits="userSpaceOnUse" x1="72.3658" y1="123.523" x2="72.3658" y2="120.4382" gradientTransform="matrix(1 0 0 -1 0 144)">
		<stop  offset="0" style="stop-color:#E1E6F0"/>
		<stop  offset="1" style="stop-color:#939CCC"/>
	</linearGradient>
	<circle class="st18" cx="72.4" cy="22" r="1.5"/>
</g>
<g class="st14">
	
		<linearGradient id="SVGID_13_" gradientUnits="userSpaceOnUse" x1="75.1078" y1="102.958" x2="75.1078" y2="101.2442" gradientTransform="matrix(1 0 0 -1 0 144)">
		<stop  offset="0" style="stop-color:#E1E6F0"/>
		<stop  offset="1" style="stop-color:#939CCC"/>
	</linearGradient>
	<circle class="st19" cx="75.1" cy="41.9" r="0.9"/>
</g>
<g class="st14">
	
		<linearGradient id="SVGID_14_" gradientUnits="userSpaceOnUse" x1="77.5071" y1="129.0073" x2="77.5071" y2="126.6081" gradientTransform="matrix(1 0 0 -1 0 144)">
		<stop  offset="0" style="stop-color:#E1E6F0"/>
		<stop  offset="1" style="stop-color:#939CCC"/>
	</linearGradient>
	<circle class="st20" cx="77.5" cy="16.2" r="1.2"/>
</g>
<g class="st14">
	
		<linearGradient id="SVGID_15_" gradientUnits="userSpaceOnUse" x1="66.0249" y1="114.2686" x2="66.0249" y2="112.212" gradientTransform="matrix(1 0 0 -1 0 144)">
		<stop  offset="0" style="stop-color:#E1E6F0"/>
		<stop  offset="1" style="stop-color:#939CCC"/>
	</linearGradient>
	<ellipse class="st21" cx="66" cy="30.8" rx="1" ry="1"/>
</g>
<g class="st14">
	
		<linearGradient id="SVGID_16_" gradientUnits="userSpaceOnUse" x1="65.6821" y1="124.894" x2="65.6821" y2="123.523" gradientTransform="matrix(1 0 0 -1 0 144)">
		<stop  offset="0" style="stop-color:#E1E6F0"/>
		<stop  offset="1" style="stop-color:#939CCC"/>
	</linearGradient>
	<circle class="st22" cx="65.7" cy="19.8" r="0.7"/>
</g>
<linearGradient id="SVGID_17_" gradientUnits="userSpaceOnUse" x1="16.9574" y1="73.9505" x2="60.408" y2="44.8108" gradientTransform="matrix(1 0 0 -1 0 144)">
	<stop  offset="0" style="stop-color:#365FB3"/>
	<stop  offset="0.4552" style="stop-color:#471F99"/>
	<stop  offset="0.9346" style="stop-color:#5E1980"/>
</linearGradient>
<path class="st23" d="M7.2,65.3l27.9,16.1l28.3-16.1v31.9c0,1.5-0.8,2.8-2,3.5l-24,14c-1.3,0.8-2.9,0.8-4.2,0l-24-14
	c-1.3-0.7-2-2.1-2-3.5V65.3z"/>
<linearGradient id="SVGID_18_" gradientUnits="userSpaceOnUse" x1="7.8547" y1="62.6917" x2="64.0661" y2="50.5239" gradientTransform="matrix(1 0 0 -1 0 144)">
	<stop  offset="0" style="stop-color:#5C8AE6"/>
	<stop  offset="0.848" style="stop-color:#661F66"/>
</linearGradient>
<path class="st24" d="M7,65l28.1,16.2L63.6,65v32.2c0,1.5-0.8,2.9-2.1,3.7l-24,14c-1.3,0.8-3,0.8-4.3,0l-24-14
	C7.8,100.1,7,98.7,7,97.2V65z M63.2,65.6l-28.1,16l-27.8-16v31.6c0,1.4,0.7,2.7,2,3.4l24,14c1.2,0.7,2.8,0.7,4,0l24-14
	c1.2-0.7,2-2,2-3.4V65.6z"/>
<path class="st2" d="M7.2,92l26,15.2c1.3,0.8,2.9,0.8,4.2,0l26-15.2v1.4L38,108.2c-1.7,1-3.8,1-5.5,0L7.2,93.4V92z"/>
<path class="st3" d="M7.2,93l25.7,15c1.5,0.9,3.4,0.9,4.8,0l25.7-15v0.3l-25.7,15c-1.5,0.9-3.4,0.9-4.8,0l-25.7-15V93z"/>
<linearGradient id="SVGID_19_" gradientUnits="userSpaceOnUse" x1="32.5333" y1="45.4744" x2="38.0173" y2="45.4744" gradientTransform="matrix(1 0 0 -1 0 144)">
	<stop  offset="0" style="stop-color:#000000;stop-opacity:0"/>
	<stop  offset="0.4996" style="stop-color:#000000;stop-opacity:0.1"/>
	<stop  offset="1" style="stop-color:#000000;stop-opacity:0"/>
</linearGradient>
<path class="st25" d="M32.5,81.4H38v34.3h-5.5V81.4z"/>
<linearGradient id="SVGID_20_" gradientUnits="userSpaceOnUse" x1="12.3775" y1="68.301" x2="58.3947" y2="89.0297" gradientTransform="matrix(1 0 0 -1 0 144)">
	<stop  offset="0" style="stop-color:#527ACC"/>
	<stop  offset="1" style="stop-color:#7A3D99"/>
</linearGradient>
<path class="st26" d="M33.7,49.3c0.8-0.5,1.9-0.5,2.7,0l26.4,15.1c0.9,0.5,0.9,1.9,0,2.4L36.5,81.7c-0.8,0.5-1.9,0.5-2.7,0L7.7,66.8
	c-0.9-0.5-0.9-1.8,0-2.4L33.7,49.3z"/>
<linearGradient id="SVGID_21_" gradientUnits="userSpaceOnUse" x1="28.9917" y1="56.5474" x2="41.5979" y2="100.453" gradientTransform="matrix(1 0 0 -1 0 144)">
	<stop  offset="0" style="stop-color:#66CCFF"/>
	<stop  offset="1" style="stop-color:#991F99"/>
</linearGradient>
<path class="st27" d="M33.6,49.1c0.9-0.5,2-0.5,2.9,0l26.4,15.1c1,0.6,1,2.1,0,2.7L36.5,81.8c-0.9,0.5-2,0.5-2.9,0L7.6,66.9
	c-1-0.6-1-2.1,0-2.7L33.6,49.1z M36.4,49.4c-0.8-0.5-1.8-0.5-2.6,0l-26,15.1C7,65,7,66.2,7.8,66.7l26.1,14.8c0.8,0.4,1.7,0.4,2.5,0
	l26.4-14.9c0.8-0.5,0.8-1.6,0-2.1L36.4,49.4z"/>
<path class="st7" d="M34.8,55.8c0.1-0.1,0.1-0.1,0.2-0.1c0,0,0.1,0,0.1,0c0.1,0,0.1,0,0.2,0.1l16.4,9.3c0.3,0.2,0.4,0.2,0.5,0.3
	c0,0.1,0,0.2,0,0.3c0,0.1-0.2,0.2-0.5,0.3l-16.4,9c-0.1,0.1-0.1,0.1-0.2,0.1c0,0-0.1,0-0.1,0c-0.1,0-0.1,0-0.2-0.1l-16-9
	c-0.3-0.2-0.4-0.2-0.5-0.3c0-0.1,0-0.2,0-0.3c0-0.1,0.2-0.2,0.5-0.3L34.8,55.8z"/>
<linearGradient id="SVGID_22_" gradientUnits="userSpaceOnUse" x1="20.7684" y1="72.1775" x2="49.9054" y2="85.1239" gradientTransform="matrix(1 0 0 -1 0 144)">
	<stop  offset="0" style="stop-color:#334466"/>
	<stop  offset="1" style="stop-color:#3D1F4D"/>
</linearGradient>
<path class="st28" d="M34.9,54.9c0.2,0,0.3,0,0.5,0c0.2,0,0.4,0.1,0.4,0.2c0,0,0,0,0,0l16.4,9.3c0.1,0.1,0.3,0.1,0.4,0.2
	c0.1,0.1,0.3,0.2,0.4,0.5c0.1,0.3,0.1,0.7,0,1c-0.1,0.3-0.3,0.4-0.4,0.5c-0.1,0.1-0.2,0.1-0.4,0.2l-16.4,9c0,0,0,0,0,0
	c-0.1,0-0.2,0.1-0.4,0.2c-0.2,0-0.3,0-0.5,0c-0.2,0-0.4-0.1-0.4-0.2c0,0,0,0,0,0l-16-9c0,0,0,0,0,0c-0.1-0.1-0.3-0.1-0.4-0.2
	c-0.1-0.1-0.3-0.2-0.4-0.5c-0.1-0.3-0.1-0.7,0-1c0.1-0.3,0.3-0.4,0.4-0.5c0.1-0.1,0.2-0.2,0.4-0.2c0,0,0,0,0,0l16-9.3c0,0,0,0,0,0
	C34.5,55,34.7,54.9,34.9,54.9z M35.1,56.7l-15.4,8.9l15.4,8.6l15.7-8.6L35.1,56.7z"/>
<path class="st9" d="M12,75.5c0-0.5,0.4-0.8,0.9-0.5c0.5,0.3,0.9,0.9,0.9,1.5v14.3c0,0.5-0.4,0.8-0.9,0.5c-0.5-0.3-0.9-0.9-0.9-1.5
	V75.5z"/>
<path class="st10" d="M12.9,91.2c0.4,0.2,0.7,0.1,0.8-0.2c-0.1,0-0.2,0-0.4-0.1c-0.5-0.3-0.9-0.9-0.9-1.5V75.2c0-0.1,0-0.2,0.1-0.3
	c-0.3,0-0.5,0.2-0.5,0.6v14.3C12,90.3,12.4,90.9,12.9,91.2z"/>
<path class="st9" d="M16.4,77.9c0-0.5,0.4-0.8,0.9-0.5c0.5,0.3,0.9,0.9,0.9,1.5v14.3c0,0.5-0.4,0.8-0.9,0.5
	c-0.5-0.3-0.9-0.9-0.9-1.5V77.9z"/>
<path class="st10" d="M17.3,93.6c0.4,0.2,0.7,0.1,0.8-0.2c-0.1,0-0.2,0-0.4-0.1c-0.5-0.3-0.9-0.9-0.9-1.5V77.6c0-0.1,0-0.2,0.1-0.3
	c-0.3,0-0.5,0.2-0.5,0.6v14.3C16.4,92.7,16.8,93.3,17.3,93.6z"/>
<path class="st9" d="M20.9,80.6c0-0.5,0.4-0.8,0.9-0.5c0.5,0.3,0.9,0.9,0.9,1.5v14.3c0,0.5-0.4,0.8-0.9,0.5
	c-0.5-0.3-0.9-0.9-0.9-1.5V80.6z"/>
<path class="st10" d="M21.8,96.4c0.4,0.2,0.7,0.1,0.8-0.2c-0.1,0-0.2,0-0.4-0.1c-0.5-0.3-0.9-0.9-0.9-1.5V80.3c0-0.1,0-0.2,0.1-0.3
	c-0.3,0-0.5,0.2-0.5,0.6v14.3C20.9,95.4,21.3,96.1,21.8,96.4z"/>
<path class="st9" d="M25.3,83c0-0.5,0.4-0.8,0.9-0.5c0.5,0.3,0.9,0.9,0.9,1.5v14.3c0,0.5-0.4,0.8-0.9,0.5c-0.5-0.3-0.9-0.9-0.9-1.5
	V83z"/>
<path class="st10" d="M26.2,98.8c0.4,0.2,0.7,0.1,0.8-0.2c-0.1,0-0.2,0-0.4-0.1c-0.5-0.3-0.9-0.9-0.9-1.5V82.7c0-0.1,0-0.2,0.1-0.3
	c-0.3,0-0.5,0.2-0.5,0.6v14.3C25.3,97.8,25.7,98.5,26.2,98.8z"/>
<g>
	<path class="st11" d="M53.1,102.4c0,0.4-0.3,0.9-0.6,1.1c-0.3,0.2-0.6,0-0.6-0.4c0-0.4,0.3-0.9,0.6-1.1S53.1,102,53.1,102.4z"/>
	<path class="st9" d="M51.3,103.5c0,0.4-0.3,0.9-0.6,1.1c-0.3,0.2-0.6,0-0.6-0.4c0-0.4,0.3-0.9,0.6-1.1S51.3,103.1,51.3,103.5z"/>
	<path class="st9" d="M49.5,104.5c0,0.4-0.3,0.9-0.6,1.1c-0.3,0.2-0.6,0-0.6-0.4c0-0.4,0.3-0.9,0.6-1.1
		C49.3,104,49.5,104.1,49.5,104.5z"/>
	<path class="st9" d="M47.7,105.6c0,0.4-0.3,0.9-0.6,1.1c-0.3,0.2-0.6,0-0.6-0.4c0-0.4,0.3-0.9,0.6-1.1S47.7,105.2,47.7,105.6z"/>
	<path class="st9" d="M45.9,106.7c0,0.4-0.3,0.9-0.6,1.1c-0.3,0.2-0.6,0-0.6-0.4c0-0.4,0.3-0.9,0.6-1.1
		C45.7,106.1,45.9,106.3,45.9,106.7z"/>
	<path class="st9" d="M44.2,107.7c0,0.4-0.3,0.9-0.6,1.1c-0.3,0.2-0.6,0-0.6-0.4c0-0.4,0.3-0.9,0.6-1.1S44.2,107.3,44.2,107.7z"/>
	<path class="st9" d="M42.4,108.8c0,0.4-0.3,0.9-0.6,1.1c-0.3,0.2-0.6,0-0.6-0.4s0.3-0.9,0.6-1.1C42.1,108.3,42.4,108.4,42.4,108.8z
		"/>
	<path class="st9" d="M40.6,109.9c0,0.4-0.3,0.9-0.6,1.1c-0.3,0.2-0.6,0-0.6-0.4c0-0.4,0.3-0.9,0.6-1.1
		C40.3,109.3,40.6,109.5,40.6,109.9z"/>
</g>
<g>
	<path class="st9" d="M59.3,84.8c0-0.5,0.3-1,0.7-1.3c0.4-0.2,0.7,0,0.7,0.4v0.7c0,0.5-0.3,1-0.7,1.3c-0.4,0.2-0.7,0-0.7-0.4V84.8z"
		/>
</g>
<g>
	<path class="st9" d="M59.3,81.2c0-0.5,0.3-1,0.7-1.3c0.4-0.2,0.7,0,0.7,0.4V81c0,0.5-0.3,1-0.7,1.3c-0.4,0.2-0.7,0-0.7-0.4V81.2z"
		/>
</g>
<g>
	<path class="st9" d="M59.3,77.6c0-0.5,0.3-1,0.7-1.3c0.4-0.2,0.7,0,0.7,0.4v0.7c0,0.5-0.3,1-0.7,1.3c-0.4,0.2-0.7,0-0.7-0.4V77.6z"
		/>
</g>
<g>
	<path class="st9" d="M59.3,74c0-0.5,0.3-1,0.7-1.3c0.4-0.2,0.7,0,0.7,0.4v0.7c0,0.5-0.3,1-0.7,1.3c-0.4,0.2-0.7,0-0.7-0.4V74z"/>
</g>
<g>
	<path class="st9" d="M45,90.7l7.6-4.6v1.1L45,91.7V90.7z"/>
</g>
<g>
	<path class="st9" d="M42.9,91.9l1.2-0.7v1.1L42.9,93V91.9z"/>
</g>
<g>
	<path class="st9" d="M39.4,94l2.6-1.6v1.1l-2.6,1.6V94z"/>
</g>
<g>
	<path class="st9" d="M47.6,87l8.2-4.9v1.1L47.6,88V87z"/>
</g>
<g>
	<path class="st9" d="M45.6,88.2l1.2-0.7v1.1l-1.2,0.7V88.2z"/>
</g>
<g>
	<path class="st9" d="M43.5,89.5l1.2-0.7v1.1l-1.2,0.7V89.5z"/>
</g>
<g>
	<path class="st11" d="M41.4,90.7l1.2-0.7V91l-1.2,0.7V90.7z"/>
</g>
<g>
	<path class="st9" d="M39.4,91.9l1.2-0.7v1.1L39.4,93V91.9z"/>
</g>
<g>
	<path class="st9" d="M47,85.2l6.8-4.1v1.1L47,86.3V85.2z"/>
</g>
<g>
	<path class="st9" d="M39.4,89.8l6.8-4.1v1.1l-6.8,4.1V89.8z"/>
</g>
<g>
	<path class="st9" d="M52.6,79.7l3.2-1.9v1.1l-3.2,1.9V79.7z"/>
</g>
<g>
	<path class="st11" d="M43.8,85l7.9-4.8v1.1l-7.9,4.8V85z"/>
</g>
<g>
	<path class="st11" d="M39.4,87.7l3.5-2.1v1.1l-3.5,2.1V87.7z"/>
</g>
<g>
	<path class="st9" d="M48.5,80.1l4.7-2.8v1.1l-4.7,2.8V80.1z"/>
</g>
<g>
	<path class="st9" d="M39.4,85.6l8.2-4.9v1.1l-8.2,4.9V85.6z"/>
</g>
<g>
	
		<linearGradient id="SVGID_23_" gradientUnits="userSpaceOnUse" x1="35.2586" y1="87.4609" x2="35.2586" y2="69.6378" gradientTransform="matrix(1 0 0 -1 0 144)">
		<stop  offset="0" style="stop-color:#99DDFF"/>
		<stop  offset="1" style="stop-color:#99BBFF"/>
	</linearGradient>
	<path class="st29" d="M33.5,57.5c0.6-0.3,0.9-0.5,1.2-0.6c0.3-0.1,0.6-0.1,0.8,0c0.3,0.1,0.6,0.2,1.2,0.6l11.7,6.7
		c0.8,0.5,1.2,0.7,1.3,1c0.1,0.3,0.1,0.6,0,0.8c-0.1,0.3-0.5,0.5-1.4,1l-11.7,6.5c-0.6,0.3-0.9,0.5-1.2,0.5c-0.3,0.1-0.5,0.1-0.8,0
		c-0.3-0.1-0.6-0.2-1.2-0.5L22.1,67c-0.8-0.4-1.2-0.7-1.3-1c-0.1-0.3-0.1-0.6,0-0.8c0.1-0.3,0.5-0.5,1.3-1L33.5,57.5z"/>
</g>
<g>
	
		<linearGradient id="SVGID_24_" gradientUnits="userSpaceOnUse" x1="35.1039" y1="119.5083" x2="35.1039" y2="78.3779" gradientTransform="matrix(1 0 0 -1 0 144)">
		<stop  offset="0" style="stop-color:#FFFFFF;stop-opacity:0"/>
		<stop  offset="1" style="stop-color:#FFFFFF;stop-opacity:0.1"/>
	</linearGradient>
	<path class="st30" d="M18.6,28.6c-0.1-2.3,1.7-4.1,4-4.1h25c2.3,0,4.1,1.9,4,4.1l-1.2,34.8c0,1.4-0.8,2.6-2,3.3l-11.3,6.5
		c-1.2,0.7-2.7,0.7-4,0l-11.3-6.5c-1.2-0.7-2-2-2-3.3L18.6,28.6z"/>
</g>
<g class="st14">
	
		<linearGradient id="SVGID_25_" gradientUnits="userSpaceOnUse" x1="33.0474" y1="82.834" x2="33.0474" y2="80.4348" gradientTransform="matrix(1 0 0 -1 0 144)">
		<stop  offset="0" style="stop-color:#E1E6F0"/>
		<stop  offset="1" style="stop-color:#939CCC"/>
	</linearGradient>
	<circle class="st31" cx="33" cy="62.4" r="1.2"/>
</g>
<g class="st14">
	
		<linearGradient id="SVGID_26_" gradientUnits="userSpaceOnUse" x1="40.4166" y1="90.3745" x2="40.4166" y2="87.6325" gradientTransform="matrix(1 0 0 -1 0 144)">
		<stop  offset="0" style="stop-color:#E1E6F0"/>
		<stop  offset="1" style="stop-color:#939CCC"/>
	</linearGradient>
	<ellipse class="st32" cx="40.4" cy="55" rx="1.4" ry="1.4"/>
</g>
<g class="st14">
	
		<linearGradient id="SVGID_27_" gradientUnits="userSpaceOnUse" x1="35.1039" y1="112.9961" x2="35.1039" y2="109.9113" gradientTransform="matrix(1 0 0 -1 0 144)">
		<stop  offset="0" style="stop-color:#E1E6F0"/>
		<stop  offset="1" style="stop-color:#939CCC"/>
	</linearGradient>
	<ellipse class="st33" cx="35.1" cy="32.5" rx="1.5" ry="1.5"/>
</g>
<g class="st14">
	
		<linearGradient id="SVGID_28_" gradientUnits="userSpaceOnUse" x1="36.1322" y1="100.9995" x2="36.1322" y2="97.9147" gradientTransform="matrix(1 0 0 -1 0 144)">
		<stop  offset="0" style="stop-color:#E1E6F0"/>
		<stop  offset="1" style="stop-color:#939CCC"/>
	</linearGradient>
	<circle class="st34" cx="36.1" cy="44.5" r="1.5"/>
</g>
<g class="st14">
	
		<linearGradient id="SVGID_29_" gradientUnits="userSpaceOnUse" x1="38.8742" y1="80.4346" x2="38.8742" y2="78.7208" gradientTransform="matrix(1 0 0 -1 0 144)">
		<stop  offset="0" style="stop-color:#E1E6F0"/>
		<stop  offset="1" style="stop-color:#939CCC"/>
	</linearGradient>
	<circle class="st35" cx="38.9" cy="64.4" r="0.9"/>
</g>
<g class="st14">
	
		<linearGradient id="SVGID_30_" gradientUnits="userSpaceOnUse" x1="41.2735" y1="106.4839" x2="41.2735" y2="104.0847" gradientTransform="matrix(1 0 0 -1 0 144)">
		<stop  offset="0" style="stop-color:#E1E6F0"/>
		<stop  offset="1" style="stop-color:#939CCC"/>
	</linearGradient>
	<circle class="st36" cx="41.3" cy="38.7" r="1.2"/>
</g>
<g class="st14">
	
		<linearGradient id="SVGID_31_" gradientUnits="userSpaceOnUse" x1="29.7913" y1="91.7452" x2="29.7913" y2="89.6886" gradientTransform="matrix(1 0 0 -1 0 144)">
		<stop  offset="0" style="stop-color:#E1E6F0"/>
		<stop  offset="1" style="stop-color:#939CCC"/>
	</linearGradient>
	<ellipse class="st37" cx="29.8" cy="53.3" rx="1" ry="1"/>
</g>
<g class="st14">
	
		<linearGradient id="SVGID_32_" gradientUnits="userSpaceOnUse" x1="29.4485" y1="102.3706" x2="29.4485" y2="100.9996" gradientTransform="matrix(1 0 0 -1 0 144)">
		<stop  offset="0" style="stop-color:#E1E6F0"/>
		<stop  offset="1" style="stop-color:#939CCC"/>
	</linearGradient>
	<circle class="st38" cx="29.4" cy="42.3" r="0.7"/>
</g>
<linearGradient id="SVGID_33_" gradientUnits="userSpaceOnUse" x1="87.0331" y1="71.1135" x2="130.4833" y2="41.9738" gradientTransform="matrix(1 0 0 -1 0 144)">
	<stop  offset="0" style="stop-color:#365FB3"/>
	<stop  offset="0.4552" style="stop-color:#471F99"/>
	<stop  offset="0.9346" style="stop-color:#5E1980"/>
</linearGradient>
<path class="st39" d="M79.1,73.5l27.9,16.1l28.3-16.1v23.7c0,1.5-0.8,2.8-2,3.5l-24,14c-1.3,0.8-2.9,0.8-4.2,0l-24-14
	c-1.3-0.7-2-2.1-2-3.5V73.5z"/>
<linearGradient id="SVGID_34_" gradientUnits="userSpaceOnUse" x1="78.9824" y1="58.7629" x2="135.1936" y2="46.5951" gradientTransform="matrix(1 0 0 -1 0 144)">
	<stop  offset="0" style="stop-color:#5C8AE6"/>
	<stop  offset="0.848" style="stop-color:#661F66"/>
</linearGradient>
<path class="st40" d="M79,73.2l28.1,16.2l28.4-16.2v24c0,1.5-0.8,2.9-2.1,3.7l-24,14c-1.3,0.8-3,0.8-4.3,0l-24-14
	c-1.3-0.8-2.1-2.2-2.1-3.7V73.2z M135.2,73.8l-28.1,16l-27.8-16v23.4c0,1.4,0.7,2.7,2,3.4l24,14c1.2,0.7,2.8,0.7,4,0l24-14
	c1.2-0.7,2-2,2-3.4V73.8z"/>
<path class="st2" d="M79.1,92l26,15.2c1.3,0.8,2.9,0.8,4.2,0l26-15.2v1.4L110,108.2c-1.7,1-3.8,1-5.5,0L79.1,93.4V92z"/>
<path class="st3" d="M79.1,93l25.7,15c1.5,0.9,3.4,0.9,4.8,0l25.7-15v0.3l-25.7,15c-1.5,0.9-3.4,0.9-4.8,0l-25.7-15V93z"/>
<linearGradient id="SVGID_35_" gradientUnits="userSpaceOnUse" x1="104.512" y1="45.4744" x2="109.996" y2="45.4744" gradientTransform="matrix(1 0 0 -1 0 144)">
	<stop  offset="0" style="stop-color:#000000;stop-opacity:0"/>
	<stop  offset="0.4996" style="stop-color:#000000;stop-opacity:0.1"/>
	<stop  offset="1" style="stop-color:#000000;stop-opacity:0"/>
</linearGradient>
<path class="st41" d="M104.5,81.4h5.5v34.3h-5.5V81.4z"/>
<linearGradient id="SVGID_36_" gradientUnits="userSpaceOnUse" x1="84.3557" y1="60.075" x2="130.3728" y2="80.8037" gradientTransform="matrix(1 0 0 -1 0 144)">
	<stop  offset="0" style="stop-color:#527ACC"/>
	<stop  offset="1" style="stop-color:#7A3D99"/>
</linearGradient>
<path class="st42" d="M105.7,57.5c0.8-0.5,1.9-0.5,2.7,0l26.4,15.1c0.9,0.5,0.9,1.9,0,2.4l-26.4,14.8c-0.8,0.5-1.9,0.5-2.7,0
	L79.7,75c-0.9-0.5-0.9-1.8,0-2.4L105.7,57.5z"/>
<linearGradient id="SVGID_37_" gradientUnits="userSpaceOnUse" x1="100.9699" y1="48.3213" x2="113.5761" y2="92.2269" gradientTransform="matrix(1 0 0 -1 0 144)">
	<stop  offset="0" style="stop-color:#66CCFF"/>
	<stop  offset="1" style="stop-color:#991F99"/>
</linearGradient>
<path class="st43" d="M105.6,57.4c0.9-0.5,2-0.5,2.9,0l26.4,15.1c1,0.6,1,2.1,0,2.7L108.5,90c-0.9,0.5-2,0.5-2.9,0L79.6,75.2
	c-1-0.6-1-2.1,0-2.7L105.6,57.4z M108.4,57.6c-0.8-0.5-1.8-0.5-2.6,0l-26,15.1c-0.8,0.5-0.8,1.6,0,2.1l26.1,14.8
	c0.8,0.4,1.7,0.4,2.5,0l26.4-14.9c0.8-0.5,0.8-1.6,0-2.1L108.4,57.6z"/>
<path class="st7" d="M106.8,64.1C106.9,64,107,64,107,64c0,0,0.1,0,0.1,0c0.1,0,0.1,0,0.2,0.1l16.4,9.3c0.3,0.2,0.4,0.2,0.5,0.3
	c0,0.1,0,0.2,0,0.3c0,0.1-0.2,0.2-0.5,0.3l-16.4,9c-0.1,0.1-0.1,0.1-0.2,0.1c0,0-0.1,0-0.1,0c-0.1,0-0.1,0-0.2-0.1l-16-9
	c-0.3-0.2-0.4-0.2-0.5-0.3c0-0.1,0-0.2,0-0.3c0-0.1,0.2-0.2,0.5-0.3L106.8,64.1z"/>
<linearGradient id="SVGID_38_" gradientUnits="userSpaceOnUse" x1="92.7466" y1="63.9515" x2="121.8835" y2="76.898" gradientTransform="matrix(1 0 0 -1 0 144)">
	<stop  offset="0" style="stop-color:#334466"/>
	<stop  offset="1" style="stop-color:#3D1F4D"/>
</linearGradient>
<path class="st44" d="M106.8,63.1c0.2,0,0.3,0,0.5,0c0.2,0,0.4,0.1,0.4,0.2c0,0,0,0,0,0l16.4,9.3c0.1,0.1,0.3,0.1,0.4,0.2
	c0.1,0.1,0.3,0.2,0.4,0.5c0.1,0.3,0.1,0.7,0,1c-0.1,0.3-0.3,0.4-0.4,0.5c-0.1,0.1-0.2,0.1-0.4,0.2l-16.4,9c0,0,0,0,0,0
	c-0.1,0-0.2,0.1-0.4,0.2c-0.2,0-0.3,0-0.5,0c-0.2,0-0.4-0.1-0.4-0.2c0,0,0,0,0,0l-16-9c0,0,0,0,0,0c-0.1-0.1-0.3-0.1-0.4-0.2
	c-0.1-0.1-0.3-0.2-0.4-0.5c-0.1-0.3-0.1-0.7,0-1c0.1-0.3,0.3-0.4,0.4-0.5c0.1-0.1,0.2-0.2,0.4-0.2c0,0,0,0,0,0l16-9.3c0,0,0,0,0,0
	C106.5,63.3,106.6,63.2,106.8,63.1z M107.1,64.9l-15.4,8.9l15.4,8.6l15.7-8.6L107.1,64.9z"/>
<path class="st9" d="M83.9,83.7c0-0.5,0.4-0.8,0.9-0.5c0.5,0.3,0.9,0.9,0.9,1.5v6c0,0.5-0.4,0.8-0.9,0.5c-0.5-0.3-0.9-0.9-0.9-1.5
	V83.7z"/>
<path class="st10" d="M84.8,91.2c0.4,0.2,0.7,0.1,0.8-0.2c-0.1,0-0.2,0-0.4-0.1c-0.5-0.3-0.9-0.9-0.9-1.5v-6c0-0.1,0-0.2,0.1-0.3
	c-0.3,0-0.5,0.2-0.5,0.6v6C83.9,90.3,84.3,90.9,84.8,91.2z"/>
<path class="st9" d="M88.4,86.1c0-0.5,0.4-0.8,0.9-0.5c0.5,0.3,0.9,0.9,0.9,1.5v6c0,0.5-0.4,0.8-0.9,0.5c-0.5-0.3-0.9-0.9-0.9-1.5
	V86.1z"/>
<path class="st10" d="M89.3,93.6c0.4,0.2,0.7,0.1,0.8-0.2c-0.1,0-0.2,0-0.4-0.1c-0.5-0.3-0.9-0.9-0.9-1.5v-6c0-0.1,0-0.2,0.1-0.3
	c-0.3,0-0.5,0.2-0.5,0.6v6C88.4,92.7,88.8,93.3,89.3,93.6z"/>
<path class="st9" d="M92.9,88.9c0-0.5,0.4-0.8,0.9-0.5c0.5,0.3,0.9,0.9,0.9,1.5v6c0,0.5-0.4,0.8-0.9,0.5c-0.5-0.3-0.9-0.9-0.9-1.5
	V88.9z"/>
<path class="st10" d="M93.7,96.4c0.4,0.2,0.7,0.1,0.8-0.2c-0.1,0-0.2,0-0.4-0.1c-0.5-0.3-0.9-0.9-0.9-1.5v-6c0-0.1,0-0.2,0.1-0.3
	c-0.3,0-0.5,0.2-0.5,0.6v6C92.9,95.4,93.3,96.1,93.7,96.4z"/>
<path class="st7" d="M97.3,91.2c0-0.5,0.4-0.8,0.9-0.5c0.5,0.3,0.9,0.9,0.9,1.5v6c0,0.5-0.4,0.8-0.9,0.5c-0.5-0.3-0.9-0.9-0.9-1.5
	V91.2z"/>
<path class="st45" d="M98.2,98.8c0.4,0.2,0.7,0.1,0.8-0.2c-0.1,0-0.2,0-0.4-0.1c-0.5-0.3-0.9-0.9-0.9-1.5v-6c0-0.1,0-0.2,0.1-0.3
	c-0.3,0-0.5,0.2-0.5,0.6v6C97.3,97.8,97.7,98.5,98.2,98.8z"/>
<g>
	<path class="st7" d="M125.1,102.4c0,0.4-0.3,0.9-0.6,1.1c-0.3,0.2-0.6,0-0.6-0.4c0-0.4,0.3-0.9,0.6-1.1
		C124.8,101.8,125.1,102,125.1,102.4z"/>
</g>
<g>
	<path class="st7" d="M123.3,103.5c0,0.4-0.3,0.9-0.6,1.1c-0.3,0.2-0.6,0-0.6-0.4c0-0.4,0.3-0.9,0.6-1.1
		C123,102.9,123.3,103.1,123.3,103.5z"/>
</g>
<g>
	<path class="st7" d="M121.5,104.5c0,0.4-0.3,0.9-0.6,1.1c-0.3,0.2-0.6,0-0.6-0.4c0-0.4,0.3-0.9,0.6-1.1S121.5,104.1,121.5,104.5z"
		/>
</g>
<g>
	<path class="st7" d="M119.7,105.6c0,0.4-0.3,0.9-0.6,1.1c-0.3,0.2-0.6,0-0.6-0.4c0-0.4,0.3-0.9,0.6-1.1
		C119.4,105.1,119.7,105.2,119.7,105.6z"/>
</g>
<g>
	<path class="st9" d="M117.9,106.7c0,0.4-0.3,0.9-0.6,1.1c-0.3,0.2-0.6,0-0.6-0.4c0-0.4,0.3-0.9,0.6-1.1
		C117.7,106.1,117.9,106.3,117.9,106.7z"/>
</g>
<g>
	<path class="st9" d="M116.1,107.7c0,0.4-0.3,0.9-0.6,1.1c-0.3,0.2-0.6,0-0.6-0.4c0-0.4,0.3-0.9,0.6-1.1
		C115.9,107.2,116.1,107.3,116.1,107.7z"/>
</g>
<g>
	<path class="st9" d="M114.3,108.8c0,0.4-0.3,0.9-0.6,1.1c-0.3,0.2-0.6,0-0.6-0.4s0.3-0.9,0.6-1.1S114.3,108.4,114.3,108.8z"/>
</g>
<g>
	<path class="st9" d="M112.6,109.9c0,0.4-0.3,0.9-0.6,1.1c-0.3,0.2-0.6,0-0.6-0.4c0-0.4,0.3-0.9,0.6-1.1
		C112.3,109.3,112.6,109.5,112.6,109.9z"/>
</g>
<g>
	<path class="st9" d="M131.2,89.4c0-0.5,0.3-1,0.7-1.3c0.4-0.2,0.7,0,0.7,0.4v0.7c0,0.5-0.3,1-0.7,1.3c-0.4,0.2-0.7,0-0.7-0.4V89.4z
		"/>
</g>
<g>
	<path class="st9" d="M131.2,85.8c0-0.5,0.3-1,0.7-1.3c0.4-0.2,0.7,0,0.7,0.4v0.7c0,0.5-0.3,1-0.7,1.3c-0.4,0.2-0.7,0-0.7-0.4V85.8z
		"/>
</g>
<g>
	<path class="st9" d="M131.2,82.2c0-0.5,0.3-1,0.7-1.3c0.4-0.2,0.7,0,0.7,0.4v0.7c0,0.5-0.3,1-0.7,1.3c-0.4,0.2-0.7,0-0.7-0.4V82.2z
		"/>
</g>
<g>
	<path class="st7" d="M119.6,95.2l8.2-4.9v1.1l-8.2,4.9V95.2z"/>
</g>
<g>
	<path class="st7" d="M117.5,96.4l1.2-0.7v1.1l-1.2,0.7V96.4z"/>
</g>
<g>
	<path class="st9" d="M115.5,97.7l1.2-0.7V98l-1.2,0.7V97.7z"/>
</g>
<g>
	<path class="st11" d="M113.4,98.9l1.2-0.7v1.1l-1.2,0.7V98.9z"/>
</g>
<g>
	<path class="st9" d="M111.4,100.1l1.2-0.7v1.1l-1.2,0.7V100.1z"/>
</g>
<g>
	<path class="st9" d="M119,93.4l6.8-4.1v1.1l-6.8,4.1V93.4z"/>
</g>
<g>
	<path class="st9" d="M111.4,98l6.8-4.1V95l-6.8,4.1V98z"/>
</g>
<g>
	<path class="st9" d="M124.6,88l3.2-1.9v1.1l-3.2,1.9V88z"/>
</g>
<g>
	<path class="st11" d="M115.8,93.3l7.9-4.8v1.1l-7.9,4.8V93.3z"/>
</g>
<g>
	<path class="st11" d="M111.4,95.9l3.5-2.1v1.1l-3.5,2.1V95.9z"/>
</g>
<g>
	<path class="st9" d="M120.5,88.3l4.7-2.8v1.1l-4.7,2.8V88.3z"/>
</g>
<g>
	<path class="st9" d="M111.4,93.8l8.2-4.9v1.1l-8.2,4.9V93.8z"/>
</g>
<g>
	
		<linearGradient id="SVGID_39_" gradientUnits="userSpaceOnUse" x1="107.2368" y1="79.2349" x2="107.2368" y2="61.4117" gradientTransform="matrix(1 0 0 -1 0 144)">
		<stop  offset="0" style="stop-color:#99DDFF"/>
		<stop  offset="1" style="stop-color:#99BBFF"/>
	</linearGradient>
	<path class="st46" d="M105.5,65.7c0.6-0.3,0.9-0.5,1.2-0.6c0.3-0.1,0.6-0.1,0.8,0c0.3,0.1,0.6,0.2,1.2,0.6l11.7,6.7
		c0.8,0.5,1.2,0.7,1.3,1c0.1,0.3,0.1,0.6,0,0.8c-0.1,0.3-0.5,0.5-1.4,1l-11.7,6.5c-0.6,0.3-0.9,0.5-1.2,0.5c-0.3,0.1-0.5,0.1-0.8,0
		c-0.3-0.1-0.6-0.2-1.2-0.5l-11.5-6.5c-0.8-0.4-1.2-0.7-1.3-1c-0.1-0.3-0.1-0.6,0-0.8c0.1-0.3,0.5-0.5,1.3-1L105.5,65.7z"/>
</g>
<linearGradient id="SVGID_40_" gradientUnits="userSpaceOnUse" x1="71.5089" y1="26.671" x2="71.5089" y2="7.101" gradientTransform="matrix(1 0 0 -1 0 144)">
	<stop  offset="0" style="stop-color:#1F2E4D"/>
	<stop  offset="1" style="stop-color:#0E081A"/>
</linearGradient>
<path class="st47" d="M43.4,100.5l27.9,16.1l28.3-16.1v18.2c0,1.5-0.8,2.8-2,3.6l-24,14c-1.3,0.8-2.9,0.8-4.2,0l-24-14
	c-1.3-0.7-2-2.1-2-3.6V100.5z"/>
<linearGradient id="SVGID_41_" gradientUnits="userSpaceOnUse" x1="42.3919" y1="24.2689" x2="70.4977" y2="26.1539" gradientTransform="matrix(1 0 0 -1 0 144)">
	<stop  offset="0" style="stop-color:#4D403D"/>
	<stop  offset="1" style="stop-color:#524766;stop-opacity:0.3"/>
</linearGradient>
<path class="st48" d="M43.4,100.5l27.9,16.1l28.3-16.1v18.2c0,1.5-0.8,2.8-2,3.6l-24,14c-1.3,0.8-2.9,0.8-4.2,0l-24-14
	c-1.3-0.7-2-2.1-2-3.6V100.5z"/>
<linearGradient id="SVGID_42_" gradientUnits="userSpaceOnUse" x1="42.6709" y1="34.5976" x2="98.8823" y2="22.4306" gradientTransform="matrix(1 0 0 -1 0 144)">
	<stop  offset="0" style="stop-color:#5C8AE6"/>
	<stop  offset="0.848" style="stop-color:#661F66"/>
</linearGradient>
<path class="st49" d="M43.2,100.2l28.1,16.2l28.4-16.2v18.5c0,1.5-0.8,2.9-2.1,3.7l-24,14c-1.3,0.8-3,0.8-4.3,0l-24-14
	c-1.3-0.8-2.1-2.2-2.1-3.7V100.2z M99.4,100.8l-28.1,16l-27.8-16v17.9c0,1.4,0.7,2.7,2,3.4l24,14c1.2,0.7,2.8,0.7,4,0l24-14
	c1.2-0.7,2-2,2-3.4V100.8z"/>
<path class="st2" d="M43.4,113.6l26,15.2c1.3,0.8,2.9,0.8,4.2,0l26-15.2v1.4l-25.3,14.8c-1.7,1-3.8,1-5.5,0l-25.3-14.8V113.6z"/>
<path class="st3" d="M43.4,114.6l25.7,15c1.5,0.9,3.4,0.9,4.8,0l25.7-15v0.3l-25.7,15c-1.5,0.9-3.4,0.9-4.8,0l-25.7-15V114.6z"/>
<linearGradient id="SVGID_43_" gradientUnits="userSpaceOnUse" x1="68.7669" y1="23.9285" x2="74.2509" y2="23.9285" gradientTransform="matrix(1 0 0 -1 0 144)">
	<stop  offset="0" style="stop-color:#000000;stop-opacity:0"/>
	<stop  offset="0.4996" style="stop-color:#000000;stop-opacity:0.1"/>
	<stop  offset="1" style="stop-color:#000000;stop-opacity:0"/>
</linearGradient>
<path class="st50" d="M68.8,102.9h5.5v34.3h-5.5V102.9z"/>
<path class="st51" d="M70,84.5c0.8-0.5,1.9-0.5,2.7,0l26.4,15.1c0.9,0.5,0.9,1.9,0,2.4l-26.4,14.9c-0.8,0.5-1.9,0.5-2.7,0
	l-26.1-14.8c-0.9-0.5-0.9-1.8,0-2.4L70,84.5z"/>
<linearGradient id="SVGID_44_" gradientUnits="userSpaceOnUse" x1="65.2253" y1="21.2923" x2="77.8315" y2="65.1976" gradientTransform="matrix(1 0 0 -1 0 144)">
	<stop  offset="0" style="stop-color:#66CCFF"/>
	<stop  offset="1" style="stop-color:#991F99"/>
</linearGradient>
<path class="st52" d="M69.9,84.4c0.9-0.5,2-0.5,2.9,0l26.4,15.1c1,0.6,1,2.1,0,2.7l-26.4,14.9c-0.9,0.5-2,0.5-2.9,0l-26.1-14.8
	c-1-0.6-1-2.1,0-2.7L69.9,84.4z M72.6,84.7c-0.8-0.5-1.8-0.5-2.6,0L44,99.8c-0.8,0.5-0.8,1.6,0,2.1l26.1,14.8c0.8,0.4,1.7,0.4,2.5,0
	L99,101.9c0.8-0.5,0.8-1.6,0-2.1L72.6,84.7z"/>
<path class="st9" d="M48.2,109.4c0-0.5,0.4-0.8,0.9-0.5c0.5,0.3,0.9,0.9,0.9,1.5v3.3c0,0.5-0.4,0.8-0.9,0.5
	c-0.5-0.3-0.9-0.9-0.9-1.5V109.4z"/>
<path class="st45" d="M49.1,114.1c0.4,0.2,0.7,0.1,0.8-0.2c-0.1,0-0.2,0-0.4-0.1c-0.5-0.3-0.9-0.9-0.9-1.5v-3.3c0-0.1,0-0.2,0.1-0.3
	c-0.3,0-0.5,0.2-0.5,0.6v3.3C48.2,113.2,48.6,113.9,49.1,114.1z"/>
<path class="st9" d="M52.7,111.8c0-0.5,0.4-0.8,0.9-0.5c0.5,0.3,0.9,0.9,0.9,1.5v3.3c0,0.5-0.4,0.8-0.9,0.5
	c-0.5-0.3-0.9-0.9-0.9-1.5V111.8z"/>
<path class="st45" d="M53.5,116.5c0.4,0.2,0.7,0.1,0.8-0.2c-0.1,0-0.2,0-0.4-0.1c-0.5-0.3-0.9-0.9-0.9-1.5v-3.3c0-0.1,0-0.2,0.1-0.3
	c-0.3,0-0.5,0.2-0.5,0.6v3.3C52.7,115.6,53.1,116.3,53.5,116.5z"/>
<path class="st9" d="M57.1,114.5c0-0.5,0.4-0.8,0.9-0.5c0.5,0.3,0.9,0.9,0.9,1.5v3.3c0,0.5-0.4,0.8-0.9,0.5
	c-0.5-0.3-0.9-0.9-0.9-1.5V114.5z"/>
<path class="st45" d="M58,119.3c0.4,0.2,0.7,0.1,0.8-0.2c-0.1,0-0.2,0-0.4-0.1c-0.5-0.3-0.9-0.9-0.9-1.5v-3.3c0-0.1,0-0.2,0.1-0.3
	c-0.3,0-0.5,0.2-0.5,0.6v3.3C57.1,118.3,57.5,119,58,119.3z"/>
<path class="st7" d="M61.6,116.9c0-0.5,0.4-0.8,0.9-0.5c0.5,0.3,0.9,0.9,0.9,1.5v3.3c0,0.5-0.4,0.8-0.9,0.5
	c-0.5-0.3-0.9-0.9-0.9-1.5V116.9z"/>
<path class="st45" d="M62.5,121.7c0.4,0.2,0.7,0.1,0.8-0.2c-0.1,0-0.2,0-0.4-0.1c-0.5-0.3-0.9-0.9-0.9-1.5v-3.3c0-0.1,0-0.2,0.1-0.3
	c-0.3,0-0.5,0.2-0.5,0.6v3.3C61.6,120.7,62,121.4,62.5,121.7z"/>
<g>
	<path class="st7" d="M89.3,123.9c0,0.4-0.3,0.9-0.6,1.1c-0.3,0.2-0.6,0-0.6-0.4c0-0.4,0.3-0.9,0.6-1.1
		C89.1,123.4,89.3,123.5,89.3,123.9z"/>
</g>
<g>
	<path class="st7" d="M87.5,125c0,0.4-0.3,0.9-0.6,1.1c-0.3,0.2-0.6,0-0.6-0.4c0-0.4,0.3-0.9,0.6-1.1S87.5,124.6,87.5,125z"/>
</g>
<g>
	<path class="st53" d="M85.8,126.1c0,0.4-0.3,0.9-0.6,1.1c-0.3,0.2-0.6,0-0.6-0.4c0-0.4,0.3-0.9,0.6-1.1S85.8,125.7,85.8,126.1z"/>
</g>
<g>
	<path class="st9" d="M84,127.1c0,0.4-0.3,0.9-0.6,1.1c-0.3,0.2-0.6,0-0.6-0.4c0-0.4,0.3-0.9,0.6-1.1C83.7,126.6,84,126.8,84,127.1z
		"/>
</g>
<g>
	<path class="st9" d="M82.2,128.2c0,0.4-0.3,0.9-0.6,1.1c-0.3,0.2-0.6,0-0.6-0.4c0-0.4,0.3-0.9,0.6-1.1
		C81.9,127.7,82.2,127.8,82.2,128.2z"/>
</g>
<g>
	<path class="st9" d="M80.4,129.3c0,0.4-0.3,0.9-0.6,1.1c-0.3,0.2-0.6,0-0.6-0.4c0-0.4,0.3-0.9,0.6-1.1
		C80.1,128.7,80.4,128.9,80.4,129.3z"/>
</g>
<g>
	<path class="st9" d="M78.6,130.4c0,0.4-0.3,0.9-0.6,1.1c-0.3,0.2-0.6,0-0.6-0.4s0.3-0.9,0.6-1.1C78.3,129.8,78.6,130,78.6,130.4z"
		/>
</g>
<g>
	<path class="st9" d="M76.8,131.4c0,0.4-0.3,0.9-0.6,1.1c-0.3,0.2-0.6,0-0.6-0.4c0-0.4,0.3-0.9,0.6-1.1
		C76.5,130.9,76.8,131,76.8,131.4z"/>
</g>
<g>
	<path class="st7" d="M95.5,111.8c0-0.5,0.3-1,0.7-1.3c0.4-0.2,0.7,0,0.7,0.4v0.7c0,0.5-0.3,1-0.7,1.3c-0.4,0.2-0.7,0-0.7-0.4V111.8
		z"/>
</g>
<g>
	<path class="st7" d="M95.5,108.2c0-0.5,0.3-1,0.7-1.3c0.4-0.2,0.7,0,0.7,0.4v0.7c0,0.5-0.3,1-0.7,1.3c-0.4,0.2-0.7,0-0.7-0.4V108.2
		z"/>
</g>
<g>
	<path class="st7" d="M80,118.9l7.9-4.8v1.1L80,120V118.9z"/>
</g>
<g>
	<path class="st53" d="M75.6,121.6l3.5-2.1v1.1l-3.5,2.1V121.6z"/>
</g>
<g>
	<path class="st7" d="M84.7,114l4.7-2.8v1.1l-4.7,2.8V114z"/>
</g>
<g>
	<path class="st9" d="M75.6,119.5l8.2-4.9v1.1l-8.2,4.9V119.5z"/>
</g>
<ellipse class="st54" cx="71.2" cy="100.5" rx="12.6" ry="7.3"/>
<g>
	<path class="st55" d="M80.4,94.9c0.1,0.1,0.2,0.1,0.3,0.2c0.1,0.1,0.2,0.1,0.3,0.2c0.3,0.2,0.3,0.5,0,0.7c-0.3,0.2-0.9,0.2-1.2,0
		c-0.1-0.1-0.2-0.1-0.3-0.2s-0.2-0.1-0.3-0.1c-0.3-0.2-0.4-0.5,0-0.7C79.5,94.7,80,94.7,80.4,94.9z M81.8,96.6
		c0.4-0.1,0.9,0,1.1,0.2c0.1,0.1,0.3,0.3,0.4,0.4c0.2,0.2,0,0.5-0.4,0.6c-0.4,0.1-0.9,0-1.1-0.2c-0.1-0.1-0.2-0.3-0.3-0.4
		C81.2,97,81.4,96.7,81.8,96.6z M83.4,98.7c0.5,0,0.9,0.1,1,0.4c0.1,0.2,0.1,0.3,0.1,0.5c0.1,0.3-0.3,0.5-0.7,0.5
		c-0.5,0-0.9-0.2-0.9-0.4c0-0.1-0.1-0.3-0.1-0.4C82.6,99,82.9,98.7,83.4,98.7z M83.8,101c0.5,0,0.8,0.3,0.7,0.5
		c0,0.2-0.1,0.3-0.1,0.5c-0.1,0.3-0.5,0.4-1,0.4c-0.5,0-0.8-0.3-0.7-0.6c0-0.1,0.1-0.3,0.1-0.4C82.9,101.1,83.3,100.9,83.8,101z
		 M82.9,103.2c0.4,0.1,0.6,0.4,0.4,0.6c-0.1,0.1-0.2,0.3-0.4,0.4c-0.2,0.2-0.7,0.3-1.1,0.2c-0.4-0.1-0.6-0.4-0.3-0.7
		c0.1-0.1,0.2-0.3,0.3-0.4C82,103.2,82.5,103.1,82.9,103.2z M80.9,105.2c0.3,0.2,0.4,0.5,0,0.7c-0.1,0.1-0.2,0.1-0.3,0.2
		c-0.1,0.1-0.2,0.1-0.3,0.2c-0.3,0.2-0.9,0.2-1.2,0c-0.3-0.2-0.3-0.5,0-0.7c0.1,0,0.2-0.1,0.3-0.1s0.2-0.1,0.3-0.2
		C80.1,105,80.6,105,80.9,105.2z M78,106.7c0.2,0.2,0.1,0.5-0.3,0.7c-0.2,0.1-0.5,0.2-0.8,0.2c-0.4,0.1-0.9,0-1.1-0.2
		c-0.2-0.2,0-0.5,0.4-0.6c0.2-0.1,0.4-0.1,0.7-0.2C77.2,106.4,77.7,106.4,78,106.7z M74.4,107.6c0.1,0.3-0.2,0.5-0.7,0.6
		c-0.3,0-0.6,0.1-0.8,0.1c-0.5,0-0.9-0.2-0.9-0.4c-0.1-0.3,0.3-0.5,0.7-0.5c0.2,0,0.5,0,0.7-0.1C73.8,107.2,74.3,107.3,74.4,107.6z"
		/>
</g>
<g>
	<path class="st55" d="M71.7,105.9c-2.5,0.1-5.3-0.4-7.4-1.7l-0.1-0.1l0.8-1.3c0-0.1,0.1-0.1,0.2-0.1c0.2-0.1,0.6-0.1,0.8,0l0,0
		L71.7,105.9z M71.2,104.3l8-1.2l-0.1,0.1c-0.5,0.5-2.5,2.2-6.5,2.6l-0.2,0l-1.5-0.9c-0.1,0-0.1-0.1-0.2-0.2
		C70.7,104.6,70.9,104.4,71.2,104.3L71.2,104.3z M69.3,95.4l0.3,0.2c4.5,2.5,5.9,3.6,4.6,4.3c-0.2,0.1,0.3,0.3,0.5,0.9
		c0.2,0.6,0.1,1.1-1.2,1.8l-0.1,0.1c0,0,0.4-1.1-3.3-2.3c-0.3-0.1,2.4,1.2,1.6,2c-0.7-1.2-2.7-2-4.5-1.9c-1.8,0.1-2.9,1.1-3.6,3.2
		c-0.6-0.5-1.1-1.1-1.4-1.7l0-0.1c0.1-0.4,0.7-1.4,2.7-2.3l-0.1,0c-0.3,0.1-1.4,0.3-3,1.4c-0.1-0.8,0.1-1.6,0.6-2.4
		c0.8-0.2,2.8-0.6,4.4-0.5c-0.8-0.3-3.9-0.2-3.9-0.2l0.1-0.1c0.4-0.4,1.1-1,2.4-1.6c0.7,0,2.1,0.2,3.4,0.6c-1.2-0.7-2.8-0.9-2.8-0.9
		C68.2,95.4,69.3,95.4,69.3,95.4z M71.5,98.2l-0.1-0.1c-0.6,0.5-0.1,0.9,0.2,1.2c0.3,0.2,1.3,0.2,1.3,0.2
		C72.6,99,71.8,98.4,71.5,98.2L71.5,98.2z M78.9,97.6c1.6,1.5,1.9,3.3,0.8,4.9l-0.1,0.1l-2.2,0.3c-0.1,0-0.2,0-0.3,0
		c-0.3,0-0.5-0.2-0.5-0.4l0,0L78.9,97.6z M70.4,95.2c2.6-0.1,5.6,0.4,7.8,1.9l0.1,0.1l-0.7,1.5c0,0.1-0.1,0.1-0.2,0.2
		c-0.2,0.1-0.6,0.1-0.8,0l0,0L70.4,95.2z"/>
</g>
</svg>
