<?xml version="1.0" encoding="utf-8"?>
<!-- Generator: Adobe Illustrator 24.0.2, SVG Export Plug-In . SVG Version: 6.00 Build 0)  -->
<svg version="1.1" id="Layer_1" xmlns="http://www.w3.org/2000/svg" xmlns:xlink="http://www.w3.org/1999/xlink" x="0px" y="0px"
	 viewBox="0 0 143 143" style="enable-background:new 0 0 143 143;" xml:space="preserve">
<style type="text/css">
	.st0{fill:url(#SVGID_1_);}
	.st1{fill-rule:evenodd;clip-rule:evenodd;fill:url(#SVGID_2_);}
	.st2{fill-opacity:0.3;}
	.st3{fill:#FFFFFF;fill-opacity:0.2;}
	.st4{fill:url(#SVGID_3_);}
	.st5{fill:url(#SVGID_4_);}
	.st6{fill-rule:evenodd;clip-rule:evenodd;fill:url(#SVGID_5_);}
	.st7{fill-opacity:0.2;}
	.st8{fill-rule:evenodd;clip-rule:evenodd;fill:url(#SVGID_6_);}
	.st9{fill:#1AD9FF;}
	.st10{fill-rule:evenodd;clip-rule:evenodd;fill-opacity:0.5;}
	.st11{fill:#FFC34D;}
	.st12{fill:url(#SVGID_7_);}
	.st13{fill:url(#SVGID_8_);}
	.st14{fill-rule:evenodd;clip-rule:evenodd;fill:url(#SVGID_9_);}
	.st15{fill:url(#SVGID_10_);}
	.st16{fill:url(#SVGID_11_);}
	.st17{fill-rule:evenodd;clip-rule:evenodd;fill:url(#SVGID_12_);}
	.st18{fill-rule:evenodd;clip-rule:evenodd;fill:url(#SVGID_13_);}
	.st19{fill:url(#SVGID_14_);}
</style>
<linearGradient id="SVGID_1_" gradientUnits="userSpaceOnUse" x1="60.927" y1="111.2934" x2="123.6094" y2="69.5347" gradientTransform="matrix(1 0 0 -1 0 144)">
	<stop  offset="0" style="stop-color:#365FB3"/>
	<stop  offset="0.4552" style="stop-color:#471F99"/>
	<stop  offset="0.9346" style="stop-color:#5E1980"/>
</linearGradient>
<path class="st0" d="M47,25.6l40.1,23.3l40.6-23.3v46.2c0,2.1-1.1,4.1-2.9,5.1L90.3,97.2c-1.8,1.1-4.1,1.1-6,0L49.9,76.9
	c-1.8-1.1-2.9-3-2.9-5.1V25.6z"/>
<linearGradient id="SVGID_2_" gradientUnits="userSpaceOnUse" x1="47.9277" y1="95.0189" x2="128.7348" y2="77.6428" gradientTransform="matrix(1 0 0 -1 0 144)">
	<stop  offset="0" style="stop-color:#5C8AE6"/>
	<stop  offset="0.848" style="stop-color:#661F66"/>
</linearGradient>
<path class="st1" d="M46.7,25.2l40.4,23.4L128,25.2v46.6c0,2.2-1.2,4.2-3,5.3L90.5,97.5c-1.9,1.1-4.3,1.1-6.2,0L49.8,77.1
	c-1.9-1.1-3-3.1-3-5.3V25.2z M127.5,26.1L87.1,49.2L47.2,26.1v45.7c0,2,1.1,3.9,2.8,4.9L84.5,97c1.8,1,4,1,5.7,0l34.5-20.3
	c1.7-1,2.8-2.9,2.8-4.9V26.1z"/>
<path class="st2" d="M47,64.3l37.4,22c1.8,1.1,4.1,1.1,6,0l37.4-22v2L91.3,87.7c-2.5,1.4-5.5,1.4-8,0L47,66.3V64.3z"/>
<path class="st3" d="M47,65.8l36.9,21.7c2.2,1.3,4.8,1.3,7,0l36.9-21.7v0.5L90.8,88c-2.2,1.3-4.8,1.3-7,0L47,66.3V65.8z"/>
<linearGradient id="SVGID_3_" gradientUnits="userSpaceOnUse" x1="83.4187" y1="70.2794" x2="91.2977" y2="70.2794" gradientTransform="matrix(1 0 0 -1 0 144)">
	<stop  offset="0" style="stop-color:#000000;stop-opacity:0"/>
	<stop  offset="0.4996" style="stop-color:#000000;stop-opacity:0.1"/>
	<stop  offset="1" style="stop-color:#000000;stop-opacity:0"/>
</linearGradient>
<path class="st4" d="M83.4,48.9h7.9v49.6h-7.9V48.9z"/>
<linearGradient id="SVGID_4_" gradientUnits="userSpaceOnUse" x1="54.3877" y1="103.4564" x2="120.6491" y2="133.1065" gradientTransform="matrix(1 0 0 -1 0 144)">
	<stop  offset="0" style="stop-color:#527ACC"/>
	<stop  offset="1" style="stop-color:#7A3D99"/>
</linearGradient>
<path class="st5" d="M85.1,2.5c1.2-0.7,2.7-0.7,3.9,0L127,24.4c1.3,0.8,1.3,2.7,0,3.4L89.1,49.3c-1.2,0.7-2.7,0.7-3.9,0L47.7,27.8
	c-1.3-0.8-1.3-2.7,0-3.4L85.1,2.5z"/>
<linearGradient id="SVGID_5_" gradientUnits="userSpaceOnUse" x1="78.2193" y1="86.3267" x2="96.5545" y2="149.7623" gradientTransform="matrix(1 0 0 -1 0 144)">
	<stop  offset="0" style="stop-color:#66CCFF"/>
	<stop  offset="1" style="stop-color:#991F99"/>
</linearGradient>
<path class="st6" d="M85,2.3c1.3-0.8,2.9-0.8,4.2,0l37.9,21.9c1.5,0.9,1.5,3,0,3.9L89.2,49.5c-1.3,0.7-2.8,0.7-4.1,0L47.6,28.1
	c-1.5-0.9-1.5-3,0-3.9L85,2.3z M89,2.7c-1.1-0.7-2.6-0.7-3.7,0L47.8,24.6c-1.1,0.7-1.1,2.3,0,3l37.4,21.5c1.1,0.6,2.5,0.6,3.6,0
	l37.9-21.5c1.2-0.7,1.2-2.3,0-3L89,2.7z"/>
<path class="st7" d="M86.7,12c0.1-0.1,0.2-0.1,0.3-0.1c0.1,0,0.1,0,0.2,0c0.1,0,0.1,0.1,0.3,0.1L111,25.4c0.4,0.2,0.6,0.3,0.7,0.5
	c0.1,0.1,0.1,0.3,0,0.4c-0.1,0.1-0.3,0.3-0.7,0.5l-23.5,13c-0.1,0.1-0.2,0.1-0.3,0.1c-0.1,0-0.1,0-0.2,0c-0.1,0-0.1-0.1-0.3-0.1
	l-23-13c-0.4-0.2-0.6-0.3-0.7-0.5c-0.1-0.1-0.1-0.3,0-0.4c0.1-0.1,0.3-0.3,0.7-0.5L86.7,12z"/>
<linearGradient id="SVGID_6_" gradientUnits="userSpaceOnUse" x1="66.4711" y1="109.0019" x2="108.4236" y2="127.5194" gradientTransform="matrix(1 0 0 -1 0 144)">
	<stop  offset="0" style="stop-color:#334466"/>
	<stop  offset="1" style="stop-color:#3D1F4D"/>
</linearGradient>
<path class="st8" d="M86.8,10.6c0.2-0.1,0.5-0.1,0.7,0c0.3,0.1,0.5,0.2,0.6,0.3c0,0,0,0,0,0l23.5,13.5c0.2,0.1,0.4,0.2,0.5,0.3
	c0.2,0.1,0.5,0.3,0.6,0.7c0.2,0.5,0.2,1,0,1.4c-0.2,0.4-0.5,0.6-0.6,0.7c-0.2,0.1-0.4,0.2-0.5,0.3l-23.5,13c0,0,0,0,0,0
	c-0.1,0.1-0.3,0.2-0.6,0.2c-0.2,0-0.5,0-0.7,0c-0.3-0.1-0.5-0.2-0.6-0.3c0,0,0,0,0,0l-23-13c0,0,0,0,0,0c-0.2-0.1-0.4-0.2-0.5-0.3
	c-0.2-0.1-0.5-0.3-0.6-0.7c-0.2-0.4-0.2-1,0-1.4c0.2-0.4,0.5-0.6,0.6-0.7c0.2-0.1,0.3-0.2,0.5-0.3c0,0,0,0,0,0l23-13.4c0,0,0,0,0,0
	C86.2,10.8,86.5,10.7,86.8,10.6z M87.1,13.2L65,26.1l22.1,12.5l22.6-12.5L87.1,13.2z"/>
<path class="st9" d="M53.9,40.4c0-0.8,0.6-1.1,1.2-0.7c0.7,0.4,1.2,1.3,1.2,2.1v20.6c0,0.8-0.6,1.1-1.2,0.7
	c-0.7-0.4-1.2-1.3-1.2-2.1V40.4z"/>
<path class="st10" d="M55.1,63.1c0.5,0.3,1,0.2,1.2-0.3c-0.2,0-0.4-0.1-0.6-0.2c-0.7-0.4-1.3-1.3-1.3-2.1V40c0-0.2,0-0.3,0.1-0.5
	c-0.4,0-0.7,0.3-0.7,0.9V61C53.9,61.8,54.4,62.7,55.1,63.1z"/>
<path class="st9" d="M60.3,43.9c0-0.8,0.6-1.1,1.2-0.7c0.7,0.4,1.2,1.3,1.2,2.1v20.6c0,0.8-0.6,1.1-1.2,0.7
	c-0.7-0.4-1.2-1.3-1.2-2.1V43.9z"/>
<path class="st10" d="M61.5,66.6c0.5,0.3,1,0.2,1.2-0.3c-0.2,0-0.4-0.1-0.6-0.2c-0.7-0.4-1.3-1.3-1.3-2.1V43.4c0-0.2,0-0.3,0.1-0.5
	c-0.4,0-0.7,0.3-0.7,0.9v20.6C60.3,65.3,60.8,66.2,61.5,66.6z"/>
<path class="st9" d="M66.7,47.8c0-0.8,0.6-1.1,1.2-0.7c0.7,0.4,1.2,1.3,1.2,2.1v20.6c0,0.8-0.6,1.1-1.2,0.7
	c-0.7-0.4-1.2-1.3-1.2-2.1V47.8z"/>
<path class="st10" d="M67.9,70.6c0.5,0.3,1,0.2,1.2-0.3c-0.2,0-0.4-0.1-0.6-0.2c-0.7-0.4-1.3-1.3-1.3-2.1V47.4c0-0.2,0-0.3,0.1-0.5
	c-0.4,0-0.7,0.3-0.7,0.9v20.6C66.7,69.2,67.2,70.2,67.9,70.6z"/>
<path class="st9" d="M73.1,51.3c0-0.8,0.6-1.1,1.2-0.7c0.7,0.4,1.2,1.3,1.2,2.1v20.6c0,0.8-0.6,1.1-1.2,0.7
	c-0.7-0.4-1.2-1.3-1.2-2.1V51.3z"/>
<path class="st10" d="M74.3,74c0.5,0.3,1,0.2,1.2-0.3c-0.2,0-0.4-0.1-0.6-0.2c-0.7-0.4-1.3-1.3-1.3-2.1V50.9c0-0.2,0-0.3,0.1-0.5
	c-0.4,0-0.7,0.3-0.7,0.9v20.6C73.1,72.7,73.6,73.7,74.3,74z"/>
<g>
	<path class="st11" d="M113,79.3c0,0.6-0.4,1.3-0.9,1.5c-0.5,0.3-0.9,0.1-0.9-0.5c0-0.6,0.4-1.3,0.9-1.5
		C112.6,78.5,113,78.7,113,79.3z"/>
	<path class="st9" d="M110.4,80.9c0,0.6-0.4,1.3-0.9,1.5c-0.5,0.3-0.9,0.1-0.9-0.5c0-0.6,0.4-1.3,0.9-1.5
		C110,80.1,110.4,80.3,110.4,80.9z"/>
	<path class="st9" d="M107.8,82.4c0,0.6-0.4,1.3-0.9,1.5s-0.9,0.1-0.9-0.5c0-0.6,0.4-1.3,0.9-1.5C107.4,81.6,107.8,81.8,107.8,82.4z
		"/>
	<path class="st9" d="M105.3,84c0,0.6-0.4,1.3-0.9,1.5c-0.5,0.3-0.9,0.1-0.9-0.5c0-0.6,0.4-1.3,0.9-1.5
		C104.9,83.2,105.3,83.4,105.3,84z"/>
	<path class="st9" d="M102.7,85.5c0,0.6-0.4,1.3-0.9,1.5c-0.5,0.3-0.9,0.1-0.9-0.5c0-0.6,0.4-1.3,0.9-1.5
		C102.3,84.7,102.7,84.9,102.7,85.5z"/>
	<path class="st9" d="M100.1,87.1c0,0.6-0.4,1.3-0.9,1.5c-0.5,0.3-0.9,0.1-0.9-0.5c0-0.6,0.4-1.3,0.9-1.5
		C99.7,86.3,100.1,86.5,100.1,87.1z"/>
	<path class="st9" d="M97.5,88.6c0,0.6-0.4,1.3-0.9,1.5c-0.5,0.3-0.9,0.1-0.9-0.5c0-0.6,0.4-1.3,0.9-1.5
		C97.2,87.8,97.5,88,97.5,88.6z"/>
	<path class="st9" d="M95,90.1c0,0.6-0.4,1.3-0.9,1.5c-0.5,0.3-0.9,0.1-0.9-0.5c0-0.6,0.4-1.3,0.9-1.5C94.6,89.3,95,89.6,95,90.1z"
		/>
</g>
<g>
	<path class="st9" d="M121.8,53.9c0-0.7,0.5-1.5,1.1-1.9c0.6-0.3,1.1-0.1,1.1,0.6v1c0,0.7-0.5,1.5-1.1,1.9c-0.6,0.3-1.1,0.1-1.1-0.6
		V53.9z"/>
</g>
<g>
	<path class="st9" d="M121.8,48.7c0-0.7,0.5-1.5,1.1-1.9c0.6-0.3,1.1-0.1,1.1,0.6v1c0,0.7-0.5,1.5-1.1,1.9c-0.6,0.3-1.1,0.1-1.1-0.6
		V48.7z"/>
</g>
<g>
	<path class="st9" d="M121.8,43.5c0-0.7,0.5-1.5,1.1-1.9c0.6-0.3,1.1-0.1,1.1,0.6v1c0,0.7-0.5,1.5-1.1,1.9c-0.6,0.3-1.1,0.1-1.1-0.6
		V43.5z"/>
</g>
<g>
	<path class="st9" d="M121.8,38.3c0-0.7,0.5-1.5,1.1-1.9c0.6-0.3,1.1-0.1,1.1,0.6v1c0,0.7-0.5,1.5-1.1,1.9c-0.6,0.3-1.1,0.1-1.1-0.6
		V38.3z"/>
</g>
<g>
	<path class="st9" d="M101.3,62.4l11-6.6v1.5l-11,6.6V62.4z"/>
</g>
<g>
	<path class="st9" d="M98.3,64.2l1.7-1v1.5l-1.7,1V64.2z"/>
</g>
<g>
	<path class="st9" d="M93.3,67.2l3.8-2.3v1.5l-3.8,2.3V67.2z"/>
</g>
<g>
	<path class="st9" d="M105.1,57l11.8-7.1v1.5l-11.8,7.1V57z"/>
</g>
<g>
	<path class="st9" d="M102.1,58.8l1.7-1v1.5l-1.7,1V58.8z"/>
</g>
<g>
	<path class="st9" d="M99.2,60.6l1.7-1v1.5l-1.7,1V60.6z"/>
</g>
<g>
	<path class="st11" d="M96.2,62.4l1.7-1v1.5l-1.7,1V62.4z"/>
</g>
<g>
	<path class="st9" d="M93.3,64.2l1.7-1v1.5l-1.7,1V64.2z"/>
</g>
<g>
	<path class="st9" d="M104.2,54.5l9.7-5.9v1.5l-9.7,5.9V54.5z"/>
</g>
<g>
	<path class="st9" d="M93.3,61.1l9.7-5.9v1.5l-9.7,5.9V61.1z"/>
</g>
<g>
	<path class="st9" d="M112.3,46.6l4.6-2.8v1.5l-4.6,2.8V46.6z"/>
</g>
<g>
	<path class="st11" d="M99.6,54.2l11.4-6.9v1.5l-11.4,6.9V54.2z"/>
</g>
<g>
	<path class="st11" d="M93.3,58l5.1-3.1v1.5l-5.1,3.1V58z"/>
</g>
<g>
	<path class="st9" d="M106.4,47.1l6.8-4.1v1.5l-6.8,4.1V47.1z"/>
</g>
<g>
	<path class="st9" d="M93.3,55l11.8-7.1v1.5l-11.8,7.1V55z"/>
</g>
<g>
	
		<linearGradient id="SVGID_7_" gradientUnits="userSpaceOnUse" x1="87.3419" y1="131.0048" x2="87.3419" y2="105.2273" gradientTransform="matrix(1 0 0 -1 0 144)">
		<stop  offset="0" style="stop-color:#99DDFF"/>
		<stop  offset="1" style="stop-color:#99BBFF"/>
	</linearGradient>
	<path class="st12" d="M85.5,13.9c0.6-0.3,0.9-0.5,1.2-0.6c0.3-0.1,0.6-0.1,0.8,0c0.3,0.1,0.6,0.2,1.2,0.6l18.7,10.8
		c0.8,0.5,1.2,0.7,1.3,1c0.1,0.3,0.1,0.6,0,0.8c-0.1,0.3-0.5,0.5-1.3,1L88.7,37.9c-0.6,0.3-0.8,0.5-1.1,0.5c-0.3,0.1-0.5,0.1-0.8,0
		c-0.3-0.1-0.6-0.2-1.1-0.5L67.3,27.5c-0.8-0.4-1.2-0.7-1.3-1c-0.1-0.3-0.1-0.5,0-0.8c0.1-0.3,0.5-0.5,1.3-1L85.5,13.9z"/>
</g>
<linearGradient id="SVGID_8_" gradientUnits="userSpaceOnUse" x1="27.4413" y1="67.959" x2="90.124" y2="26.2003" gradientTransform="matrix(1 0 0 -1 0 144)">
	<stop  offset="0" style="stop-color:#365FB3"/>
	<stop  offset="0.4552" style="stop-color:#471F99"/>
	<stop  offset="0.9346" style="stop-color:#5E1980"/>
</linearGradient>
<path class="st13" d="M13.5,69l40.1,23.3L94.3,69v46.2c0,2.1-1.1,4.1-2.9,5.1l-34.5,20.3c-1.8,1.1-4.1,1.1-6,0l-34.5-20.3
	c-1.8-1.1-2.9-3-2.9-5.1V69z"/>
<linearGradient id="SVGID_9_" gradientUnits="userSpaceOnUse" x1="14.442" y1="51.6845" x2="95.2495" y2="34.3084" gradientTransform="matrix(1 0 0 -1 0 144)">
	<stop  offset="0" style="stop-color:#5C8AE6"/>
	<stop  offset="0.848" style="stop-color:#661F66"/>
</linearGradient>
<path class="st14" d="M13.2,68.5L53.6,92l40.9-23.4v46.6c0,2.2-1.2,4.2-3,5.3L57,140.8c-1.9,1.1-4.3,1.1-6.2,0l-34.5-20.3
	c-1.9-1.1-3-3.1-3-5.3V68.5z M94,69.4L53.6,92.6L13.7,69.4v45.7c0,2,1.1,3.9,2.8,4.9L51,140.4c1.8,1,4,1,5.7,0l34.5-20.3
	c1.7-1,2.8-2.9,2.8-4.9V69.4z"/>
<path class="st2" d="M13.5,107.6l37.4,22c1.8,1.1,4.1,1.1,6,0l37.4-22v2l-36.4,21.4c-2.5,1.4-5.5,1.4-8,0l-36.4-21.4V107.6z"/>
<path class="st3" d="M13.5,109.1l36.9,21.7c2.2,1.3,4.8,1.3,7,0l36.9-21.7v0.5l-36.9,21.7c-2.2,1.3-4.8,1.3-7,0l-36.9-21.7V109.1z"
	/>
<linearGradient id="SVGID_10_" gradientUnits="userSpaceOnUse" x1="49.933" y1="26.9448" x2="57.812" y2="26.9448" gradientTransform="matrix(1 0 0 -1 0 144)">
	<stop  offset="0" style="stop-color:#000000;stop-opacity:0"/>
	<stop  offset="0.4996" style="stop-color:#000000;stop-opacity:0.1"/>
	<stop  offset="1" style="stop-color:#000000;stop-opacity:0"/>
</linearGradient>
<path class="st15" d="M49.9,92.3h7.9v49.6h-7.9V92.3z"/>
<linearGradient id="SVGID_11_" gradientUnits="userSpaceOnUse" x1="20.902" y1="60.1221" x2="87.163" y2="89.7717" gradientTransform="matrix(1 0 0 -1 0 144)">
	<stop  offset="0" style="stop-color:#527ACC"/>
	<stop  offset="1" style="stop-color:#7A3D99"/>
</linearGradient>
<path class="st16" d="M51.7,45.8c1.2-0.7,2.7-0.7,3.9,0l37.9,21.9c1.3,0.8,1.3,2.7,0,3.4L55.6,92.7c-1.2,0.7-2.7,0.7-3.9,0
	L14.3,71.2c-1.3-0.8-1.3-2.7,0-3.4L51.7,45.8z"/>
<linearGradient id="SVGID_12_" gradientUnits="userSpaceOnUse" x1="44.7336" y1="42.9924" x2="63.0687" y2="106.4278" gradientTransform="matrix(1 0 0 -1 0 144)">
	<stop  offset="0" style="stop-color:#66CCFF"/>
	<stop  offset="1" style="stop-color:#991F99"/>
</linearGradient>
<path class="st17" d="M51.5,45.6c1.3-0.8,2.9-0.8,4.2,0l37.9,21.9c1.5,0.9,1.5,3,0,3.9L55.7,92.9c-1.3,0.7-2.8,0.7-4.1,0L14.1,71.4
	c-1.5-0.9-1.5-3,0-3.9L51.5,45.6z M55.5,46c-1.1-0.7-2.6-0.7-3.7,0L14.4,67.9c-1.1,0.7-1.1,2.3,0,3l37.4,21.5c1.1,0.6,2.5,0.7,3.6,0
	L93.3,71c1.2-0.7,1.2-2.3,0-3L55.5,46z"/>
<path class="st7" d="M53.2,55.3c0.1-0.1,0.2-0.1,0.3-0.1c0.1,0,0.1,0,0.2,0c0.1,0,0.1,0.1,0.3,0.1l23.5,13.4
	c0.4,0.2,0.6,0.3,0.7,0.5c0.1,0.1,0.1,0.3,0,0.4c-0.1,0.1-0.3,0.3-0.7,0.5L54,83.1c-0.1,0.1-0.2,0.1-0.3,0.1c-0.1,0-0.1,0-0.2,0
	c-0.1,0-0.1-0.1-0.3-0.1l-23-13c-0.4-0.2-0.6-0.3-0.7-0.5c-0.1-0.1-0.1-0.3,0-0.4c0.1-0.1,0.3-0.3,0.7-0.5L53.2,55.3z"/>
<linearGradient id="SVGID_13_" gradientUnits="userSpaceOnUse" x1="32.9854" y1="65.6675" x2="74.9382" y2="84.1851" gradientTransform="matrix(1 0 0 -1 0 144)">
	<stop  offset="0" style="stop-color:#334466"/>
	<stop  offset="1" style="stop-color:#3D1F4D"/>
</linearGradient>
<path class="st18" d="M53.3,54c0.2-0.1,0.5-0.1,0.7,0c0.3,0.1,0.5,0.2,0.6,0.3c0,0,0,0,0,0l23.5,13.5c0.2,0.1,0.4,0.2,0.5,0.3
	c0.2,0.1,0.5,0.3,0.6,0.7c0.2,0.5,0.2,1,0,1.4c-0.2,0.4-0.5,0.6-0.6,0.7c-0.2,0.1-0.4,0.2-0.5,0.3l-23.5,13c0,0,0,0,0,0
	c-0.1,0.1-0.3,0.2-0.6,0.2c-0.2,0-0.5,0-0.7,0c-0.3-0.1-0.5-0.2-0.6-0.3c0,0,0,0,0,0l-23-13c0,0,0,0,0,0c-0.2-0.1-0.4-0.2-0.5-0.3
	c-0.2-0.1-0.5-0.3-0.6-0.7c-0.2-0.4-0.2-1,0-1.4c0.2-0.4,0.5-0.6,0.6-0.7c0.2-0.1,0.3-0.2,0.5-0.3c0,0,0,0,0,0l23-13.4c0,0,0,0,0,0
	C52.7,54.2,53,54,53.3,54z M53.6,56.5L31.5,69.4l22.1,12.5l22.6-12.5L53.6,56.5z"/>
<path class="st9" d="M20.4,83.7c0-0.8,0.6-1.1,1.2-0.7c0.7,0.4,1.2,1.3,1.2,2.1v20.6c0,0.8-0.6,1.1-1.2,0.7
	c-0.7-0.4-1.2-1.3-1.2-2.1V83.7z"/>
<path class="st10" d="M21.7,106.5c0.5,0.3,1,0.2,1.2-0.3c-0.2,0-0.4-0.1-0.6-0.2c-0.7-0.4-1.3-1.3-1.3-2.1V83.3c0-0.2,0-0.3,0.1-0.5
	c-0.4,0-0.7,0.3-0.7,0.9v20.6C20.4,105.1,21,106.1,21.7,106.5z"/>
<path class="st9" d="M26.8,87.2c0-0.8,0.6-1.1,1.2-0.7c0.7,0.4,1.2,1.3,1.2,2.1v20.6c0,0.8-0.6,1.1-1.2,0.7
	c-0.7-0.4-1.2-1.3-1.2-2.1V87.2z"/>
<path class="st10" d="M28.1,109.9c0.5,0.3,1,0.2,1.2-0.3c-0.2,0-0.4-0.1-0.6-0.2c-0.7-0.4-1.3-1.3-1.3-2.1V86.8c0-0.2,0-0.3,0.1-0.5
	c-0.4,0-0.7,0.3-0.7,0.9v20.6C26.8,108.6,27.4,109.6,28.1,109.9z"/>
<path class="st9" d="M33.2,91.2c0-0.8,0.6-1.1,1.2-0.7c0.7,0.4,1.2,1.3,1.2,2.1v20.6c0,0.8-0.6,1.1-1.2,0.7
	c-0.7-0.4-1.2-1.3-1.2-2.1V91.2z"/>
<path class="st10" d="M34.5,113.9c0.5,0.3,1,0.2,1.2-0.3c-0.2,0-0.4-0.1-0.6-0.2c-0.7-0.4-1.3-1.3-1.3-2.1V90.7c0-0.2,0-0.3,0.1-0.5
	c-0.4,0-0.7,0.3-0.7,0.9v20.6C33.2,112.6,33.8,113.5,34.5,113.9z"/>
<path class="st9" d="M39.6,94.6c0-0.8,0.6-1.1,1.2-0.7c0.7,0.4,1.2,1.3,1.2,2.1v20.6c0,0.8-0.6,1.1-1.2,0.7
	c-0.7-0.4-1.2-1.3-1.2-2.1V94.6z"/>
<path class="st10" d="M40.9,117.4c0.5,0.3,1,0.2,1.2-0.3c-0.2,0-0.4-0.1-0.6-0.2c-0.7-0.4-1.3-1.3-1.3-2.1V94.2c0-0.2,0-0.3,0.1-0.5
	c-0.4,0-0.7,0.3-0.7,0.9v20.6C39.6,116,40.2,117,40.9,117.4z"/>
<g>
	<path class="st11" d="M79.5,122.7c0,0.6-0.4,1.3-0.9,1.5c-0.5,0.3-0.9,0.1-0.9-0.5c0-0.6,0.4-1.3,0.9-1.5
		C79.1,121.9,79.5,122.1,79.5,122.7z"/>
	<path class="st9" d="M76.9,124.2c0,0.6-0.4,1.3-0.9,1.5c-0.5,0.3-0.9,0.1-0.9-0.5c0-0.6,0.4-1.3,0.9-1.5
		C76.5,123.4,76.9,123.6,76.9,124.2z"/>
	<path class="st9" d="M74.3,125.7c0,0.6-0.4,1.3-0.9,1.5c-0.5,0.3-0.9,0.1-0.9-0.5c0-0.6,0.4-1.3,0.9-1.5
		C74,124.9,74.3,125.2,74.3,125.7z"/>
	<path class="st9" d="M71.8,127.3c0,0.6-0.4,1.3-0.9,1.5c-0.5,0.3-0.9,0.1-0.9-0.5c0-0.6,0.4-1.3,0.9-1.5
		C71.4,126.5,71.8,126.7,71.8,127.3z"/>
	<path class="st9" d="M69.2,128.8c0,0.6-0.4,1.3-0.9,1.5c-0.5,0.3-0.9,0.1-0.9-0.5c0-0.6,0.4-1.3,0.9-1.5
		C68.8,128,69.2,128.3,69.2,128.8z"/>
	<path class="st9" d="M66.6,130.4c0,0.6-0.4,1.3-0.9,1.5c-0.5,0.3-0.9,0.1-0.9-0.5c0-0.6,0.4-1.3,0.9-1.5
		C66.2,129.6,66.6,129.8,66.6,130.4z"/>
	<path class="st9" d="M64.1,131.9c0,0.6-0.4,1.3-0.9,1.5c-0.5,0.3-0.9,0.1-0.9-0.5c0-0.6,0.4-1.3,0.9-1.5
		C63.7,131.1,64.1,131.4,64.1,131.9z"/>
	<path class="st9" d="M61.5,133.5c0,0.6-0.4,1.3-0.9,1.5c-0.5,0.3-0.9,0.1-0.9-0.5c0-0.6,0.4-1.3,0.9-1.5
		C61.1,132.7,61.5,132.9,61.5,133.5z"/>
</g>
<g>
	<path class="st9" d="M88.3,97.2c0-0.7,0.5-1.5,1.1-1.9c0.6-0.3,1.1-0.1,1.1,0.6v1c0,0.7-0.5,1.5-1.1,1.9c-0.6,0.3-1.1,0.1-1.1-0.6
		V97.2z"/>
</g>
<g>
	<path class="st9" d="M88.3,92c0-0.7,0.5-1.5,1.1-1.9c0.6-0.3,1.1-0.1,1.1,0.6v1c0,0.7-0.5,1.5-1.1,1.9c-0.6,0.3-1.1,0.1-1.1-0.6V92
		z"/>
</g>
<g>
	<path class="st9" d="M88.3,86.8c0-0.7,0.5-1.5,1.1-1.9c0.6-0.3,1.1-0.1,1.1,0.6v1c0,0.7-0.5,1.5-1.1,1.9c-0.6,0.3-1.1,0.1-1.1-0.6
		V86.8z"/>
</g>
<g>
	<path class="st9" d="M88.3,81.6c0-0.7,0.5-1.5,1.1-1.9c0.6-0.3,1.1-0.1,1.1,0.6v1c0,0.7-0.5,1.5-1.1,1.9c-0.6,0.3-1.1,0.1-1.1-0.6
		V81.6z"/>
</g>
<g>
	<path class="st9" d="M67.8,105.7l11-6.6v1.5l-11,6.6V105.7z"/>
</g>
<g>
	<path class="st9" d="M64.8,107.5l1.7-1v1.5l-1.7,1V107.5z"/>
</g>
<g>
	<path class="st9" d="M59.8,110.6l3.8-2.3v1.5l-3.8,2.3V110.6z"/>
</g>
<g>
	<path class="st9" d="M71.6,100.4l11.8-7.1v1.5l-11.8,7.1V100.4z"/>
</g>
<g>
	<path class="st9" d="M68.6,102.1l1.7-1v1.5l-1.7,1V102.1z"/>
</g>
<g>
	<path class="st9" d="M65.7,103.9l1.7-1v1.5l-1.7,1V103.9z"/>
</g>
<g>
	<path class="st11" d="M62.7,105.7l1.7-1v1.5l-1.7,1V105.7z"/>
</g>
<g>
	<path class="st9" d="M59.8,107.5l1.7-1v1.5l-1.7,1V107.5z"/>
</g>
<g>
	<path class="st9" d="M70.8,97.8l9.7-5.9v1.5l-9.7,5.9V97.8z"/>
</g>
<g>
	<path class="st9" d="M59.8,104.4l9.7-5.9v1.5l-9.7,5.9V104.4z"/>
</g>
<g>
	<path class="st9" d="M78.8,89.9l4.6-2.8v1.5l-4.6,2.8V89.9z"/>
</g>
<g>
	<path class="st11" d="M66.1,97.6l11.4-6.9v1.5l-11.4,6.9V97.6z"/>
</g>
<g>
	<path class="st11" d="M59.8,101.4l5.1-3.1v1.5l-5.1,3.1V101.4z"/>
</g>
<g>
	<path class="st9" d="M72.9,90.4l6.8-4.1v1.5l-6.8,4.1V90.4z"/>
</g>
<g>
	<path class="st9" d="M59.8,98.3l11.8-7.1v1.5l-11.8,7.1V98.3z"/>
</g>
<g>
	
		<linearGradient id="SVGID_14_" gradientUnits="userSpaceOnUse" x1="53.8561" y1="87.6708" x2="53.8561" y2="61.8926" gradientTransform="matrix(1 0 0 -1 0 144)">
		<stop  offset="0" style="stop-color:#99DDFF"/>
		<stop  offset="1" style="stop-color:#99BBFF"/>
	</linearGradient>
	<path class="st19" d="M52,57.3c0.6-0.3,0.9-0.5,1.2-0.6c0.3-0.1,0.6-0.1,0.8,0c0.3,0.1,0.6,0.2,1.2,0.6l18.7,10.8
		c0.8,0.5,1.2,0.7,1.3,1c0.1,0.3,0.1,0.5,0,0.8c-0.1,0.3-0.5,0.5-1.3,1L55.2,81.2c-0.6,0.3-0.8,0.5-1.1,0.5c-0.3,0.1-0.5,0.1-0.8,0
		c-0.3-0.1-0.6-0.2-1.1-0.5L33.8,70.8c-0.8-0.4-1.2-0.7-1.3-1c-0.1-0.3-0.1-0.5,0-0.8c0.1-0.3,0.5-0.5,1.3-1L52,57.3z"/>
</g>
</svg>
